<svg width="421" height="300" viewBox="0 0 421 300" fill="none" xmlns="http://www.w3.org/2000/svg">
<g style="mix-blend-mode:luminosity" opacity="0.4">
<path d="M99.2779 151.476C102.483 151.476 104.738 151.417 106.994 151.476C109.487 151.595 110.852 153.019 110.792 155.451C110.733 157.944 109.249 159.249 106.816 159.249C98.447 159.19 90.0782 158.893 82.481 155.155C78.3263 153.137 74.7057 149.933 71.0852 146.966C69.3046 145.483 68.533 143.347 70.6104 141.329C72.4503 139.608 74.7651 139.786 76.8424 141.863C77.1392 142.16 77.2579 142.516 77.614 143.05C79.5133 139.134 81.2346 135.574 82.8965 132.251C72.5097 114.865 70.7884 97.4199 82.0062 79.5001C81.9468 79.4408 81.65 79.2035 81.2939 79.0848C68.4737 76.2959 62.2416 67.2174 58.9772 55.4687C58.2649 52.8579 58.3243 50.0097 58.1462 47.2802C57.6714 40.3971 57.2559 33.514 56.8405 26.5716C56.7811 25.2068 56.6624 23.7828 56.7217 22.418C56.7811 19.9852 58.0275 18.5018 60.5203 18.4424C63.0132 18.3831 64.3783 19.7478 64.5564 22.24C64.7938 25.6815 64.9718 29.1231 65.2092 32.5646C65.2686 33.2173 65.3873 33.87 65.4467 34.048C70.9665 31.6746 76.427 29.3011 82.481 26.6903C82.3029 24.0201 82.1249 20.5192 81.9468 17.7304C77.7327 15.6536 73.8154 14.0515 70.2543 11.9154C67.4053 10.1946 67.1085 7.82112 68.7111 5.68499C70.4323 3.37085 73.1032 3.01483 75.7147 5.09162C78.8605 7.58377 82.4216 8.47382 86.2796 7.99913C89.4847 7.64311 92.6897 6.87173 95.8354 6.15968C99.7528 5.21029 102.008 6.10035 102.72 9.06719C103.433 12.034 102.008 13.8141 97.9722 14.8229C95.9542 15.2976 93.9361 15.8316 91.9181 16.1283C90.3156 16.3656 89.6627 17.0777 89.9001 18.6798C89.9595 18.8578 89.9595 19.0951 89.9595 19.2731C89.4253 24.9102 90.6717 28.8264 97.3193 29.8945C100.524 30.4285 103.373 32.98 106.875 34.8788C106.875 31.3185 106.875 27.9363 106.875 24.5541C106.934 20.9939 108.122 19.4512 110.733 19.3918C113.404 19.3325 114.591 20.9346 114.71 24.4355C115.007 33.336 115.719 42.1772 115.541 51.0777C115.303 61.6397 109.961 72.1424 97.8534 77.7794C87.526 82.5857 81.9468 91.5455 82.4216 102.879C82.4216 103.235 82.5403 103.65 82.6591 104.066C85.0925 104.066 87.4073 104.006 89.7814 104.066C92.6897 104.184 94.411 105.846 94.2923 108.397C94.2329 110.889 92.6304 112.313 89.7814 112.432C88.0008 112.491 86.2202 112.551 84.4396 112.61C84.1429 112.61 83.9055 112.788 83.6087 112.847C82.8965 122.045 91.0872 131.183 101.118 132.132C104.62 132.488 108.24 132.31 111.801 132.369C115.006 132.429 116.609 133.793 116.55 136.345C116.49 138.837 115.006 140.142 111.979 140.202C110.021 140.261 108.003 140.439 106.044 140.142C103.314 139.727 101.889 140.914 101.237 143.287C100.524 145.779 100.05 148.272 99.2779 151.476ZM70.2543 61.4617C71.0258 60.3936 71.6787 59.3256 72.4503 58.3169C76.1302 53.3919 79.5727 48.4076 83.49 43.6606C85.9828 40.6344 88.4163 40.8125 90.8498 43.9573C94.7671 49.0603 98.447 54.2819 102.246 59.4443C102.898 60.3343 103.611 61.2244 104.323 62.1738C108.952 55.7654 108.537 48.5856 103.492 42.8892C95.8948 34.4634 82.8965 32.8613 73.2219 39.151C65.1499 44.4913 63.8441 53.6292 70.2543 61.4617ZM75.418 67.8701C81.5313 73.3291 94.5297 73.0324 98.5657 67.8701C94.8264 62.5298 91.0278 57.1894 86.8138 51.2558C82.8371 57.0708 79.1572 62.4111 75.418 67.8701ZM91.384 150.467C92.393 146.076 93.2833 142.457 94.2329 138.303C92.393 138.184 89.4847 137.413 89.1879 138.006C87.6447 141.092 86.4577 144.474 85.8641 147.856C85.8048 148.331 89.366 149.518 91.384 150.467Z" fill="#F79E1B"/>
<path d="M9.41729 169.158C10.6637 166.903 11.7321 165.123 9.23924 163.047C8.46765 162.394 8.58635 159.605 9.41729 158.596C10.1889 157.647 12.385 157.172 13.8094 157.469C15.5307 157.825 17.1332 159.13 18.7357 160.08C20.6944 161.266 22.7717 161.801 24.9085 160.614C28.6477 158.656 32.3276 156.579 36.0075 154.561C37.3726 153.79 37.5507 152.841 36.9571 151.357C32.3276 140.024 32.6244 128.453 35.7107 116.823C37.432 110.355 38.7377 103.71 40.5777 97.3013C41.5867 93.741 43.1299 90.2402 44.7918 86.9173C46.3349 83.7724 49.4213 83.5944 51.7361 86.2646C52.0922 86.6206 52.3296 87.036 52.6264 87.4513C57.6714 95.3431 62.7758 103.235 67.6427 111.245C68.9485 113.382 69.4827 115.992 70.3136 118.366C71.56 121.867 72.6877 125.427 74.0528 128.869C75.3586 132.013 74.2903 134.565 70.8478 134.862C64.6751 135.396 58.443 135.633 52.2109 135.87C49.7181 135.93 48.3529 134.328 48.4123 131.895C48.4716 129.462 49.8961 128.097 52.389 128.097C55.2379 128.038 58.1462 128.038 60.9952 127.978C62.1229 127.978 63.3099 127.8 64.2596 127.682C64.4376 127.326 64.497 127.207 64.497 127.148C63.488 120.087 62.5977 119.434 55.5347 120.087C52.0922 120.443 48.6497 120.621 45.2072 121.155C44.1982 121.333 42.655 122.282 42.4176 123.113C40.2216 131.657 40.8745 140.083 44.1982 148.568C46.4536 147.678 48.4717 146.729 50.6084 146.017C58.2649 143.525 65.7434 147.026 68.533 154.324C70.1949 158.656 68.9485 163.284 65.506 165.717C63.6067 167.081 61.7668 166.785 60.1642 165.242C58.6804 163.818 58.3836 162.097 59.8081 160.495C60.9952 159.13 62.3009 157.528 60.8171 156.104C59.2739 154.68 57.0779 153.256 55.1192 153.256C52.7451 153.256 50.371 154.68 47.6407 155.629C52.6264 163.818 58.9772 169.692 66.9898 174.439C67.6427 173.015 68.2362 171.828 68.7704 170.642C69.6607 168.802 70.551 166.903 71.56 165.123C74.2903 160.495 78.2076 158.478 83.5493 159.902C87.6447 160.97 91.7994 161.86 95.8354 163.225C98.6844 164.174 99.3373 166.844 97.5567 169.218C89.2472 180.314 83.5493 192.774 77.9108 205.294C76.1896 209.092 74.5277 212.83 72.7471 216.628C71.3226 219.713 69.8388 220.485 67.5834 219.535C65.0905 218.467 64.3783 216.094 65.7434 213.068C69.4233 204.998 73.1626 196.928 76.8424 188.858C77.1986 188.087 77.4953 187.256 77.9108 186.307C75.9521 185.832 74.2903 185.179 72.569 185.179C71.7974 185.179 70.6104 186.188 70.1949 187.019C67.1679 192.893 64.2596 198.827 61.2919 204.76C60.3423 206.6 58.9178 207.668 56.7217 207.193C53.8134 206.541 52.9231 203.93 54.407 200.963C57.5527 194.733 60.6984 188.443 63.9628 181.916C54.407 176.635 46.9878 169.574 41.468 160.673C23.9588 169.455 23.9588 169.455 18.0235 168.624C17.608 169.692 17.1332 170.879 16.599 172.125C17.3113 172.481 17.7861 172.719 18.3203 172.956C20.3976 173.846 21.1099 175.448 20.3976 177.525C19.6854 179.72 18.0235 180.67 15.7681 180.076C13.8094 179.542 11.8508 178.771 9.47665 177.881C9.47665 179.246 9.47665 180.314 9.47665 181.441C9.47665 188.561 9.65471 195.682 9.536 202.743C9.4173 206.956 7.87411 208.855 5.26258 208.677C2.53233 208.499 1.8201 206.659 1.87945 202.328C1.99815 193.724 1.76074 185.179 1.76074 176.575C1.76074 175.092 1.76074 173.609 1.87945 172.125C2.17621 168.506 4.37228 167.2 7.81476 168.446C8.23023 168.743 8.70506 168.921 9.41729 169.158ZM48.6497 96.4112C47.1659 102.404 45.9195 107.567 44.5543 113.204C49.4807 112.788 53.8134 112.373 58.5023 112.017C55.2379 106.855 52.2109 102.048 48.6497 96.4112ZM88.0008 168.921C85.4486 168.387 83.3119 167.853 81.2346 167.616C80.5223 167.556 79.3353 167.912 78.9792 168.506C77.3173 171.354 75.8928 174.261 74.1122 177.643C76.6644 177.999 78.5043 178.474 80.3443 178.474C81.2346 178.474 82.4216 177.881 82.9558 177.169C84.6771 174.677 86.1609 172.006 88.0008 168.921Z" fill="#F79E1B"/>
<path d="M144.564 50.425C140.41 45.7967 136.67 41.5245 132.931 37.3115C132.634 37.3709 132.278 37.4302 131.981 37.5489C130.319 50.0096 125.453 61.343 119.695 72.3797C119.873 72.5577 120.111 72.7357 120.289 72.8544C136.136 67.0393 152.043 61.2243 168.365 55.2906C167.296 54.1632 166.584 53.3919 165.872 52.6798C156.079 42.8892 146.285 33.158 136.552 23.3674C135.839 22.6553 135.127 22.0026 134.534 21.2312C133.287 19.5698 133.525 17.849 134.89 16.4249C136.373 14.8822 138.154 14.4075 139.935 15.8316C141.478 17.0776 142.784 18.5611 144.208 19.9258C157.266 32.9799 170.323 46.0341 183.381 59.0882C184.153 59.8596 184.687 60.809 185.28 61.6397C189.732 59.3255 193.531 57.3081 197.389 55.4093C200.119 54.1039 202.493 54.9346 203.621 57.3674C204.689 59.8596 203.739 61.521 201.425 62.7077C198.397 64.2505 195.311 65.7933 191.809 67.5734C196.083 71.7863 199.881 75.5839 203.739 79.3814C205.223 80.8055 205.995 82.4076 204.867 84.4251C203.443 86.9172 200.416 87.5106 198.457 85.1371C196.083 82.2296 193.59 82.5263 190.385 83.891C191.275 84.9591 192.106 85.9085 192.759 86.9172C194.065 88.8753 194.302 90.8928 192.284 92.4356C190.385 93.919 188.486 93.741 186.764 91.9015C185.637 90.6554 184.271 89.5874 183.322 88.2226C180.948 84.7217 178.039 84.6624 174.359 86.7392C176.199 88.816 178.039 90.8928 179.879 93.0289C182.075 95.6398 182.135 97.7759 180.176 99.4967C178.277 101.158 176.199 100.565 173.885 98.0132C170.739 94.5717 167.593 91.1895 164.269 87.9259C162.311 86.0272 161.48 83.891 162.073 81.2802C162.904 77.6013 163.795 73.9818 164.685 70.3622C165.1 68.6414 165.694 66.98 166.347 64.9032C165.219 65.1999 164.448 65.2592 163.795 65.5559C147.769 71.4896 131.744 77.4233 115.778 83.4163C111.92 84.8404 109.13 82.823 109.961 78.7287C110.674 75.1685 111.683 71.549 113.344 68.3448C119.28 56.4774 123.197 44.254 125.393 31.4372C126.105 27.1056 128.598 26.0375 132.516 28.1737C141.537 33.158 147.532 41.1091 152.933 49.5943C154.536 52.1458 154.061 54.1039 151.449 55.5873C149.55 56.7147 147.354 57.5454 145.276 58.3168C142.428 59.3849 139.519 60.2749 136.611 61.2243C134.296 61.9957 132.1 60.987 131.328 58.7915C130.498 56.4774 131.447 54.8753 133.584 54.0446C136.908 52.9172 140.35 51.8491 144.564 50.425ZM174.716 62.7077C173.232 67.7514 171.689 73.1511 170.086 78.7287C176.556 77.6013 182.313 76.6519 187.655 75.7025C183.441 71.4303 179.108 67.0987 174.716 62.7077Z" fill="#F79E1B"/>
<path d="M68.6518 262.97C70.6698 261.427 72.8659 259.647 75.1213 257.926C77.0206 256.502 78.8605 254.96 80.8785 253.773C84.6771 251.637 87.5261 253.357 87.5261 257.689C87.5261 258.638 87.5261 259.588 87.5261 260.597C90.6718 261.012 94.5298 259.469 95.0046 264.216C95.3013 266.886 93.8175 267.776 88.179 268.666C88.179 271.455 88.179 274.244 88.179 277.152C91.206 277.923 95.7762 276.499 95.4794 281.602C95.1826 286.408 90.8499 284.687 88.1196 285.399C87.2887 288.307 86.7545 291.274 85.5674 293.944C84.9739 295.368 83.312 297.089 81.9469 297.207C80.6411 297.326 78.5638 296.021 77.7922 294.775C74.231 289.197 71.0259 283.441 67.6428 277.745C66.9899 276.677 66.3964 275.549 65.2687 273.71C55.0599 280.534 45.2073 287.179 35.2953 293.825C34.5831 294.3 33.9302 295.012 33.1586 295.427C30.4877 296.911 27.6388 295.902 27.2827 292.935C26.8078 289.138 26.5111 285.162 27.164 281.483C28.8852 271.811 30.0723 262.199 29.8942 252.349C29.8942 250.984 30.9626 248.907 32.0903 248.373C33.2773 247.839 35.6515 248.314 36.5418 249.263C41.5868 254.247 46.3944 259.528 51.1426 264.75C53.398 267.242 53.398 269.556 51.4394 271.218C49.5401 272.82 47.4034 272.286 45.148 269.675C42.9519 267.124 40.5778 264.631 38.0849 261.902C36.8979 269.556 35.7702 276.618 34.6425 283.975C43.5454 278.398 52.2703 272.998 61.4107 267.302C58.0869 262.851 54.9412 258.342 51.4987 254.069C48.7091 250.628 45.4447 247.542 42.6551 244.101C40.6371 241.609 38.7378 238.82 37.4914 235.912C35.9482 232.471 37.5508 230.157 41.3494 229.682C44.4357 229.326 47.5814 229.148 51.3207 228.851C48.6498 224.994 46.157 221.494 43.7235 217.993C43.0706 217.103 42.4177 216.272 41.8242 215.322C40.3997 213.246 40.7558 211.288 42.6551 209.863C44.5544 208.439 46.5131 208.914 47.9376 210.635C49.6588 212.652 51.1426 214.907 52.6858 217.103C55.1193 220.544 57.4934 224.104 60.0456 227.487C60.8172 228.495 62.301 229.445 63.5474 229.563C71.1446 230.216 78.7418 230.513 86.2797 231.225C87.8822 231.403 89.9596 232.471 90.7905 233.776C91.384 234.726 90.6124 236.98 89.7815 238.227C85.5674 244.16 79.5728 248.017 73.6375 251.993C71.6788 253.298 69.7795 252.527 68.4144 250.806C65.2687 247.127 62.0636 243.448 59.2146 239.591C57.7902 237.692 56.3063 236.921 54.0509 237.04C51.9142 237.158 49.7775 237.04 47.5221 237.04C54.6445 245.762 61.5294 254.188 68.6518 262.97ZM79.3947 282.611C79.5728 282.492 79.6915 282.433 79.8695 282.314C79.8695 276.618 79.8695 270.921 79.8695 264.513C76.9612 266.59 74.7058 268.251 72.3317 269.972C74.7652 274.303 77.0799 278.457 79.3947 282.611ZM68.6518 237.87C68.5331 238.108 68.4737 238.345 68.355 238.583C69.7201 240.185 71.0259 241.727 72.4504 243.389C74.5871 241.787 76.3083 240.422 78.6825 238.642C74.7652 238.345 71.7382 238.108 68.6518 237.87Z" fill="#F79E1B"/>
<path d="M245.287 271.93C245.287 265.047 245.346 258.342 245.227 251.637C245.227 251.103 244.218 250.45 243.506 250.153C241.013 249.204 238.342 248.67 235.968 247.542C230.508 244.932 227.956 240.125 227.303 234.31C226.947 231.225 228.015 228.614 230.686 226.893C233.416 225.172 236.384 225.35 239.233 226.596C241.369 227.546 241.963 229.445 241.251 231.581C240.598 233.657 239.055 234.548 236.859 234.014C236.384 233.895 235.968 233.835 235.434 233.776C235.612 239.057 238.699 241.49 246.118 242.202C246.296 241.549 246.533 240.778 246.771 240.066C248.195 234.963 249.441 229.741 251.222 224.698C252.053 222.324 251.519 221.315 249.619 219.951C247.067 218.171 244.634 216.034 242.616 213.661C239.767 210.338 238.936 206.303 240.182 201.972C241.963 195.86 249.026 193.012 254.605 196.097C256.445 197.106 256.92 198.767 256.386 200.666C255.733 202.802 254.13 203.633 251.994 203.277C250.45 203.04 248.492 201.972 247.958 204.048C247.601 205.472 248.136 207.668 249.145 208.855C250.985 211.05 253.418 212.83 255.852 214.966C259.413 209.923 263.864 207.075 269.621 206.481C270.274 206.422 270.927 205.413 271.343 204.701C272.352 202.921 273.183 201.082 274.192 199.005C271.283 197.996 268.553 197.165 265.882 196.157C261.965 194.673 258.463 192.478 255.97 188.977C252.706 184.349 252.587 179.068 255.674 174.558C258.76 170.048 264.933 167.437 269.918 168.624C275.023 169.811 277.634 176.635 274.251 180.67C273.42 181.678 271.165 182.331 269.918 181.916C268.731 181.56 268.019 179.602 267.307 178.296C267.069 177.881 267.425 177.169 267.485 176.397C264.576 176.457 262.558 177.703 261.49 180.076C260.481 182.331 261.728 184.349 263.449 185.476C266.12 187.256 269.028 188.858 271.996 190.045C275.854 191.588 279.949 192.478 283.807 193.842C287.724 195.207 290.989 197.521 293.422 200.963C294.787 202.921 295.025 204.76 293.007 206.422C291.167 207.905 288.971 207.609 287.19 205.769C285.647 204.167 284.044 202.743 282.145 200.904C280.78 203.514 279.712 205.472 278.584 207.609C282.442 209.685 285.231 212.296 286.24 216.45C286.775 218.586 285.884 220.188 283.866 220.959C281.908 221.731 280.186 221.315 279.059 219.357C275.201 212.771 268.256 212.118 263.152 217.874C262.974 218.111 262.855 218.349 262.499 218.942C263.449 219.773 264.458 220.663 265.467 221.553C267.722 223.63 268.078 225.588 266.535 227.427C264.933 229.385 262.737 229.385 260.303 227.486C259.947 227.19 259.531 226.893 258.582 226.181C257.039 231.937 255.555 237.336 254.071 242.914C257.217 244.279 262.084 243.329 261.193 248.492C260.422 252.942 256.564 251.399 253.418 251.221C253.418 257.986 253.418 264.631 253.418 271.277C256.861 271.692 261.253 269.734 261.668 274.778C262.084 279.703 257.395 278.576 254.486 279.703C254.783 283.975 255.08 288.188 255.317 292.401C255.495 295.546 254.368 297.148 251.994 297.326C249.382 297.563 247.72 295.843 247.483 292.638C247.245 289.197 246.889 285.755 246.771 282.314C246.711 280.474 246.058 279.762 244.1 279.762C241.251 279.703 238.342 279.584 235.553 279.05C229.024 277.745 224.691 272.523 224.454 266.174C224.216 260.181 228.727 256.68 234.366 258.342C236.562 258.994 237.808 260.24 237.571 262.614C237.333 264.809 236.028 265.937 233.832 266.055C233.475 266.055 233.06 266.174 232.704 266.233C233.297 271.277 237.452 273.057 245.287 271.93Z" fill="#F79E1B"/>
<path d="M389.99 250.984C396.756 251.933 402.988 252.823 409.22 253.773C410.11 253.891 410.941 254.247 411.772 254.485C414.265 255.315 415.155 257.096 414.562 259.588C413.968 261.902 412.128 262.792 409.398 261.961C402.573 259.884 395.628 258.876 388.625 259.825C383.876 260.478 379.069 261.605 374.617 263.207C368.266 265.581 365.299 271.099 365.774 278.101C366.189 284.094 371.175 290.206 376.873 291.808C381.146 292.994 386.013 289.85 386.072 285.518C386.072 284.153 384.47 282.729 383.639 281.305C382.808 282.017 381.68 282.61 381.146 283.501C380.018 285.399 378.475 286.111 376.457 285.696C374.261 285.221 373.49 283.619 373.608 281.483C373.905 276.202 380.196 272.108 385.657 273.71C391.83 275.49 395.391 282.136 393.61 288.544C391.236 296.97 382.986 301.598 374.261 298.987C365.952 296.495 360.432 290.918 358.533 282.432C356.515 273.532 358.711 265.521 365.714 259.35C367.257 257.986 367.673 257.036 366.723 255.197C365.596 253.061 364.646 250.747 363.34 247.839C361.975 249.441 360.847 250.569 359.957 251.874C357.88 255.019 356.099 258.342 353.903 261.368C345.119 273.591 329.984 273.235 321.615 260.656C312.89 247.542 317.757 232.352 332.12 227.842C338.293 225.884 342.982 227.13 345.237 231.225C347.671 235.675 346.068 242.736 341.795 246.296C341.736 246.356 341.617 246.415 341.558 246.474C333.545 251.815 332.002 249.678 329.509 243.092C329.093 242.024 328.737 240.897 328.322 239.829C328.025 239.71 327.669 239.651 327.372 239.532C326.66 241.431 325.473 243.27 325.354 245.228C324.939 250.39 326.601 255.019 330.102 258.816C334.791 263.801 341.854 263.741 346.187 258.46C348.146 256.146 349.808 253.476 351.173 250.806C356.693 240.422 365.477 236.268 376.873 237.04C382.214 237.396 387.556 237.692 392.839 238.345C394.263 238.523 396.162 239.888 396.697 241.134C397.171 242.261 396.4 244.338 395.51 245.525C394.026 247.542 391.889 249.204 389.99 250.984ZM374.558 253.951C378 251.103 381.146 248.432 384.351 245.822C384.232 245.584 384.173 245.347 384.054 245.11C379.722 245.11 375.389 245.11 370.937 245.11C370.997 245.703 370.997 246 371.056 246.237C372.184 248.67 373.252 251.103 374.558 253.951ZM336.631 239.769C337.047 239.769 337.462 239.769 337.878 239.829C337.996 238.286 338.115 236.743 338.056 235.26C338.056 235.141 336.453 235.082 335.147 234.963C335.8 236.862 336.216 238.286 336.631 239.769Z" fill="#F79E1B"/>
<path d="M8.82368 43.542C8.82368 53.0359 8.82368 62.1737 8.82368 71.6083C13.2158 69.7095 17.1331 68.0481 21.4065 66.2087C19.2105 62.7671 17.0738 59.5629 15.0558 56.3587C14.4029 55.35 13.8093 54.3413 13.2158 53.3325C12.1475 51.3151 12.6816 49.6537 14.5216 48.4669C16.4802 47.2208 18.3795 47.4582 19.6853 49.4756C23.1278 54.638 26.5109 59.8596 29.894 65.0813C31.1405 67.0394 30.7843 68.9382 28.9444 70.3029C27.5199 71.371 26.0361 72.3797 24.4929 73.1511C19.0918 75.7619 13.6313 78.3727 8.1708 80.8649C4.01608 82.7637 1.5826 81.3396 1.46389 76.7706C1.16713 67.5734 0.929714 58.4355 0.870361 49.2383C0.692302 37.6083 0.692302 25.9782 0.870361 14.3482C0.929714 10.6693 1.5826 6.87173 2.53225 3.31151C3.54125 -0.308043 6.98373 -1.13876 9.35786 1.70941C15.4119 9.00786 21.2285 16.4843 27.0451 23.9608C28.4102 25.7409 28.1728 27.8177 26.2141 29.1231C24.3148 30.3691 22.4155 30.1911 20.9911 28.2924C17.6673 24.0794 14.5216 19.8072 11.2572 15.5943C10.6636 14.7635 9.95139 13.9922 8.64562 13.4581C8.64562 20.7566 8.64562 28.055 8.64562 35.8875C14.2248 35.8875 19.6853 35.9468 25.2051 35.8281C25.9767 35.8281 26.8077 34.9381 27.4012 34.2261C29.5379 31.6152 32.2682 30.4878 35.5326 31.1999C39.2125 31.9712 42.1801 34.048 43.4859 37.6083C43.842 38.617 42.833 40.9905 41.8834 41.4058C40.5776 41.9399 38.6189 41.5245 37.0758 40.9311C35.9481 40.5158 35.1171 39.2697 34.0488 38.3203C32.0308 42.7112 33.4552 46.0341 37.3132 47.1615C44.0201 49.179 48.709 45.2627 46.9284 38.4983C45.9194 34.5821 43.9607 30.7252 41.5273 27.4616C37.3725 21.884 32.4462 16.7217 27.8167 11.2627C27.0451 10.3726 26.2735 9.42321 25.7393 8.41449C24.4336 5.50698 26.0954 2.95549 29.2412 2.89615C30.0127 2.89615 30.8437 3.01482 31.6153 3.07416C39.806 3.43018 47.9374 3.78621 56.1281 4.14223C56.6029 4.14223 57.1371 4.14223 57.6119 4.14223C59.9861 4.2609 61.2918 5.50698 61.3512 7.88045C61.3512 10.2539 60.1048 11.6187 57.7307 11.678C52.2702 11.856 46.8097 11.856 41.4085 11.9747C40.7557 11.9747 40.1028 11.9747 38.7377 11.9747C39.7467 13.1614 40.4589 13.9328 41.1118 14.7635C44.6136 19.5105 48.709 23.9608 51.4986 29.1231C53.5166 32.802 54.4662 37.3116 54.7036 41.5245C55.0598 48.7636 50.5489 53.6292 43.4265 54.8753C35.5919 56.1807 28.4696 52.7392 26.1548 46.1528C25.4426 44.076 24.4929 43.4233 22.4155 43.4826C17.9047 43.6606 13.3345 43.542 8.82368 43.542Z" fill="#F79E1B"/>
<path d="M105.213 210.457C107.884 209.982 109.724 209.745 111.445 209.27C111.979 209.092 112.632 208.261 112.751 207.668C114.057 199.954 118.212 193.902 123.85 188.917C128.242 185.001 133.109 181.5 138.036 178.355C140.35 176.872 141.003 175.685 139.994 173.253C139.519 172.125 139.282 170.879 138.807 169.396C131.685 173.371 125.868 178.296 120.467 183.874C119.577 184.823 118.686 185.773 117.855 186.722C116.312 188.443 114.532 188.858 112.632 187.375C110.733 185.951 110.377 183.518 111.979 181.619C114.116 179.127 116.253 176.635 118.746 174.617C124.088 170.404 129.607 166.429 135.127 162.453C136.374 161.563 137.086 160.851 136.73 159.19C135.602 153.909 134.771 148.509 133.525 143.228C132.99 140.855 133.109 139.134 135.543 138.184C137.739 137.354 140.113 138.184 140.884 140.558C141.953 143.821 142.606 147.204 143.318 150.586C145.099 158.893 146.82 167.2 148.66 175.448C149.669 179.898 148.956 181.322 144.98 183.518C140.291 186.129 135.78 189.155 130.676 192.3C132.753 193.842 134.178 194.851 135.543 195.919C137.561 197.403 137.917 199.361 136.552 201.378C135.127 203.514 133.169 203.514 131.091 202.268C129.251 201.141 127.471 199.954 125.512 198.649C122.604 202.209 120.645 205.828 120.408 210.279C120.17 214.254 119.102 215.738 115.185 216.628C111.208 217.518 107.172 217.993 103.255 218.883C97.9722 220.129 92.8084 221.671 87.5854 223.096C86.9918 223.274 86.4577 223.511 85.8641 223.57C81.2939 224.282 79.0385 221.909 80.1069 217.459C83.7868 201.734 90.4937 187.375 100.643 174.855C106.282 167.912 112.988 161.86 119.221 155.392C119.814 154.739 120.586 154.205 121.298 153.79C123.197 152.603 125.156 152.544 126.58 154.443C128.064 156.341 127.886 158.24 125.987 159.961C122.663 162.928 119.28 165.776 116.134 168.921C104.442 180.67 95.8354 194.317 90.4343 209.982C90.0188 211.169 89.7221 212.356 89.366 213.72C90.0782 213.72 90.375 213.78 90.6124 213.72C92.8084 213.186 95.0045 212.652 96.4883 212.237C98.8625 206.303 100.94 200.844 103.255 195.445C103.729 194.376 104.798 192.952 105.807 192.834C107.291 192.596 109.309 192.952 110.258 193.902C111.03 194.673 111.149 196.869 110.674 198.115C109.19 201.972 107.291 205.828 105.213 210.457Z" fill="#F79E1B"/>
<path d="M268.612 82.4076C264.873 77.364 261.134 72.261 257.395 67.2174C256.445 65.9713 255.377 64.7846 254.427 63.5385C251.815 60.097 249.323 57.4268 243.981 57.4268C237.096 57.4861 230.923 50.7811 229.736 43.9573C228.668 37.9643 231.161 32.98 236.621 30.2505C243.15 26.9869 251.459 28.233 256.089 33.2173C260.896 38.3203 261.727 46.7461 258.226 53.0952C257.869 53.7479 257.573 54.9346 257.869 55.4093C260.184 58.4355 262.677 61.343 265.348 64.6066C269.265 56.5961 274.844 50.603 282.501 47.1022C287.605 44.7287 293.244 43.3046 298.764 41.9398C302.325 41.0498 304.106 42.3552 304.402 44.9067C304.699 47.6362 303.215 49.2383 299.654 49.5943C292.828 50.3657 286.596 52.7392 281.255 57.0708C279.771 58.2575 278.406 59.5629 277.159 60.9277C270.274 68.7601 270.156 71.905 276.566 80.7462C277.159 79.6188 277.693 78.6101 278.168 77.6607C286.656 61.521 302.266 53.8072 318.766 57.7235C321.259 58.3168 323.633 59.2662 326.007 60.3343C328.796 61.5804 329.627 63.5385 328.618 65.6746C327.55 68.0481 325.413 68.7008 322.683 67.3361C317.341 64.7252 311.762 63.9539 305.945 64.9032C294.431 66.6834 283.035 79.3221 282.323 91.0115C281.967 96.6485 279.533 97.9539 274.666 95.1058C264.814 89.3501 254.012 87.4513 242.794 87.2139C238.164 87.1546 236.562 86.0865 236.562 83.179C236.562 80.2715 238.342 78.9068 242.853 79.3815C250.747 80.3309 258.641 81.6956 266.535 82.8823C267.01 82.9417 267.425 83.0604 267.9 83.1197C268.197 82.8823 268.375 82.645 268.612 82.4076ZM244.218 36.3028C240.301 36.2435 237.274 38.5576 237.274 41.5838C237.274 45.6781 241.725 49.9503 246.058 50.0097C250.747 50.069 252.646 48.5262 252.706 44.61C252.706 39.8631 249.145 36.3622 244.218 36.3028Z" fill="#F79E1B"/>
<path d="M217.747 195.207C213.533 181.5 213.355 168.446 219.527 155.629C219.883 154.858 219.527 153.375 218.993 152.544C214.482 144.771 213.829 136.642 217.213 128.394C220.121 121.333 225.285 116.526 232.585 114.272C240.598 111.779 248.551 111.898 256.386 115.162C261.727 117.416 265.704 121.095 267.603 126.673C268.138 128.275 269.087 128.572 270.63 128.75C273.835 129.225 277.04 129.877 280.067 130.827C282.382 131.598 283.213 133.615 282.085 135.87C281.076 138.006 279.296 138.778 276.922 137.888C275.557 137.354 274.132 136.642 272.708 136.582C255.08 136.226 236.146 141.507 226.709 158.893C221.189 169.158 221.486 179.72 224.691 190.46C225.166 192.122 226.946 193.546 228.49 194.673C230.211 195.919 231.161 197.343 230.686 199.361C230.211 201.556 228.608 202.268 226.472 202.268C224.869 202.268 223.326 202.209 221.723 202.328C218.281 202.565 216.085 204.464 214.957 207.668C213.889 210.635 214.304 213.186 216.856 215.382C219.052 217.281 218.874 219.417 216.856 221.553C214.542 223.986 212.286 226.418 210.031 228.911C208.31 230.809 206.292 231.165 204.214 229.682C202.077 228.139 202.137 226.003 203.799 224.282C207.182 220.722 208.784 217.459 206.944 212.059C204.986 206.303 209.497 199.123 215.076 196.394C216.025 195.979 216.916 195.623 217.747 195.207ZM260.303 129.462C258.819 125.308 256.029 123.113 252.468 121.867C245.88 119.553 239.173 119.731 232.882 122.638C230.448 123.766 228.193 125.664 226.531 127.741C222.198 133.081 221.783 142.575 225.522 147.144C234.306 135.93 246.711 131.598 260.303 129.462Z" fill="#F79E1B"/>
<path d="M209.259 39.0917C209.971 36.5996 210.506 34.2261 211.277 31.9119C215.966 18.5611 226.175 11.322 240.301 11.5C249.975 11.678 259.056 13.8735 267.01 19.8072C267.663 20.2819 269.028 20.4006 269.859 20.1039C272.767 19.2138 275.557 17.9084 278.465 17.0184C281.195 16.1283 282.916 17.0777 283.629 19.3918C284.341 21.706 283.332 23.5454 280.839 24.4355C278.346 25.3255 275.853 26.2156 273.064 27.165C273.539 28.7077 273.895 29.9538 274.31 31.1999C279.118 30.0132 283.688 28.8264 288.258 27.7584C289.267 27.521 290.692 27.2243 291.404 27.699C292.65 28.5297 294.194 29.9538 294.253 31.1999C294.312 32.446 292.947 34.5228 291.76 34.9381C284.934 37.1929 277.99 39.0917 271.046 40.9905C268.078 41.8212 265.823 39.9818 266.357 36.8369C267.128 31.7339 264.814 28.1144 260.956 25.5035C252.468 19.7479 242.912 17.7304 233 20.2819C220.002 23.5454 212.761 41.9992 219.705 53.4512C223.504 59.741 229.321 62.5891 236.562 62.7671C240.004 62.8858 241.488 63.9539 241.429 66.5054C241.429 69.1162 239.589 70.9556 236.384 70.5403C232.11 69.9469 227.896 68.8788 223.86 67.5734C222.02 66.9801 221.07 66.9207 219.883 68.4042C218.103 70.5996 216.085 72.6764 214.245 74.8719C212.583 76.8893 210.684 77.2454 208.547 75.8213C206.707 74.5752 206.47 72.2017 208.132 70.0656C210.446 67.1581 212.939 64.3692 215.016 61.9958C212.88 57.0115 210.862 52.3832 208.666 47.2209C202.493 46.9242 195.667 46.6868 188.901 46.1528C187.358 46.0341 185.34 45.1441 184.568 43.898C182.906 41.3465 184.984 38.3203 188.308 38.3797C193.531 38.4983 198.754 38.9137 203.977 39.151C205.698 39.151 207.479 39.0917 209.259 39.0917Z" fill="#F79E1B"/>
<path d="M175.428 287.357C176.14 286.527 176.793 285.637 177.564 284.925C179.226 283.441 181.066 283.56 182.669 284.865C184.271 286.171 184.627 288.01 183.44 289.612C181.304 292.579 179.048 295.427 176.437 298.038C174.359 300.174 170.086 298.987 169.136 295.961C167.831 291.926 166.584 287.832 166.228 283.619C165.041 269.616 167.89 256.087 172.698 243.033C173.588 240.659 173.291 239.473 171.214 238.286C168.661 236.862 166.228 235.141 163.557 233.479C163.082 234.488 162.786 235.022 162.548 235.675C161.717 238.108 160.115 239.235 157.562 238.582C155.129 237.93 154.001 235.912 155.129 233.183C157.325 227.902 159.462 222.562 162.37 217.696C167.356 209.448 174.359 202.98 182.431 197.818C188.782 193.664 195.548 190.223 202.196 186.485C202.968 186.069 203.858 185.713 204.689 185.595C206.944 185.357 208.547 186.485 209.259 188.561C209.971 190.638 208.844 191.884 207.063 192.834C201.84 195.563 196.498 198.233 191.394 201.26C187.476 203.633 183.856 206.481 179.404 209.626C182.669 212.652 185.399 215.144 188.07 217.696C189.316 218.883 190.325 218.645 191.631 217.577C195.133 214.788 196.854 214.729 198.457 216.865C200.119 219.179 199.525 221.256 196.32 223.748C189.198 229.267 183.915 236.268 180.591 244.576C176.021 256.087 173.707 268.014 173.944 280.415C174.003 282.61 174.359 284.865 174.597 287.061C174.834 287.179 175.131 287.239 175.428 287.357ZM173.944 214.966C171.273 218.764 168.721 222.383 166.169 226.003C170.264 228.495 173.885 230.75 177.564 233.005C179.761 230.038 181.779 227.308 183.322 225.291C180.176 221.849 177.268 218.645 173.944 214.966Z" fill="#F79E1B"/>
<path d="M407.677 202.328C410.288 190.876 413.909 179.601 411.475 167.675C408.686 154.146 399.723 145.72 387.615 140.142C386.369 139.549 385.063 139.134 383.757 138.6C381.205 137.532 380.256 135.455 381.086 133.141C381.917 130.945 383.698 130.233 386.428 131.242C405.362 138.184 424.474 154.502 419.072 185.595C418.004 191.884 416.461 198.174 415.215 204.464C414.918 205.888 414.799 207.371 414.621 208.855C414.265 212.118 411.594 213.661 408.626 212.237C388.09 202.684 380.077 185.417 379.187 163.996C379.009 160.258 380.612 156.282 381.977 152.663C383.045 149.696 385.182 149.221 388.031 150.408C400.258 155.333 407.499 172.184 402.81 184.526C401.919 186.841 400.258 187.79 397.883 187.078C395.509 186.366 394.678 184.645 395.331 182.212C397.231 174.736 396.162 167.912 390.82 162.038C389.989 161.148 388.98 160.376 387.971 159.486C383.164 171.71 395.153 197.877 407.677 202.328Z" fill="#F79E1B"/>
<path d="M306.539 278.16C306.539 281.424 306.539 284.747 306.539 288.07C306.48 291.511 305.174 293.113 302.503 293.054C299.951 292.994 298.645 291.452 298.645 288.188C298.586 285.043 298.645 281.898 298.645 278.635C297.458 278.457 296.627 278.338 295.737 278.22C293.778 277.923 292.947 278.635 292.888 280.771C292.769 284.509 292.472 288.248 291.76 291.926C291.048 295.843 288.555 298.513 284.46 299.047C281.373 299.462 278.168 299.878 275.082 299.581C270.215 299.166 267.544 296.555 267.544 291.689C267.485 282.729 267.722 273.769 268.197 264.809C268.434 260.122 271.165 257.748 275.854 257.274C278.465 257.036 281.195 257.333 283.807 257.333C289.98 257.333 296.212 257.333 302.562 257.333C301.613 253.891 300.663 250.687 299.951 247.424C299.001 243.27 299.061 239.176 300.96 235.26C302.028 233.005 303.631 231.818 306.183 232.768C308.498 233.658 308.854 235.675 308.26 238.405C307.667 241.134 307.37 244.042 307.845 246.771C308.557 250.806 310.219 254.722 311.287 258.698C312.534 263.326 310.991 265.284 306.242 265.225C297.339 265.165 288.496 265.106 279.593 264.809C276.744 264.691 275.438 265.462 275.438 268.488C275.438 275.49 275.26 282.492 275.141 289.494C275.082 291.155 275.794 291.689 277.397 291.748C284.044 291.986 284.816 291.274 285.053 284.628C285.113 282.136 285.113 279.703 285.409 277.27C285.944 273.117 288.021 270.921 292.116 270.624C298.823 270.209 305.53 269.972 312.237 269.972C314.136 269.972 316.095 270.802 317.876 271.574C320.368 272.642 321.259 274.6 320.962 277.33C320.309 283.382 319.775 289.434 319.241 295.546C319.003 297.86 317.638 299.106 315.442 299.344C313.187 299.581 311.644 298.335 311.644 296.139C311.644 292.045 312 287.892 312.237 283.797C312.237 283.382 312.356 283.026 312.474 282.611C313.246 277.448 312.415 276.736 306.539 278.16Z" fill="#F79E1B"/>
<path d="M344.465 182.924C345.949 181.144 346.899 179.898 347.967 178.771C353.309 173.074 358.532 167.319 364.052 161.86C367.376 158.537 370.937 159.664 371.709 164.293C372.243 167.378 372.421 170.582 372.243 173.727C371.827 180.729 372.718 187.493 375.032 194.08C376.635 198.708 374.676 201.082 369.809 200.013C363.755 198.708 357.82 196.631 351.707 195.563C343.1 194.08 334.435 193.724 325.829 195.682C323.573 196.216 322.149 197.106 321.674 199.539C321.318 201.438 320.605 203.336 319.893 205.176C319.003 207.549 316.866 208.499 314.67 207.668C312.237 206.778 311.762 204.998 312.474 202.684C317.104 187.256 321.674 171.888 326.244 156.46C326.541 155.511 326.778 154.561 327.134 153.612C327.847 151.654 329.212 150.526 331.408 150.645C333.485 150.764 334.435 152.129 335.028 154.027C337.046 160.851 339.124 167.615 341.26 174.38C342.032 176.991 343.219 179.602 344.465 182.924ZM364.052 171.888C359.482 177.228 355.386 182.094 351.172 187.078C356.277 188.324 360.788 189.451 365.18 190.52C364.824 184.645 364.467 178.771 364.052 171.888ZM337.284 186.247C335.147 180.492 333.07 174.914 330.696 168.565C328.737 175.389 327.075 181.263 325.294 187.493C329.508 187.019 333.248 186.663 337.284 186.247Z" fill="#F79E1B"/>
<path d="M191.097 279.406C189.495 279.169 188.011 278.991 186.587 278.754C181.838 277.923 178.93 275.253 178.811 270.506C178.455 256.087 183.441 243.685 193.412 233.242C195.133 231.462 197.092 231.521 198.932 233.183C200.653 234.785 200.653 236.98 198.813 238.879C191.216 246.771 187.417 256.265 186.468 267.064C186.171 270.743 186.646 271.099 190.207 271.336C192.166 271.455 192.641 270.743 192.997 268.963C194.362 262.139 195.905 255.315 197.567 248.492C198.042 246.534 198.754 244.457 201.365 244.101C203.74 243.804 204.927 245.347 206.173 246.949C212.405 254.722 217.272 263.267 220.893 272.523C222.258 276.083 221.427 278.338 217.688 278.872C212.88 279.644 207.894 280 203.027 279.822C200 279.703 198.398 280.296 198.042 283.441C197.923 284.45 197.508 285.459 197.211 286.645C207.598 286.942 217.688 287.179 227.718 287.417C230.567 287.476 233.416 287.476 236.324 287.476C239.589 287.535 241.132 288.782 241.191 291.333C241.251 293.944 239.589 295.368 236.146 295.309C226.056 295.131 216.026 294.893 205.936 294.656C202.968 294.597 200 294.715 197.033 294.656C191.216 294.537 188.13 290.621 189.436 284.984C189.91 283.204 190.504 281.424 191.097 279.406ZM212.583 272.049C209.497 266.53 206.707 261.546 203.977 256.621C203.621 256.74 203.265 256.799 202.909 256.918C202.078 261.843 201.247 266.768 200.356 272.108C204.571 272.049 208.132 272.049 212.583 272.049Z" fill="#F79E1B"/>
<path d="M177.802 143.881C185.459 135.099 186.705 121.392 180.889 111.661C179.405 109.169 179.642 107.033 181.601 105.668C183.5 104.362 185.815 104.956 187.417 107.329C192.819 115.28 193.768 124.122 191.394 133.141C190.029 138.422 187.477 143.347 185.281 148.984C186.23 149.518 187.952 150.289 189.317 151.417C190.326 152.247 191.631 153.671 191.572 154.739C191.453 156.045 190.148 157.291 189.139 158.418C188.664 158.952 187.714 159.071 187.002 159.368C181.719 161.563 176.437 163.699 171.214 165.954C167.415 167.616 163.736 169.574 159.878 171.057C156.969 172.184 154.833 170.701 154.358 167.556C154.12 166.013 153.883 164.411 153.883 162.869C154.002 155.985 153.052 149.34 151.212 142.694C150.44 139.905 150.44 136.82 150.737 133.912C150.975 131.005 153.408 129.699 156.138 130.767C158.809 131.776 161.361 133.081 164.21 134.387C166.763 128.572 167.475 122.816 164.388 117.06C162.905 114.272 160.946 111.779 159.047 109.287C157.088 106.676 156.969 104.481 159.047 102.82C160.887 101.277 162.726 101.692 164.923 104.006C174.004 113.5 176.378 124.418 171.748 136.76C171.095 138.54 171.214 139.668 172.935 140.617C174.3 141.389 175.487 142.457 176.793 143.347C177.09 143.584 177.387 143.703 177.802 143.881ZM159.225 140.439C160.234 147.975 161.124 154.858 162.074 162.038C167.297 159.308 172.46 156.638 178.099 153.731C171.57 149.102 165.457 144.771 159.225 140.439Z" fill="#F79E1B"/>
<path d="M360.966 50.3657C367.139 50.5437 373.549 52.0865 377.347 59.0289C377.644 59.6223 379.069 59.8596 380.018 59.8003C383.461 59.741 386.903 59.1476 390.346 59.5036C398.358 60.3343 402.81 64.6659 404.472 72.4391C407.736 87.8667 398.655 104.956 384.054 111.008C380.671 112.432 378.831 111.957 377.822 109.525C376.813 107.033 377.882 105.134 381.146 103.71C392.304 98.9033 399.071 86.2646 396.875 74.3379C396.103 70.0656 394.263 68.0481 389.99 67.2768C388.268 66.9801 386.428 66.8614 384.707 66.9801C379.722 67.2174 377.882 68.7008 376.576 73.5665C375.686 76.83 375.151 80.0935 374.32 83.3571C373.608 86.2646 371.887 87.392 369.453 86.7986C367.02 86.2052 365.952 84.3658 366.723 81.5176C368.029 76.5926 369.394 71.6677 370.878 66.7427C371.65 64.2506 370.284 61.1057 367.495 59.6223C361.322 56.2401 352.716 58.3169 348.799 64.1319C344.703 70.2436 344.169 76.9487 346.246 83.7131C347.79 88.7567 350.164 93.563 352.36 98.4286C353.369 100.683 353.606 102.642 351.41 104.184C349.511 105.49 347.433 105.49 346.246 103.472C340.608 93.6224 335.385 83.5351 337.64 71.6677C338.352 67.8701 339.836 64.0132 341.736 60.6904C345.831 53.3919 351.707 50.3657 360.966 50.3657Z" fill="#F79E1B"/>
<path d="M301.91 133.378C303.809 124.537 305.589 116.052 307.429 107.626C307.607 106.676 307.904 105.727 308.26 104.778C309.151 102.463 310.931 101.633 313.246 102.404C315.442 103.116 316.273 104.778 315.739 107.092C314.433 112.373 313.068 117.594 311.94 122.875C311.347 125.486 311.109 128.156 310.812 130.767C310.338 135.514 310.397 135.514 315.976 136.167C316.629 132.369 317.223 128.512 317.875 124.655C318.647 120.324 320.012 118.84 322.742 119.434C325.532 120.027 326.363 122.045 325.591 126.08C323.989 134.327 322.327 142.516 320.843 150.764C318.706 163.106 314.433 174.736 309.982 186.366C308.794 189.392 307.904 192.537 306.895 195.622C305.886 198.767 304.402 199.954 301.91 199.301C299.179 198.649 296.983 195.741 297.399 193.249C297.695 191.528 298.17 189.807 298.586 188.027C301.613 174.024 300.782 160.436 294.49 147.322C293.422 145.127 292.71 142.694 292.413 140.32C291.938 135.811 294.194 133.497 298.764 133.378C299.892 133.378 301.079 133.378 301.91 133.378ZM307.667 167.853C308.023 167.853 308.379 167.912 308.735 167.912C310.575 160.139 312.415 152.366 314.314 144.237C309.566 143.169 305.352 142.219 301.138 141.21C300.901 141.448 300.663 141.685 300.485 141.923C305.53 149.874 306.955 158.774 307.667 167.853Z" fill="#F79E1B"/>
<path d="M218.222 92.1983C217.213 92.9103 216.619 93.3257 215.966 93.8004C213.829 95.2838 211.633 95.1651 210.209 93.2663C208.666 91.2489 209.081 89.4095 210.921 87.8074C215.669 83.6538 221.189 81.577 227.421 81.3396C229.914 81.221 231.398 82.4077 231.517 84.9592C231.576 87.392 230.389 88.8161 227.896 89.1128C227.124 89.1721 226.412 89.3501 225.344 89.5875C226.294 92.495 227.184 95.1651 227.896 97.3013C234.069 96.6486 239.826 95.5805 245.583 95.5805C256.504 95.5805 266.416 98.9034 274.666 106.202C278.702 109.821 281.729 114.153 283.688 119.256C284.46 121.333 284.163 122.994 282.085 124.003C280.067 124.952 278.228 124.537 276.803 122.757C276.684 122.579 276.566 122.401 276.506 122.223C269.859 106.914 256.86 102.582 241.844 103.413C208.784 105.252 198.694 139.252 210.743 160.317C212.346 163.047 212.049 164.886 209.912 166.191C207.657 167.556 205.52 166.785 203.799 164.055C194.658 149.221 196.38 126.554 208.191 112.373C211.337 108.575 215.491 105.49 219.349 102.345C220.596 101.336 221.249 100.624 220.596 99.022C219.705 97.0046 219.112 94.8091 218.222 92.1983Z" fill="#F79E1B"/>
<path d="M125.334 119.137C117.974 119.968 111.03 120.739 104.086 121.511C100.999 121.867 99.0405 120.561 98.8031 118.188C98.5657 115.755 100.05 114.212 103.255 113.797C107.884 113.263 112.454 112.848 117.084 112.254C118.746 112.076 120.348 111.601 122.01 111.127C126.224 109.94 129.845 108.101 131.388 103.472C132.1 101.455 133.465 99.7341 134.949 97.1826C133.406 97.776 132.456 98.0726 131.507 98.4287C122.663 101.87 113.523 103.65 104.026 103.71C101.83 103.71 100.109 103.116 99.3967 100.861C98.5657 98.132 100.346 96.1739 103.551 95.8179C108.774 95.3432 113.998 95.0465 119.102 94.0377C129.192 91.9609 138.273 87.392 146.582 81.2803C147.532 80.5683 148.6 79.6782 149.609 79.6189C150.856 79.5595 152.577 79.9155 153.23 80.8056C153.942 81.755 154.417 83.9505 153.823 84.7812C145.989 95.5805 147.532 107.804 148.244 119.909C148.304 120.502 148.304 121.095 148.363 121.689C148.482 124.003 147.532 125.546 145.099 125.842C142.724 126.139 140.825 124.715 140.588 122.223C140.232 117.713 140.113 113.144 139.935 108.635C139.875 107.685 139.935 106.677 139.401 105.43C138.866 106.261 138.214 107.033 137.917 107.923C135.839 113.856 133.821 119.849 131.863 125.842C130.913 128.691 129.251 129.937 126.936 129.225C124.622 128.513 123.553 126.91 124.088 124.478C124.444 122.697 124.918 120.917 125.334 119.137Z" fill="#F79E1B"/>
<path d="M37.4914 187.375C36.0076 189.096 34.5238 190.757 32.5651 193.012C34.6425 193.961 36.3044 194.911 38.085 195.504C40.9339 196.453 42.2397 198.055 41.6461 200.37C41.0526 202.802 39.0346 203.989 36.067 202.98C33.218 202.031 30.4878 200.607 27.2233 199.183C25.5021 200.963 23.4247 203.158 20.9319 205.769C24.5525 207.253 27.7575 208.677 31.0219 209.923C36.0076 211.881 36.6011 213.008 34.5238 217.874C32.7432 222.146 30.8439 226.359 29.0039 230.631C28.5885 231.64 28.2917 232.768 27.8762 233.836C28.4104 233.954 28.6478 234.132 28.7665 234.073C31.2594 233.064 33.5148 233.242 34.7612 235.912C35.7702 238.049 34.1083 241.371 31.4968 242.439C28.5291 243.745 25.9769 242.736 23.4841 240.956C22.5938 240.303 21.2287 239.947 20.1603 240.066C16.4804 240.481 13.5128 239.295 11.7915 236.328C9.95158 233.242 10.3671 230.335 12.7412 229.089C15.1153 227.843 16.7772 228.733 18.9733 232.886C22.297 227.546 23.8996 222.028 26.5111 216.628C23.1873 215.204 20.2197 213.958 17.252 212.593C11.1386 209.745 10.3077 206.185 14.5811 201.022C16.7772 198.352 19.1513 195.86 21.5254 193.19C19.5668 190.342 13.2754 188.858 17.6675 184.171C21.3474 180.254 23.7215 185.595 27.0453 186.781C28.4104 185.298 29.8349 183.755 31.5561 181.856C30.0723 180.848 28.8852 179.958 27.5795 179.186C25.3834 177.881 24.8492 176.041 26.0956 173.905C27.2827 171.829 29.3007 171.176 31.4374 172.363C33.3367 173.371 35.058 174.736 37.076 176.16C38.3224 175.092 39.5688 173.905 40.9339 172.778C43.0706 171.057 45.326 171.176 46.9879 173.075C48.5905 174.914 48.3531 176.575 46.0976 178.652C45.2073 179.483 44.2577 180.373 42.9519 181.619C44.9699 182.568 46.5131 183.34 48.0563 184.052C50.4304 185.12 51.3801 187.078 50.4898 189.333C49.5401 191.706 47.5815 192.359 45.3854 191.41C42.7739 190.342 40.281 188.858 37.4914 187.375Z" fill="#F79E1B"/>
<path d="M301.079 19.9258C305.233 24.3761 309.388 28.767 313.78 33.514C319.834 28.4704 325.473 23.7234 331.171 19.0358C335.563 15.3569 339.955 11.7373 344.406 8.1178C346.009 6.81238 347.908 5.98167 349.807 7.58376C351.766 9.2452 351.588 11.322 350.638 13.5175C344.703 26.6309 338.827 39.8037 332.951 52.9172C331.645 55.884 329.687 56.8928 327.491 55.9434C325.176 54.9346 324.523 52.8578 325.769 49.9503C328.856 42.7706 332.002 35.6501 335.088 28.5297C335.444 27.6396 335.8 26.7496 336.572 25.0288C329.865 30.4878 323.811 35.2941 317.935 40.2784C314.136 43.4826 313.246 43.6606 309.922 40.1004C303.334 33.158 296.746 26.2749 290.336 19.1545C289.267 17.9677 288.674 15.6536 289.089 14.1702C289.327 13.1021 291.582 11.9154 292.947 11.9154C302.206 11.7373 311.465 11.856 320.784 11.9154C323.158 11.9154 324.345 13.5768 324.345 15.8316C324.286 18.2644 322.921 19.7478 320.428 19.6885C315.383 19.5698 310.338 19.3325 305.352 19.1545C304.106 19.0951 302.859 19.1545 301.613 19.1545C301.316 19.3918 301.197 19.6292 301.079 19.9258Z" fill="#F79E1B"/>
<path d="M406.965 34.048C400.554 33.158 395.094 34.3447 390.346 39.8037C392.601 40.8718 394.797 41.9399 397.053 42.8893C397.824 43.2453 398.833 43.1859 399.605 43.542C401.563 44.4914 402.216 46.1528 401.801 48.2296C401.326 50.3657 399.724 51.4338 397.824 50.8404C394.204 49.713 390.702 48.1702 387.2 46.6868C386.132 46.2121 385.301 45.3221 384.173 44.432C382.986 45.5594 381.858 46.6275 380.671 47.6362C378.831 49.2976 376.873 49.357 375.151 47.5769C373.371 45.8561 373.193 43.6013 375.211 42.1772C378.831 39.5664 379.128 36.9556 377.11 33.0987C376.042 31.0812 376.042 28.2924 375.982 25.9189C375.923 23.2487 377.822 21.528 380.256 21.6466C383.045 21.7653 383.758 23.4861 383.876 26.0376C383.995 28.233 384.588 30.4285 385.123 33.158C387.853 31.3186 390.049 29.9538 392.186 28.411C392.542 28.1737 392.72 27.4023 392.72 26.8683C392.601 23.7234 392.423 20.6379 392.186 16.959C390.642 16.7217 388.624 16.3063 386.666 16.247C381.324 16.1876 375.982 16.3063 370.7 16.3063C367.317 16.3063 365.595 15.0009 365.655 12.3307C365.714 9.83858 367.317 8.41449 370.522 8.47383C377.941 8.5925 385.301 8.65184 392.66 9.00786C394.857 9.12654 397.112 9.95725 399.189 10.8473C401.504 11.7967 402.394 13.6361 401.445 16.1283C400.851 17.7897 400.258 19.5105 399.961 21.2313C399.249 25.2662 400.495 26.6309 404.531 26.2749C406.074 26.1562 407.618 25.7409 409.161 25.4442C413.197 24.6135 414.918 25.9782 415.037 30.0725C415.096 32.5646 414.918 34.9974 414.977 37.4896C415.096 43.72 415.333 49.891 415.511 56.1214C415.511 56.7148 415.63 57.3081 415.511 57.9015C415.096 60.0376 413.672 61.1057 411.594 61.2837C409.398 61.4617 408.152 60.2156 408.033 58.1982C407.618 53.2139 407.321 48.1702 407.143 43.1266C406.846 40.1004 406.965 37.0742 406.965 34.048Z" fill="#F79E1B"/>
<path d="M9.77347 224.638C9.77347 230.869 9.77347 236.624 9.77347 241.609C14.8778 243.567 19.5667 245.169 24.1369 247.127C26.8672 248.314 27.5201 250.153 26.3923 252.289C25.2053 254.485 23.1279 255.078 20.5757 253.832C17.252 252.171 14.0469 250.153 10.1296 250.509C9.17994 255.316 9.23929 255.494 13.4534 256.858C21.3473 259.41 25.6801 265.581 25.0866 273.295C24.6117 279.347 21.5254 282.907 15.5901 284.153C13.9875 284.509 12.3257 284.687 10.5451 284.925C10.5451 286.349 10.5451 287.713 10.5451 289.553C13.394 289.553 16.0649 289.553 18.7951 289.553C22.0596 289.612 23.6621 290.918 23.6027 293.41C23.5434 295.961 22.0002 297.148 18.6764 297.148C14.9372 297.148 11.1979 297.207 7.39934 297.148C4.19427 297.089 2.82915 295.902 2.71045 292.757C2.59174 288.722 2.53239 284.687 2.59174 280.593C2.65109 277.686 4.01622 276.617 6.98387 276.736C9.06123 276.855 11.1386 277.033 13.1566 276.855C16.243 276.558 17.4894 274.956 17.43 271.93C17.3707 267.658 14.3437 264.453 9.83282 263.86C8.94252 263.741 8.05223 263.801 7.16193 263.741C2.94786 263.563 2.05756 262.733 2.05756 258.638C2.05756 245.703 1.99821 232.767 2.11692 219.891C2.17627 214.254 4.78781 212.949 9.77347 215.619C12.0882 216.865 14.403 218.289 16.7178 219.535C18.4984 220.485 19.448 221.849 18.6171 223.867C17.6674 226.062 15.9462 227.071 13.6314 226.418C12.5037 226.003 11.4354 225.35 9.77347 224.638Z" fill="#F79E1B"/>
<path d="M46.3348 68.6414C43.3078 73.8631 40.1027 78.5507 37.7286 83.5943C33.1584 93.2662 29.3004 103.176 28.2914 113.975C28.1727 115.399 26.9263 117.357 25.7393 117.772C24.4335 118.247 22.2374 117.713 20.991 116.823C16.7176 113.678 12.5035 110.355 8.52685 106.795C0.751593 99.912 1.34512 96.6485 10.8416 92.6729C11.4945 92.4355 12.088 92.1389 12.919 91.7235C12.5035 89.8841 12.1474 88.0446 11.7319 86.2645C11.1384 83.9503 12.0287 82.3483 14.2248 81.6362C16.5989 80.9242 18.3201 81.8736 19.0917 84.247C19.6259 86.0271 20.0414 87.8073 20.5162 89.5874C25.858 89.9434 26.3328 89.2907 28.5289 85.0184C31.8526 78.432 35.4732 71.9643 39.3311 65.6746C40.6962 63.4198 42.9517 61.521 45.0884 59.8002C47.2251 58.0794 49.5992 58.4355 50.9643 60.7496C55.7126 68.4634 61.4105 75.3465 68.2954 81.2208C70.0167 82.7043 70.0167 84.5437 68.4735 86.1458C66.871 87.8666 64.7936 88.3413 62.8943 86.7392C59.986 84.247 57.1371 81.5769 54.5849 78.7287C51.8546 75.7619 49.3618 72.3796 46.3348 68.6414ZM21.2878 107.27C22.1781 103.71 22.9497 100.802 23.84 97.3012C19.9227 98.3099 16.5989 99.1999 12.4442 100.268C15.7679 102.879 18.3201 104.837 21.2878 107.27Z" fill="#F79E1B"/>
<path d="M136.492 291.867C142.546 292.045 148.126 292.223 153.705 292.342C155.367 292.401 157.088 292.282 158.75 292.401C161.124 292.579 162.37 294.003 162.37 296.258C162.37 298.513 161.183 300.115 158.75 300.115C150.144 299.996 141.597 299.759 132.99 299.462C130.498 299.403 129.073 297.741 129.251 295.368C129.548 291.036 127.53 288.722 123.85 286.467C116.015 281.602 113.226 273.235 115.541 264.275C117.618 256.324 124.088 251.103 133.406 250.331C136.196 250.094 137.501 249.144 138.036 246.593C138.273 245.525 138.748 244.516 139.282 243.626C140.41 241.846 142.012 241.015 144.09 241.965C146.108 242.914 146.879 244.516 146.286 246.83C143.199 259.291 140.172 271.693 137.264 284.213C136.789 286.527 136.789 289.019 136.492 291.867ZM130.142 280.89C131.685 273.354 133.169 265.937 134.712 258.401C128.42 258.401 124.088 261.724 123.019 267.064C121.773 273.413 124.266 278.398 130.142 280.89Z" fill="#F79E1B"/>
<path d="M358.235 111.067C359.244 107.507 360.313 104.125 361.203 100.683C361.381 100.09 361.144 99.0219 360.669 98.6659C352.241 92.0202 351.588 83.001 352.775 73.4477C352.953 71.905 353.369 70.3622 353.962 68.8788C354.852 66.624 357.167 65.6746 359.304 66.5646C361.559 67.4547 362.034 69.1161 361.322 71.3709C359.779 75.9992 359.897 80.6868 361.025 85.3744C362.272 90.5368 364.171 92.4355 368.504 92.9102C373.608 93.4443 378.356 91.1895 380.018 86.9172C381.027 84.3657 381.383 81.5769 381.917 78.9067C382.452 76.0585 383.995 74.5751 386.369 74.8718C388.684 75.1685 390.049 77.0673 389.574 79.9748C389.158 82.823 388.624 85.6118 387.793 88.3413C385.419 95.8771 379.84 99.6746 372.243 100.505C369.869 100.802 368.741 101.692 368.266 103.888C368.029 105.252 367.435 106.498 367.079 107.863C366.129 111.067 365.892 113.619 369.572 115.814C373.667 118.247 376.219 127.029 374.498 131.361C374.023 132.547 372.005 133.853 370.759 133.853C369.513 133.793 368.147 132.31 367.138 131.123C366.664 130.589 366.96 129.402 366.901 128.512C366.664 123.469 365.417 121.451 361.441 120.027C355.743 117.95 350.935 118.662 348.027 122.045C347.196 122.994 346.543 124.121 345.89 125.19C344.584 127.326 342.863 127.978 340.608 126.792C338.471 125.664 337.877 123.469 339.124 121.214C342.626 114.865 347.789 111.067 355.268 111.008C356.396 111.067 357.345 111.067 358.235 111.067Z" fill="#F79E1B"/>
<path d="M162.489 17.9677C166.644 21.9433 170.383 25.5035 174.597 29.5384C176.912 26.4529 179.167 23.5454 181.423 20.5785C183.5 17.7897 185.399 14.8822 187.655 12.3307C188.486 11.322 190.148 10.6099 191.453 10.5506C196.973 10.4319 202.493 10.5506 208.013 10.6099C211.574 10.6693 213.177 11.856 213.117 14.4668C213.058 17.0776 211.515 18.205 207.894 18.205C203.858 18.205 199.822 18.205 195.727 18.205C191.928 18.205 191.928 18.205 189.732 22.24C192.64 22.24 195.193 22.24 197.745 22.24C199.941 22.24 202.078 22.1806 204.274 22.2993C206.588 22.418 207.894 23.8421 207.835 26.1562C207.775 28.5297 206.47 29.8351 204.096 29.8351C198.279 29.8944 192.462 29.7164 186.646 29.9538C185.34 30.0131 183.915 31.0218 182.728 31.8525C181.957 32.3866 181.423 33.336 180.77 34.048C176.2 38.8543 172.698 38.617 168.009 34.048C162.904 29.123 157.444 24.5541 152.162 19.8665C150.915 18.7391 149.491 17.7304 148.482 16.4249C146.464 13.7548 147.947 10.2539 151.271 10.1352C160.174 9.89788 169.018 9.89788 177.921 10.0165C179.108 10.0165 180.888 11.2033 181.304 12.2714C181.719 13.4581 181.304 15.4162 180.532 16.5436C179.345 18.3237 177.624 19.7478 176.021 21.1719C174.063 22.8927 170.798 22.7147 170.264 20.5192C169.315 16.959 166.94 17.7304 164.566 17.671C164.032 17.7304 163.557 17.849 162.489 17.9677Z" fill="#F79E1B"/>
<path d="M274.192 157.884C273.776 160.732 274.666 164.708 270.096 164.649C264.814 164.53 266.654 159.902 265.882 156.697C259.828 156.223 254.19 157.172 248.314 160.139C249.797 161.266 250.925 162.038 251.994 162.987C253.774 164.53 254.486 166.31 253.062 168.446C251.756 170.345 249.56 170.642 247.364 169.218C245.821 168.209 244.278 167.141 242.734 166.132C239.529 170.642 239.707 179.068 242.972 183.28C245.109 186.01 245.049 188.027 242.913 189.629C240.776 191.172 238.698 190.638 236.621 187.968C229.499 178.889 232.407 161.682 242.319 154.917C251.163 148.924 261.075 148.153 271.343 149.28C273.479 149.518 275.616 149.992 277.693 150.645C289.623 154.383 295.381 165.835 291.345 177.703C289.92 181.916 287.309 185.12 283.213 187.019C280.899 188.087 279.059 187.375 277.99 185.298C276.862 183.221 277.693 181.5 279.593 180.254C284.341 177.109 285.706 173.074 284.282 166.963C283.095 161.978 279.415 158.656 274.192 157.884Z" fill="#F79E1B"/>
<path d="M323.514 100.921C315.917 99.2593 308.616 97.7166 301.316 96.1145C299.476 95.6991 299.179 96.8265 298.882 98.2506C297.992 103.294 297.042 108.338 296.093 113.382C295.915 114.45 295.618 115.518 295.202 116.526C294.312 118.603 292.591 119.197 290.573 118.662C288.436 118.128 287.368 116.645 287.783 114.45C289.208 107.092 290.751 99.7934 292.294 92.4356C292.413 91.7829 292.71 91.1302 292.947 90.4774C298.051 76.1772 314.492 72.0237 325.829 82.1109C329.508 85.3745 331.823 89.5281 331.526 94.3344C331.17 99.9714 329.983 105.608 328.856 111.186C328.381 113.441 326.422 114.212 324.226 113.56C322.03 112.907 320.962 111.305 321.496 109.05C322.03 106.498 322.742 103.947 323.514 100.921ZM323.751 93.0289C321.733 87.748 317.994 85.7898 313.483 84.8998C309.506 84.0691 305.945 84.7811 302.859 88.282C309.922 89.8841 316.51 91.3675 323.751 93.0289Z" fill="#F79E1B"/>
<path d="M275.438 245.288C278.703 245.288 281.611 245.288 284.519 245.288C285.231 240.719 285.825 236.328 286.537 231.937C288.496 220.9 295.262 213.186 304.224 207.075C306.183 205.71 308.023 206.125 309.507 207.846C310.931 209.507 310.634 211.347 309.21 212.949C308.735 213.483 308.201 213.898 307.607 214.254C297.517 220.425 293.897 230.097 293.066 241.253C292.888 243.567 293.007 245.94 293.244 248.314C293.481 251.162 292.235 253.001 289.386 253.12C283.154 253.357 276.981 253.595 270.749 253.595C266.12 253.595 264.636 250.747 266.773 246.712C267.247 245.822 267.425 244.694 267.544 243.626C268.197 237.574 269.74 231.818 272.708 226.478C274.192 223.808 276.032 223.036 278.228 224.104C280.542 225.291 281.136 227.368 279.652 230.097C277.219 234.785 275.735 239.769 275.438 245.288Z" fill="#F79E1B"/>
<path d="M167.356 182.094C170.442 186.603 170.62 186.781 174.953 184.645C181.244 181.56 187.477 178.355 193.768 175.329C195.905 174.321 198.16 173.609 200.475 172.956C202.612 172.362 204.155 173.371 204.867 175.389C205.579 177.406 205.045 179.186 203.086 180.136C193.234 184.705 183.441 189.273 173.529 193.724C169.314 195.623 168.78 195.385 165.575 192.003C163.854 190.223 162.014 188.561 160.471 186.663C157.563 183.102 157.978 179.364 161.599 176.575C163.379 175.211 165.457 174.261 167.534 173.312C175.547 169.633 183.559 166.073 191.572 162.453C194.362 161.207 196.439 161.622 197.685 163.877C198.932 166.132 198.16 168.031 195.133 169.455C187.18 173.134 179.108 176.694 171.095 180.314C169.849 180.907 168.602 181.5 167.356 182.094Z" fill="#F79E1B"/>
<path d="M405.778 115.636C407.261 115.28 409.22 114.924 411.119 114.39C413.553 113.738 415.274 114.568 415.927 116.942C416.58 119.315 415.69 121.095 413.315 121.807C411.179 122.46 408.923 122.935 406.787 123.469C409.398 126.673 412.128 129.818 414.562 133.081C416.639 135.93 416.402 138.066 414.206 139.43C412.01 140.795 409.814 140.202 408.092 137.294C403.344 129.58 396.519 125.605 387.497 125.368C386.725 125.368 385.657 125.546 385.182 125.13C383.876 124.062 382.274 122.935 381.918 121.511C381.68 120.561 382.986 118.603 384.054 117.891C387.497 115.814 391.295 114.331 394.857 112.313C401.267 108.694 406.787 104.244 408.389 96.4111C408.805 94.275 410.704 93.5036 412.781 93.8597C415.096 94.275 416.046 95.9958 415.808 98.2506C415.333 102.701 413.315 106.498 410.407 109.881C408.864 111.898 407.261 113.797 405.778 115.636Z" fill="#F79E1B"/>
<path d="M356.099 211.703C354.793 214.492 353.665 216.628 356.099 219.12C356.811 219.891 356.455 222.621 355.624 223.808C354.496 225.469 352.419 225.35 350.579 224.223C349.095 223.274 347.611 222.205 345.95 221.731C343.397 220.959 341.023 220.188 341.379 216.984C341.735 213.958 344.11 213.424 346.899 213.542C347.374 212.237 347.849 210.872 348.62 208.855C344.406 208.38 340.667 207.787 336.869 207.549C333.07 207.312 331.527 206.244 331.586 203.514C331.705 200.844 333.485 199.123 337.106 199.717C343.694 200.725 350.401 201.794 356.692 203.811C364.705 206.363 372.302 210.279 378.356 216.272C381.621 219.535 384.114 223.689 386.666 227.605C387.853 229.504 387.378 231.462 385.182 232.589C383.105 233.657 380.612 232.945 379.662 230.75C375.151 220.188 365.595 216.212 356.099 211.703Z" fill="#F79E1B"/>
<path d="M139.579 220.841C135.78 218.289 132.1 215.797 128.421 213.364C125.868 211.703 125.275 209.863 126.521 207.727C127.827 205.532 130.023 205.116 132.635 206.778C135.009 208.321 137.264 210.101 139.638 211.703C140.766 212.474 142.012 213.008 143.318 213.661C145.396 210.753 147.354 208.083 149.491 205.116C147.236 202.565 144.921 199.895 142.547 197.343C140.588 195.207 140.232 193.13 141.894 191.35C143.437 189.63 145.811 189.63 147.948 191.647C149.669 193.249 151.153 195.089 152.637 196.928C154.299 198.945 155.901 199.835 158.275 197.877C160.234 196.275 162.371 196.335 163.973 198.53C165.398 200.488 165.338 202.624 163.202 203.93C154.002 209.685 149.135 218.645 144.98 228.08C144.624 228.911 144.327 229.741 143.912 230.513C142.843 232.589 141.182 233.658 138.807 232.767C136.611 231.937 135.899 229.86 136.849 227.368C137.68 225.232 138.689 223.036 139.579 220.841Z" fill="#F79E1B"/>
<path d="M26.6889 135.396C27.5198 140.202 28.5288 145.008 29.1817 149.874C29.3597 151.179 29.1223 153.078 28.3507 153.79C27.4011 154.621 25.5611 154.561 24.0773 154.799C23.6618 154.858 23.1277 154.502 22.7122 154.265C16.8956 151.12 11.079 148.094 5.38108 144.83C1.22637 142.397 0.9296 139.371 4.7282 136.464C9.71386 132.666 14.9369 129.046 20.2194 125.605C23.7212 123.291 27.1637 125.427 27.2824 129.64C27.3417 131.539 27.2824 133.378 27.2824 135.277C27.045 135.336 26.8669 135.396 26.6889 135.396ZM19.2104 135.396C16.8362 137.057 15.0556 138.303 12.9189 139.786C15.4118 140.914 17.3704 141.804 19.6852 142.813C19.5071 140.38 19.3884 138.244 19.2104 135.396Z" fill="#F79E1B"/>
<path d="M408.745 230.335C410.169 232.174 411.95 234.904 414.087 237.277C415.748 239.117 416.342 240.719 414.68 242.736C413.078 244.635 410.466 244.872 408.685 242.914C406.549 240.6 404.412 238.167 403.047 235.378C397.943 224.935 390.583 216.45 381.62 209.27C379.068 207.253 378.593 205.116 380.137 203.218C381.739 201.2 384.113 201.022 386.547 203.396C392.007 208.677 397.29 214.136 402.513 219.654C404.828 222.146 406.846 222.205 408.982 219.535C409.754 218.586 410.763 217.399 411.772 217.221C412.959 217.043 414.858 217.459 415.392 218.289C416.164 219.417 416.639 221.671 415.986 222.561C414.146 225.113 411.653 227.249 408.745 230.335Z" fill="#F79E1B"/>
<path d="M102.899 241.431C101.711 245.347 100.702 248.848 99.6341 252.289C98.7438 255.137 96.9632 256.206 94.5891 255.493C92.3337 254.841 91.4434 253.001 92.2743 250.272C94.1736 243.745 96.0729 237.218 98.3283 230.809C98.8625 229.326 100.584 227.842 102.127 227.308C104.086 226.596 105.154 228.436 106.044 230.097C108.3 234.37 110.614 238.523 112.87 242.795C115.956 241.371 118.449 240.007 121.12 239.057C123.138 238.345 125.275 237.87 127.411 237.633C129.489 237.396 131.032 238.76 131.091 240.659C131.091 242.024 130.082 244.457 129.133 244.694C123.613 245.94 118.865 248.551 114.235 251.577C113.345 252.171 110.555 251.103 109.487 250.034C107.113 247.542 105.273 244.575 102.899 241.431Z" fill="#F79E1B"/>
<path d="M348.502 47.1616C345.831 47.4583 344.05 45.5595 344.406 42.8893C344.644 41.2279 345 39.5665 345.712 38.083C347.968 33.5141 350.342 28.9451 352.835 24.4949C353.606 23.1301 354.734 21.9434 355.921 20.9347C358.236 18.9765 360.491 19.2732 362.212 21.706C363.577 23.7235 364.646 25.9783 365.833 28.1144C367.317 30.7846 368.919 33.3361 370.225 36.0656C370.997 37.6677 371.887 39.5665 371.768 41.2872C371.709 42.474 370.106 44.3134 368.979 44.4914C362.212 45.6188 355.327 46.3309 348.502 47.1616ZM358.532 30.4286C356.989 33.3361 355.802 35.5909 354.259 38.4391C357.167 38.0237 359.185 37.727 361.619 37.371C360.55 35.0568 359.719 33.1581 358.532 30.4286Z" fill="#F79E1B"/>
<path d="M346.721 283.797C343.101 283.797 340.074 283.678 337.047 283.856C336.275 283.916 335.207 284.806 334.91 285.518C333.96 288.129 333.367 290.799 332.595 293.469C331.764 296.377 330.102 297.504 327.728 296.911C325.354 296.258 324.345 294.418 324.998 291.57C326.007 287.179 326.957 282.788 327.966 278.398C328.559 276.083 330.162 274.778 332.536 275.253C338.056 276.38 343.397 276.677 348.799 274.422C350.995 273.532 353.25 275.134 353.844 277.745C354.912 282.848 355.862 287.951 356.811 293.054C357.286 295.546 356.158 297.148 353.784 297.623C351.291 298.157 349.808 296.792 349.273 294.478C348.324 290.918 347.493 287.298 346.721 283.797Z" fill="#F79E1B"/>
<path d="M352.181 152.069C355.327 148.984 357.939 146.254 360.669 143.762C362.212 142.397 363.933 141.151 365.714 140.142C367.791 138.956 369.572 139.668 370.759 141.626C371.887 143.465 371.59 145.127 369.928 146.67C365.358 150.882 360.847 155.095 356.336 159.368C355.446 160.198 354.674 161.088 353.784 161.8C351.232 163.818 348.561 163.403 347.255 160.436C345.949 157.469 345.118 154.324 343.991 151.238C342.388 146.907 340.904 142.516 339.124 138.303C338.233 136.167 338.233 134.446 340.192 133.141C342.21 131.835 344.465 131.954 345.653 134.09C347.374 137.176 348.62 140.498 349.867 143.821C350.816 146.313 351.35 148.984 352.181 152.069Z" fill="#F79E1B"/>
<path d="M406.371 295.724C406.133 296.851 405.955 298.216 405.599 299.522C404.946 301.717 403.463 302.904 401.148 302.37C398.892 301.895 397.646 300.412 398.121 298.038C398.952 294.003 399.901 289.968 400.851 285.933C402.097 280.593 402.335 275.609 397.765 271.455C396.162 270.031 396.578 268.132 398.061 266.708C399.783 265.047 401.801 264.809 403.641 266.412C407.261 269.438 409.101 273.354 409.398 278.042C409.517 280 409.339 281.958 409.22 283.975C409.042 286.883 410.763 288.96 413.612 288.96C416.224 289.019 417.826 290.206 417.945 292.757C418.063 295.487 416.164 296.733 413.79 296.733C411.416 296.792 409.101 296.139 406.371 295.724Z" fill="#F79E1B"/>
<path d="M104.798 291.748C103.789 289.672 102.839 288.069 102.127 286.408C101.177 284.213 101.949 282.432 103.907 281.424C105.985 280.356 107.647 281.127 109.012 282.966C111.683 286.349 114.532 289.494 117.084 292.994C117.915 294.181 118.686 296.199 118.212 297.385C117.737 298.572 115.778 299.818 114.472 299.818C107.172 299.878 99.8714 299.64 92.571 299.403C89.8407 299.343 88.3569 297.801 88.4756 295.427C88.6537 292.935 90.1375 291.748 92.571 291.808C94.5296 291.808 96.4883 291.867 98.5063 291.867C100.524 291.748 102.483 291.748 104.798 291.748Z" fill="#F79E1B"/>
<path d="M123.553 14.4076C125.096 11.9748 126.284 9.9573 127.589 7.99918C128.954 5.92238 130.794 5.38835 132.931 6.69376C134.949 7.93984 135.246 9.83862 134.059 11.7967C132.1 15.1196 130.141 18.4425 127.886 21.528C125.512 24.7915 121.832 25.1476 119.399 21.9434C116.668 18.3831 114.591 14.2889 112.632 10.254C112.276 9.4826 113.582 7.40581 114.65 6.63443C116.372 5.38835 118.33 5.92238 119.577 7.70249C120.942 9.71995 122.069 11.9154 123.553 14.4076Z" fill="#F79E1B"/>
<path d="M5.678 120.799C4.01611 119.315 2.53228 118.188 1.22651 116.823C-0.494726 114.984 -0.37602 113.025 1.40457 111.364C3.12581 109.762 5.02511 109.881 6.687 111.542C9.17983 114.094 11.6133 116.526 15.2339 117.594C17.6673 118.306 18.1422 121.57 16.4803 123.528C15.7087 124.418 14.6403 125.012 13.6907 125.664C11.4353 127.207 9.06113 128.572 6.92441 130.293C5.14382 131.657 3.54129 131.835 1.8794 130.352C0.336218 128.928 -0.0792544 127.029 1.22651 125.308C2.29487 123.825 3.7787 122.638 5.678 120.799Z" fill="#F79E1B"/>
<path d="M329.152 213.246C331.705 213.246 333.426 214.136 333.723 216.509C334.019 218.705 332.951 220.129 330.696 220.9C324.76 223.036 318.944 225.291 313.127 227.665C310.219 228.851 307.548 228.199 307.014 225.41C306.776 224.282 307.192 222.265 307.963 221.731C314.552 217.518 321.615 214.254 329.152 213.246Z" fill="#F79E1B"/>
<path d="M57.0777 290.384C60.4015 290.384 63.7846 290.324 67.1084 290.384C70.0167 290.443 71.5599 291.926 71.4412 294.419C71.2631 297.089 69.6606 298.275 67.1084 298.216C60.6982 298.038 54.2881 297.86 47.9373 297.623C47.2844 297.623 46.5722 297.445 45.9193 297.207C43.7826 296.317 43.011 294.597 43.4265 292.401C43.7826 290.265 45.3258 289.612 47.3438 289.731C50.6082 289.909 53.8133 290.087 57.0777 290.265C57.0777 290.324 57.0777 290.324 57.0777 290.384Z" fill="#F79E1B"/>
<path d="M212.702 239.117C213.058 237.514 213.474 234.726 214.364 231.996C215.076 229.801 216.797 228.495 219.231 229.385C221.664 230.216 222.258 232.055 221.724 234.607C221.189 237.277 220.774 240.066 221.071 242.736C221.249 244.457 222.614 246.178 223.86 247.483C225.403 249.145 226.175 250.747 224.929 252.705C223.623 254.782 221.724 255.197 219.528 253.951C214.364 250.984 213.058 245.94 212.702 239.117Z" fill="#F79E1B"/>
<path d="M98.2097 269.141C99.5155 265.165 100.643 261.131 102.127 257.214C102.958 254.959 104.917 254.247 107.231 255.256C109.427 256.206 109.843 258.223 109.19 260.715C108.24 264.335 107.35 268.073 106.994 271.811C106.757 274.363 105.985 275.965 103.433 276.439C101.177 276.796 99.5155 275.312 99.1 272.642C98.922 271.574 98.922 270.506 98.8032 269.438C98.6252 269.319 98.3878 269.2 98.2097 269.141Z" fill="#F79E1B"/>
<path d="M155.664 253.773C153.111 253.832 151.331 252.171 151.449 249.856C151.568 247.602 152.696 246.178 155.07 246C157.325 245.881 159.047 247.602 158.987 249.856C158.928 252.23 157.682 253.535 155.664 253.773Z" fill="#F79E1B"/>
<path d="M121.713 227.783C121.535 229.741 120.526 231.284 118.093 231.403C115.837 231.521 114.176 229.86 114.116 227.605C114.116 225.35 115.778 223.63 118.034 223.689C120.111 223.689 121.654 225.35 121.713 227.783Z" fill="#F79E1B"/>
<path d="M339.243 111.898C337.047 111.839 335.444 110.059 335.622 107.685C335.8 105.371 337.165 104.066 339.48 104.066C341.676 104.066 343.279 105.964 343.101 108.219C343.041 110.474 341.379 111.957 339.243 111.898Z" fill="#F79E1B"/>
<path d="M337.699 294.953C337.699 292.638 339.361 290.977 341.617 291.096C343.991 291.214 345.178 292.698 345.178 294.953C345.178 297.207 343.931 298.691 341.557 298.809C339.361 298.988 337.699 297.267 337.699 294.953Z" fill="#F79E1B"/>
<path d="M99.4559 92.6729C96.9037 92.5542 95.3605 90.7741 95.5979 88.46C95.8354 86.1458 97.1411 84.8404 99.5153 84.8998C101.711 84.9591 103.314 86.7985 103.076 89.1127C102.839 91.3675 101.533 92.6729 99.4559 92.6729Z" fill="#F79E1B"/>
<path d="M357.998 135.573C355.861 135.514 354.555 134.209 354.318 131.954C354.081 129.699 355.802 127.86 357.998 127.8C360.194 127.741 361.915 129.462 361.915 131.717C361.856 133.853 360.313 135.455 357.998 135.573Z" fill="#F79E1B"/>
<path d="M124.562 146.135C122.129 146.135 120.407 144.415 120.585 142.101C120.763 139.786 122.01 138.481 124.384 138.362C126.58 138.303 128.301 140.142 128.123 142.397C128.005 144.771 126.758 146.017 124.562 146.135Z" fill="#F79E1B"/>
<path d="M224.454 215.204C222.258 215.144 220.596 213.364 220.774 211.05C220.952 208.736 222.198 207.371 224.572 207.431C227.006 207.49 228.134 208.973 228.252 211.228C228.43 213.483 226.65 215.263 224.454 215.204Z" fill="#F79E1B"/>
<path d="M205.164 101.395C204.927 103.472 203.858 104.956 201.484 105.074C199.229 105.193 197.507 103.472 197.626 101.158C197.686 98.8439 198.873 97.4199 201.247 97.3012C203.502 97.1825 205.164 98.9033 205.164 101.395Z" fill="#F79E1B"/>
<path d="M359.066 230.691C359.126 228.198 360.966 226.418 363.102 226.656C365.417 226.893 366.604 228.377 366.604 230.631C366.604 232.945 364.883 234.607 362.628 234.429C360.194 234.251 359.244 232.708 359.066 230.691Z" fill="#F79E1B"/>
<path d="M408.627 80.4495C408.805 78.4914 409.932 77.1266 412.306 77.008C414.562 76.9486 416.224 78.6694 416.105 80.9835C415.986 83.2383 414.74 84.6624 412.425 84.7811C410.17 84.8404 408.567 83.1197 408.627 80.4495Z" fill="#F79E1B"/>
<path d="M409.873 21.706C407.617 21.528 406.371 20.2819 406.252 17.9084C406.133 15.5943 407.795 13.8735 410.051 13.8735C412.247 13.8735 413.968 15.713 413.79 17.9678C413.553 20.2819 412.306 21.5873 409.873 21.706Z" fill="#F79E1B"/>
<path d="M154.535 283.441C154.535 285.815 152.933 287.476 150.677 287.298C148.303 287.12 147.116 285.755 147.116 283.441C147.116 281.127 148.363 279.762 150.677 279.584C152.873 279.406 154.535 281.127 154.535 283.441Z" fill="#F79E1B"/>
<path d="M152.458 270.387C150.262 270.328 148.6 268.548 148.838 266.234C149.016 263.919 150.262 262.614 152.636 262.614C154.892 262.614 156.435 264.394 156.316 266.708C156.138 268.904 154.536 270.447 152.458 270.387Z" fill="#F79E1B"/>
<path d="M332.536 145.364C329.924 145.364 328.381 143.643 328.5 141.27C328.678 138.956 329.865 137.591 332.239 137.591C334.494 137.591 336.038 139.312 335.919 141.626C335.8 143.999 334.554 145.246 332.536 145.364Z" fill="#F79E1B"/>
</g>
</svg>
