<svg width="407" height="300" viewBox="0 0 407 300" fill="none" xmlns="http://www.w3.org/2000/svg">
<g style="mix-blend-mode:luminosity" opacity="0.4">
<path d="M195.259 39.0917C195.971 36.5996 196.506 34.2261 197.277 31.9119C201.966 18.5611 212.175 11.322 226.301 11.5C235.975 11.678 245.056 13.8735 253.01 19.8072C253.663 20.2819 255.028 20.4006 255.859 20.1039C258.767 19.2138 261.557 17.9084 264.465 17.0184C267.195 16.1283 268.916 17.0777 269.629 19.3918C270.341 21.706 269.332 23.5454 266.839 24.4355C264.346 25.3255 261.853 26.2156 259.064 27.165C259.539 28.7077 259.895 29.9538 260.31 31.1999C265.118 30.0132 269.688 28.8264 274.258 27.7584C275.267 27.521 276.692 27.2243 277.404 27.699C278.65 28.5297 280.194 29.9538 280.253 31.1999C280.312 32.446 278.947 34.5228 277.76 34.9381C270.934 37.1929 263.99 39.0917 257.046 40.9905C254.078 41.8212 251.823 39.9818 252.357 36.8369C253.128 31.7339 250.814 28.1144 246.956 25.5035C238.468 19.7479 228.912 17.7304 219 20.2819C206.002 23.5454 198.761 41.9992 205.705 53.4512C209.504 59.741 215.321 62.5891 222.562 62.7671C226.004 62.8858 227.488 63.9539 227.429 66.5054C227.429 69.1162 225.589 70.9556 222.384 70.5403C218.11 69.9469 213.896 68.8788 209.86 67.5734C208.02 66.9801 207.07 66.9207 205.883 68.4042C204.103 70.5996 202.085 72.6764 200.245 74.8719C198.583 76.8893 196.684 77.2454 194.547 75.8213C192.707 74.5752 192.47 72.2017 194.132 70.0656C196.446 67.1581 198.939 64.3692 201.016 61.9958C198.88 57.0115 196.862 52.3832 194.666 47.2209C188.493 46.9242 181.667 46.6868 174.901 46.1528C173.358 46.0341 171.34 45.1441 170.568 43.898C168.906 41.3465 170.984 38.3203 174.308 38.3797C179.531 38.4983 184.754 38.9137 189.977 39.151C191.698 39.151 193.479 39.0917 195.259 39.0917Z" fill="#F79E1B"/>
<path d="M-4.58271 169.158C-3.33629 166.903 -2.26793 165.123 -4.76076 163.047C-5.53235 162.394 -5.41365 159.605 -4.58271 158.596C-3.81111 157.647 -1.61505 157.172 -0.190574 157.469C1.53067 157.825 3.1332 159.13 4.73574 160.08C6.69439 161.266 8.77175 161.801 10.9085 160.614C14.6477 158.656 18.3276 156.579 22.0075 154.561C23.3726 153.79 23.5507 152.841 22.9571 151.357C18.3276 140.024 18.6244 128.453 21.7107 116.823C23.432 110.355 24.7377 103.71 26.5777 97.3013C27.5867 93.741 29.1299 90.2402 30.7918 86.9173C32.3349 83.7724 35.4213 83.5944 37.7361 86.2646C38.0922 86.6206 38.3296 87.036 38.6264 87.4513C43.6714 95.3431 48.7758 103.235 53.6427 111.245C54.9485 113.382 55.4827 115.992 56.3136 118.366C57.56 121.867 58.6877 125.427 60.0528 128.869C61.3586 132.013 60.2903 134.565 56.8478 134.862C50.6751 135.396 44.443 135.633 38.2109 135.87C35.7181 135.93 34.3529 134.328 34.4123 131.895C34.4716 129.462 35.8961 128.097 38.389 128.097C41.2379 128.038 44.1462 128.038 46.9952 127.978C48.1229 127.978 49.3099 127.8 50.2596 127.682C50.4376 127.326 50.497 127.207 50.497 127.148C49.488 120.087 48.5977 119.434 41.5347 120.087C38.0922 120.443 34.6497 120.621 31.2072 121.155C30.1982 121.333 28.655 122.282 28.4176 123.113C26.2216 131.657 26.8745 140.083 30.1982 148.568C32.4536 147.678 34.4717 146.729 36.6084 146.017C44.2649 143.525 51.7434 147.026 54.533 154.324C56.1949 158.656 54.9485 163.284 51.506 165.717C49.6067 167.081 47.7668 166.785 46.1642 165.242C44.6804 163.818 44.3836 162.097 45.8081 160.495C46.9952 159.13 48.3009 157.528 46.8171 156.104C45.2739 154.68 43.0779 153.256 41.1192 153.256C38.7451 153.256 36.371 154.68 33.6407 155.629C38.6264 163.818 44.9772 169.692 52.9898 174.439C53.6427 173.015 54.2362 171.828 54.7704 170.642C55.6607 168.802 56.551 166.903 57.56 165.123C60.2903 160.495 64.2076 158.478 69.5493 159.902C73.6447 160.97 77.7994 161.86 81.8354 163.225C84.6844 164.174 85.3373 166.844 83.5567 169.218C75.2472 180.314 69.5493 192.774 63.9108 205.294C62.1896 209.092 60.5277 212.83 58.7471 216.628C57.3226 219.713 55.8388 220.485 53.5834 219.535C51.0905 218.467 50.3783 216.094 51.7434 213.068C55.4233 204.998 59.1626 196.928 62.8424 188.858C63.1986 188.087 63.4953 187.256 63.9108 186.307C61.9521 185.832 60.2903 185.179 58.569 185.179C57.7974 185.179 56.6104 186.188 56.1949 187.019C53.1679 192.893 50.2596 198.827 47.2919 204.76C46.3423 206.6 44.9178 207.668 42.7217 207.193C39.8134 206.541 38.9231 203.93 40.407 200.963C43.5527 194.733 46.6984 188.443 49.9628 181.916C40.407 176.635 32.9878 169.574 27.468 160.673C9.95881 169.455 9.95881 169.455 4.0235 168.624C3.60803 169.692 3.1332 170.879 2.59902 172.125C3.31126 172.481 3.78609 172.719 4.32026 172.956C6.39762 173.846 7.10986 175.448 6.39762 177.525C5.68539 179.72 4.0235 180.67 1.76808 180.076C-0.190573 179.542 -2.14923 178.771 -4.52335 177.881C-4.52335 179.246 -4.52335 180.314 -4.52335 181.441C-4.52335 188.561 -4.34529 195.682 -4.464 202.743C-4.5827 206.956 -6.12589 208.855 -8.73742 208.677C-11.4677 208.499 -12.1799 206.659 -12.1206 202.328C-12.0018 193.724 -12.2393 185.179 -12.2393 176.575C-12.2393 175.092 -12.2393 173.609 -12.1206 172.125C-11.8238 168.506 -9.62772 167.2 -6.18524 168.446C-5.76977 168.743 -5.29494 168.921 -4.58271 169.158ZM34.6497 96.4112C33.1659 102.404 31.9195 107.567 30.5543 113.204C35.4807 112.788 39.8134 112.373 44.5023 112.017C41.2379 106.855 38.2109 102.048 34.6497 96.4112ZM74.0008 168.921C71.4486 168.387 69.3119 167.853 67.2346 167.616C66.5223 167.556 65.3353 167.912 64.9792 168.506C63.3173 171.354 61.8928 174.261 60.1122 177.643C62.6644 177.999 64.5043 178.474 66.3443 178.474C67.2346 178.474 68.4216 177.881 68.9558 177.169C70.6771 174.677 72.1609 172.006 74.0008 168.921Z" fill="#F79E1B"/>
<path d="M85.2779 151.04C88.483 151.04 90.7384 150.981 92.9938 151.04C95.4867 151.159 96.8518 152.583 96.7924 155.016C96.7331 157.508 95.2492 158.814 92.8158 158.814C84.447 158.754 76.0782 158.458 68.481 154.719C64.3263 152.702 60.7057 149.498 57.0852 146.531C55.3046 145.047 54.533 142.911 56.6104 140.894C58.4503 139.173 60.7651 139.351 62.8424 141.428C63.1392 141.725 63.2579 142.081 63.614 142.615C65.5133 138.698 67.2346 135.138 68.8965 131.815C58.5097 114.43 56.7884 96.9845 68.0062 79.0647C67.9468 79.0054 67.65 78.768 67.2939 78.6494C54.4737 75.8605 48.2416 66.782 44.9772 55.0333C44.2649 52.4224 44.3243 49.5743 44.1462 46.8448C43.6714 39.9617 43.2559 33.0786 42.8405 26.1362C42.7811 24.7714 42.6624 23.3473 42.7217 21.9826C42.7811 19.5498 44.0275 18.0663 46.5203 18.007C49.0132 17.9477 50.3783 19.3124 50.5564 21.8046C50.7938 25.2461 50.9718 28.6877 51.2092 32.1292C51.2686 32.7819 51.3873 33.4346 51.4467 33.6126C56.9665 31.2391 62.427 28.8657 68.481 26.2548C68.3029 23.5847 68.1249 20.0838 67.9468 17.295C63.7327 15.2182 59.8154 13.6161 56.2543 11.4799C53.4053 9.75917 53.1085 7.38569 54.7111 5.24956C56.4323 2.93542 59.1032 2.5794 61.7147 4.65619C64.8605 7.14835 68.4216 8.0384 72.2796 7.5637C75.4847 7.20768 78.6897 6.4363 81.8354 5.72426C85.7528 4.77487 88.0082 5.66492 88.7204 8.63177C89.4326 11.5986 88.0082 13.3787 83.9722 14.3875C81.9542 14.8621 79.9361 15.3962 77.9181 15.6929C76.3156 15.9302 75.6627 16.6423 75.9001 18.2444C75.9595 18.4224 75.9595 18.6597 75.9595 18.8377C75.4253 24.4747 76.6717 28.391 83.3193 29.459C86.5243 29.9931 89.3733 32.5446 92.8751 34.4433C92.8751 30.8831 92.8751 27.5009 92.8751 24.1187C92.9345 20.5585 94.1215 19.0157 96.7331 18.9564C99.404 18.8971 100.591 20.4992 100.71 24C101.007 32.9006 101.719 41.7418 101.541 50.6423C101.303 61.2043 95.9615 71.7069 83.8534 77.3439C73.526 82.1502 67.9468 91.1101 68.4216 102.443C68.4216 102.799 68.5403 103.215 68.6591 103.63C71.0925 103.63 73.4073 103.571 75.7814 103.63C78.6897 103.749 80.411 105.41 80.2923 107.962C80.2329 110.454 78.6304 111.878 75.7814 111.997C74.0008 112.056 72.2202 112.115 70.4396 112.175C70.1429 112.175 69.9055 112.353 69.6087 112.412C68.8965 121.609 77.0872 130.747 87.1179 131.697C90.6197 132.053 94.2402 131.875 97.8014 131.934C101.006 131.993 102.609 133.358 102.55 135.91C102.49 138.402 101.006 139.707 97.9795 139.766C96.0208 139.826 94.0028 140.004 92.0442 139.707C89.3139 139.292 87.8895 140.478 87.2366 142.852C86.5243 145.344 86.0495 147.836 85.2779 151.04ZM56.2543 61.0263C57.0258 59.9582 57.6787 58.8902 58.4503 57.8814C62.1302 52.9565 65.5727 47.9722 69.49 43.2252C71.9828 40.199 74.4163 40.377 76.8498 43.5219C80.7671 48.6249 84.447 53.8465 88.2456 59.0088C88.8985 59.8989 89.6107 60.7889 90.3229 61.7383C94.9525 55.3299 94.537 48.1502 89.492 42.4538C81.8948 34.028 68.8965 32.4259 59.2219 38.7156C51.1499 44.0559 49.8441 53.1938 56.2543 61.0263ZM61.418 67.4347C67.5313 72.8937 80.5297 72.597 84.5657 67.4347C80.8264 62.0943 77.0278 56.754 72.8138 50.8203C68.8371 56.6354 65.1572 61.9757 61.418 67.4347ZM77.384 150.032C78.393 145.641 79.2833 142.021 80.2329 137.868C78.393 137.749 75.4847 136.978 75.1879 137.571C73.6447 140.656 72.4577 144.039 71.8641 147.421C71.8048 147.896 75.366 149.082 77.384 150.032Z" fill="#F79E1B"/>
<path d="M130.564 50.425C126.41 45.7967 122.67 41.5245 118.931 37.3115C118.634 37.3709 118.278 37.4302 117.981 37.5489C116.319 50.0096 111.453 61.343 105.695 72.3797C105.873 72.5577 106.111 72.7357 106.289 72.8544C122.136 67.0393 138.043 61.2243 154.365 55.2906C153.296 54.1632 152.584 53.3919 151.872 52.6798C142.079 42.8892 132.285 33.158 122.552 23.3674C121.839 22.6553 121.127 22.0026 120.534 21.2312C119.287 19.5698 119.525 17.849 120.89 16.4249C122.373 14.8822 124.154 14.4075 125.935 15.8316C127.478 17.0776 128.784 18.5611 130.208 19.9258C143.266 32.9799 156.323 46.0341 169.381 59.0882C170.153 59.8596 170.687 60.809 171.28 61.6397C175.732 59.3255 179.531 57.3081 183.389 55.4093C186.119 54.1039 188.493 54.9346 189.621 57.3674C190.689 59.8596 189.739 61.521 187.425 62.7077C184.397 64.2505 181.311 65.7933 177.809 67.5734C182.083 71.7863 185.881 75.5839 189.739 79.3814C191.223 80.8055 191.995 82.4076 190.867 84.4251C189.443 86.9172 186.416 87.5106 184.457 85.1371C182.083 82.2296 179.59 82.5263 176.385 83.891C177.275 84.9591 178.106 85.9085 178.759 86.9172C180.065 88.8753 180.302 90.8928 178.284 92.4356C176.385 93.919 174.486 93.741 172.764 91.9015C171.637 90.6554 170.271 89.5874 169.322 88.2226C166.948 84.7217 164.039 84.6624 160.359 86.7392C162.199 88.816 164.039 90.8928 165.879 93.0289C168.075 95.6398 168.135 97.7759 166.176 99.4967C164.277 101.158 162.199 100.565 159.885 98.0132C156.739 94.5717 153.593 91.1895 150.269 87.9259C148.311 86.0272 147.48 83.891 148.073 81.2802C148.904 77.6013 149.795 73.9818 150.685 70.3622C151.1 68.6414 151.694 66.98 152.347 64.9032C151.219 65.1999 150.448 65.2592 149.795 65.5559C133.769 71.4896 117.744 77.4233 101.778 83.4163C97.92 84.8404 95.1304 82.823 95.9614 78.7287C96.6736 75.1685 97.6826 71.549 99.3445 68.3448C105.28 56.4774 109.197 44.254 111.393 31.4372C112.105 27.1056 114.598 26.0375 118.516 28.1737C127.537 33.158 133.532 41.1091 138.933 49.5943C140.536 52.1458 140.061 54.1039 137.449 55.5873C135.55 56.7147 133.354 57.5454 131.276 58.3168C128.428 59.3849 125.519 60.2749 122.611 61.2243C120.296 61.9957 118.1 60.987 117.328 58.7915C116.498 56.4774 117.447 54.8753 119.584 54.0446C122.908 52.9172 126.35 51.8491 130.564 50.425ZM160.716 62.7077C159.232 67.7514 157.689 73.1511 156.086 78.7287C162.556 77.6013 168.313 76.6519 173.655 75.7025C169.441 71.4303 165.108 67.0987 160.716 62.7077Z" fill="#F79E1B"/>
<path d="M54.6518 262.97C56.6698 261.427 58.8659 259.647 61.1213 257.926C63.0206 256.502 64.8605 254.96 66.8785 253.773C70.6771 251.637 73.5261 253.357 73.5261 257.689C73.5261 258.638 73.5261 259.588 73.5261 260.597C76.6718 261.012 80.5298 259.469 81.0046 264.216C81.3013 266.886 79.8175 267.776 74.179 268.666C74.179 271.455 74.179 274.244 74.179 277.152C77.206 277.923 81.7762 276.499 81.4794 281.602C81.1826 286.408 76.8499 284.687 74.1196 285.399C73.2887 288.307 72.7545 291.274 71.5674 293.944C70.9739 295.368 69.312 297.089 67.9469 297.207C66.6411 297.326 64.5638 296.021 63.7922 294.775C60.231 289.197 57.0259 283.441 53.6428 277.745C52.9899 276.677 52.3964 275.549 51.2687 273.71C41.0599 280.534 31.2073 287.179 21.2953 293.825C20.5831 294.3 19.9302 295.012 19.1586 295.427C16.4877 296.911 13.6388 295.902 13.2827 292.935C12.8078 289.138 12.5111 285.162 13.164 281.483C14.8852 271.811 16.0723 262.199 15.8942 252.349C15.8942 250.984 16.9626 248.907 18.0903 248.373C19.2773 247.839 21.6515 248.314 22.5418 249.263C27.5868 254.247 32.3944 259.528 37.1426 264.75C39.398 267.242 39.398 269.556 37.4394 271.218C35.5401 272.82 33.4034 272.286 31.148 269.675C28.9519 267.124 26.5778 264.631 24.0849 261.902C22.8979 269.556 21.7702 276.618 20.6425 283.975C29.5454 278.398 38.2703 272.998 47.4107 267.302C44.0869 262.851 40.9412 258.342 37.4987 254.069C34.7091 250.628 31.4447 247.542 28.6551 244.101C26.6371 241.609 24.7378 238.82 23.4914 235.912C21.9482 232.471 23.5508 230.157 27.3494 229.682C30.4357 229.326 33.5814 229.148 37.3207 228.851C34.6498 224.994 32.157 221.494 29.7235 217.993C29.0706 217.103 28.4177 216.272 27.8242 215.322C26.3997 213.246 26.7558 211.288 28.6551 209.863C30.5544 208.439 32.5131 208.914 33.9376 210.635C35.6588 212.652 37.1426 214.907 38.6858 217.103C41.1193 220.544 43.4934 224.104 46.0456 227.487C46.8172 228.495 48.301 229.445 49.5474 229.563C57.1446 230.216 64.7418 230.513 72.2797 231.225C73.8822 231.403 75.9596 232.471 76.7905 233.776C77.384 234.726 76.6124 236.98 75.7815 238.227C71.5674 244.16 65.5728 248.017 59.6375 251.993C57.6788 253.298 55.7795 252.527 54.4144 250.806C51.2687 247.127 48.0636 243.448 45.2146 239.591C43.7902 237.692 42.3063 236.921 40.0509 237.04C37.9142 237.158 35.7775 237.04 33.5221 237.04C40.6445 245.762 47.5294 254.188 54.6518 262.97ZM65.3947 282.611C65.5728 282.492 65.6915 282.433 65.8695 282.314C65.8695 276.618 65.8695 270.921 65.8695 264.513C62.9612 266.59 60.7058 268.251 58.3317 269.972C60.7652 274.303 63.0799 278.457 65.3947 282.611ZM54.6518 237.87C54.5331 238.108 54.4737 238.345 54.355 238.583C55.7201 240.185 57.0259 241.727 58.4504 243.389C60.5871 241.787 62.3083 240.422 64.6825 238.642C60.7652 238.345 57.7382 238.108 54.6518 237.87Z" fill="#F79E1B"/>
<path d="M231.287 271.93C231.287 265.047 231.346 258.342 231.227 251.637C231.227 251.103 230.218 250.45 229.506 250.153C227.013 249.204 224.342 248.67 221.968 247.542C216.508 244.932 213.956 240.125 213.303 234.31C212.947 231.225 214.015 228.614 216.686 226.893C219.416 225.172 222.384 225.35 225.233 226.596C227.369 227.546 227.963 229.445 227.251 231.581C226.598 233.657 225.055 234.548 222.859 234.014C222.384 233.895 221.968 233.835 221.434 233.776C221.612 239.057 224.699 241.49 232.118 242.202C232.296 241.549 232.533 240.778 232.771 240.066C234.195 234.963 235.441 229.741 237.222 224.698C238.053 222.324 237.519 221.315 235.619 219.951C233.067 218.171 230.634 216.034 228.616 213.661C225.767 210.338 224.936 206.303 226.182 201.972C227.963 195.86 235.026 193.012 240.605 196.097C242.445 197.106 242.92 198.767 242.386 200.666C241.733 202.802 240.13 203.633 237.994 203.277C236.45 203.04 234.492 201.972 233.958 204.048C233.601 205.472 234.136 207.668 235.145 208.855C236.985 211.05 239.418 212.83 241.852 214.966C245.413 209.923 249.864 207.075 255.621 206.481C256.274 206.422 256.927 205.413 257.343 204.701C258.352 202.921 259.183 201.082 260.192 199.005C257.283 197.996 254.553 197.165 251.882 196.157C247.965 194.673 244.463 192.478 241.97 188.977C238.706 184.349 238.587 179.068 241.674 174.558C244.76 170.048 250.933 167.437 255.918 168.624C261.023 169.811 263.634 176.635 260.251 180.67C259.42 181.678 257.165 182.331 255.918 181.916C254.731 181.56 254.019 179.602 253.307 178.296C253.069 177.881 253.425 177.169 253.485 176.397C250.576 176.457 248.558 177.703 247.49 180.076C246.481 182.331 247.728 184.349 249.449 185.476C252.12 187.256 255.028 188.858 257.996 190.045C261.854 191.588 265.949 192.478 269.807 193.842C273.724 195.207 276.989 197.521 279.422 200.963C280.787 202.921 281.025 204.76 279.007 206.422C277.167 207.905 274.971 207.609 273.19 205.769C271.647 204.167 270.044 202.743 268.145 200.904C266.78 203.514 265.712 205.472 264.584 207.609C268.442 209.685 271.231 212.296 272.24 216.45C272.775 218.586 271.884 220.188 269.866 220.959C267.908 221.731 266.186 221.315 265.059 219.357C261.201 212.771 254.256 212.118 249.152 217.874C248.974 218.111 248.855 218.349 248.499 218.942C249.449 219.773 250.458 220.663 251.467 221.553C253.722 223.63 254.078 225.588 252.535 227.427C250.933 229.385 248.737 229.385 246.303 227.486C245.947 227.19 245.531 226.893 244.582 226.181C243.039 231.937 241.555 237.336 240.071 242.914C243.217 244.279 248.084 243.329 247.193 248.492C246.422 252.942 242.564 251.399 239.418 251.221C239.418 257.986 239.418 264.631 239.418 271.277C242.861 271.692 247.253 269.734 247.668 274.778C248.084 279.703 243.395 278.576 240.486 279.703C240.783 283.975 241.08 288.188 241.317 292.401C241.495 295.546 240.368 297.148 237.994 297.326C235.382 297.563 233.72 295.843 233.483 292.638C233.245 289.197 232.889 285.755 232.771 282.314C232.711 280.474 232.058 279.762 230.1 279.762C227.251 279.703 224.342 279.584 221.553 279.05C215.024 277.745 210.691 272.523 210.454 266.174C210.216 260.181 214.727 256.68 220.366 258.342C222.562 258.994 223.808 260.24 223.571 262.614C223.333 264.809 222.028 265.937 219.832 266.055C219.475 266.055 219.06 266.174 218.704 266.233C219.297 271.277 223.452 273.057 231.287 271.93Z" fill="#F79E1B"/>
<path d="M375.99 250.984C382.756 251.933 388.988 252.823 395.22 253.773C396.11 253.891 396.941 254.247 397.772 254.485C400.265 255.315 401.155 257.096 400.562 259.588C399.968 261.902 398.128 262.792 395.398 261.961C388.573 259.884 381.628 258.876 374.625 259.825C369.876 260.478 365.069 261.605 360.617 263.207C354.266 265.581 351.299 271.099 351.774 278.101C352.189 284.094 357.175 290.206 362.873 291.808C367.146 292.994 372.013 289.85 372.072 285.518C372.072 284.153 370.47 282.729 369.639 281.305C368.808 282.017 367.68 282.61 367.146 283.501C366.018 285.399 364.475 286.111 362.457 285.696C360.261 285.221 359.49 283.619 359.608 281.483C359.905 276.202 366.196 272.108 371.657 273.71C377.83 275.49 381.391 282.136 379.61 288.544C377.236 296.97 368.986 301.598 360.261 298.987C351.952 296.495 346.432 290.918 344.533 282.432C342.515 273.532 344.711 265.521 351.714 259.35C353.257 257.986 353.673 257.036 352.723 255.197C351.596 253.061 350.646 250.747 349.34 247.839C347.975 249.441 346.847 250.569 345.957 251.874C343.88 255.019 342.099 258.342 339.903 261.368C331.119 273.591 315.984 273.235 307.615 260.656C298.89 247.542 303.757 232.352 318.12 227.842C324.293 225.884 328.982 227.13 331.237 231.225C333.671 235.675 332.068 242.736 327.795 246.296C327.736 246.356 327.617 246.415 327.558 246.474C319.545 251.815 318.002 249.678 315.509 243.092C315.093 242.024 314.737 240.897 314.322 239.829C314.025 239.71 313.669 239.651 313.372 239.532C312.66 241.431 311.473 243.27 311.354 245.228C310.939 250.39 312.601 255.019 316.102 258.816C320.791 263.801 327.854 263.741 332.187 258.46C334.146 256.146 335.808 253.476 337.173 250.806C342.693 240.422 351.477 236.268 362.873 237.04C368.214 237.396 373.556 237.692 378.839 238.345C380.263 238.523 382.162 239.888 382.697 241.134C383.171 242.261 382.4 244.338 381.51 245.525C380.026 247.542 377.889 249.204 375.99 250.984ZM360.558 253.951C364 251.103 367.146 248.432 370.351 245.822C370.232 245.584 370.173 245.347 370.054 245.11C365.722 245.11 361.389 245.11 356.937 245.11C356.997 245.703 356.997 246 357.056 246.237C358.184 248.67 359.252 251.103 360.558 253.951ZM322.631 239.769C323.047 239.769 323.462 239.769 323.878 239.829C323.996 238.286 324.115 236.743 324.056 235.26C324.056 235.141 322.453 235.082 321.147 234.963C321.8 236.862 322.216 238.286 322.631 239.769Z" fill="#F79E1B"/>
<path d="M-5.17632 43.542C-5.17632 53.0359 -5.17632 62.1737 -5.17632 71.6083C-0.784189 69.7095 3.13312 68.0481 7.40654 66.2087C5.21047 62.7671 3.07376 59.5629 1.05576 56.3587C0.402873 55.35 -0.190658 54.3413 -0.784189 53.3325C-1.85255 51.3151 -1.31837 49.6537 0.52158 48.4669C2.48023 47.2208 4.37953 47.4582 5.6853 49.4756C9.12778 54.638 12.5109 59.8596 15.894 65.0813C17.1405 67.0394 16.7843 68.9382 14.9444 70.3029C13.5199 71.371 12.0361 72.3797 10.4929 73.1511C5.09177 75.7619 -0.368717 78.3727 -5.8292 80.8649C-9.98392 82.7637 -12.4174 81.3396 -12.5361 76.7706C-12.8329 67.5734 -13.0703 58.4355 -13.1296 49.2383C-13.3077 37.6083 -13.3077 25.9782 -13.1296 14.3482C-13.0703 10.6693 -12.4174 6.87173 -11.4678 3.31151C-10.4587 -0.308043 -7.01627 -1.13876 -4.64214 1.70941C1.41188 9.00786 7.22848 16.4843 13.0451 23.9608C14.4102 25.7409 14.1728 27.8177 12.2141 29.1231C10.3148 30.3691 8.41554 30.1911 6.99107 28.2924C3.6673 24.0794 0.52158 19.8072 -2.74284 15.5943C-3.33637 14.7635 -4.04861 13.9922 -5.35438 13.4581C-5.35438 20.7566 -5.35438 28.055 -5.35438 35.8875C0.224814 35.8875 5.6853 35.9468 11.2051 35.8281C11.9767 35.8281 12.8077 34.9381 13.4012 34.2261C15.5379 31.6152 18.2682 30.4878 21.5326 31.1999C25.2125 31.9712 28.1801 34.048 29.4859 37.6083C29.842 38.617 28.833 40.9905 27.8834 41.4058C26.5776 41.9399 24.6189 41.5245 23.0758 40.9311C21.9481 40.5158 21.1171 39.2697 20.0488 38.3203C18.0308 42.7112 19.4552 46.0341 23.3132 47.1615C30.0201 49.179 34.709 45.2627 32.9284 38.4983C31.9194 34.5821 29.9607 30.7252 27.5273 27.4616C23.3725 21.884 18.4462 16.7217 13.8167 11.2627C13.0451 10.3726 12.2735 9.42321 11.7393 8.41449C10.4336 5.50698 12.0954 2.95549 15.2412 2.89615C16.0127 2.89615 16.8437 3.01482 17.6153 3.07416C25.806 3.43018 33.9374 3.78621 42.1281 4.14223C42.6029 4.14223 43.1371 4.14223 43.6119 4.14223C45.9861 4.2609 47.2918 5.50698 47.3512 7.88045C47.3512 10.2539 46.1048 11.6187 43.7307 11.678C38.2702 11.856 32.8097 11.856 27.4085 11.9747C26.7557 11.9747 26.1028 11.9747 24.7377 11.9747C25.7467 13.1614 26.4589 13.9328 27.1118 14.7635C30.6136 19.5105 34.709 23.9608 37.4986 29.1231C39.5166 32.802 40.4662 37.3116 40.7036 41.5245C41.0598 48.7636 36.5489 53.6292 29.4265 54.8753C21.5919 56.1807 14.4696 52.7392 12.1548 46.1528C11.4426 44.076 10.4929 43.4233 8.41554 43.4826C3.90471 43.6606 -0.665483 43.542 -5.17632 43.542Z" fill="#F79E1B"/>
<path d="M91.2132 210.457C93.8841 209.982 95.7241 209.745 97.4453 209.27C97.9795 209.092 98.6324 208.261 98.7511 207.668C100.057 199.954 104.212 193.902 109.85 188.917C114.242 185.001 119.109 181.5 124.036 178.355C126.35 176.872 127.003 175.685 125.994 173.253C125.519 172.125 125.282 170.879 124.807 169.396C117.685 173.371 111.868 178.296 106.467 183.874C105.577 184.823 104.686 185.773 103.855 186.722C102.312 188.443 100.532 188.858 98.6324 187.375C96.7331 185.951 96.377 183.518 97.9795 181.619C100.116 179.127 102.253 176.635 104.746 174.617C110.088 170.404 115.607 166.429 121.127 162.453C122.374 161.563 123.086 160.851 122.73 159.19C121.602 153.909 120.771 148.509 119.525 143.228C118.99 140.855 119.109 139.134 121.543 138.184C123.739 137.354 126.113 138.184 126.884 140.558C127.953 143.821 128.606 147.204 129.318 150.586C131.099 158.893 132.82 167.2 134.66 175.448C135.669 179.898 134.956 181.322 130.98 183.518C126.291 186.129 121.78 189.155 116.676 192.3C118.753 193.842 120.178 194.851 121.543 195.919C123.561 197.403 123.917 199.361 122.552 201.378C121.127 203.514 119.169 203.514 117.091 202.268C115.251 201.141 113.471 199.954 111.512 198.649C108.604 202.209 106.645 205.828 106.408 210.279C106.17 214.254 105.102 215.738 101.185 216.628C97.2079 217.518 93.1719 217.993 89.2546 218.883C83.9722 220.129 78.8084 221.671 73.5854 223.096C72.9918 223.274 72.4577 223.511 71.8641 223.57C67.2939 224.282 65.0385 221.909 66.1069 217.459C69.7868 201.734 76.4937 187.375 86.6431 174.855C92.2816 167.912 98.9885 161.86 105.221 155.392C105.814 154.739 106.586 154.205 107.298 153.79C109.197 152.603 111.156 152.544 112.58 154.443C114.064 156.341 113.886 158.24 111.987 159.961C108.663 162.928 105.28 165.776 102.134 168.921C90.4416 180.67 81.8354 194.317 76.4343 209.982C76.0188 211.169 75.7221 212.356 75.366 213.72C76.0782 213.72 76.375 213.78 76.6124 213.72C78.8084 213.186 81.0045 212.652 82.4883 212.237C84.8625 206.303 86.9398 200.844 89.2546 195.445C89.7294 194.376 90.7978 192.952 91.8068 192.834C93.2906 192.596 95.3086 192.952 96.2583 193.902C97.0298 194.673 97.1486 196.869 96.6737 198.115C95.1899 201.972 93.2906 205.828 91.2132 210.457Z" fill="#F79E1B"/>
<path d="M254.612 82.4076C250.873 77.364 247.134 72.261 243.395 67.2174C242.445 65.9713 241.377 64.7846 240.427 63.5385C237.815 60.097 235.323 57.4268 229.981 57.4268C223.096 57.4861 216.923 50.7811 215.736 43.9573C214.668 37.9643 217.161 32.98 222.621 30.2505C229.15 26.9869 237.459 28.233 242.089 33.2173C246.896 38.3203 247.727 46.7461 244.226 53.0952C243.869 53.7479 243.573 54.9346 243.869 55.4093C246.184 58.4355 248.677 61.343 251.348 64.6066C255.265 56.5961 260.844 50.603 268.501 47.1022C273.605 44.7287 279.244 43.3046 284.764 41.9398C288.325 41.0498 290.106 42.3552 290.402 44.9067C290.699 47.6362 289.215 49.2383 285.654 49.5943C278.828 50.3657 272.596 52.7392 267.255 57.0708C265.771 58.2575 264.406 59.5629 263.159 60.9277C256.274 68.7601 256.156 71.905 262.566 80.7462C263.159 79.6188 263.693 78.6101 264.168 77.6607C272.656 61.521 288.266 53.8072 304.766 57.7235C307.259 58.3168 309.633 59.2662 312.007 60.3343C314.796 61.5804 315.627 63.5385 314.618 65.6746C313.55 68.0481 311.413 68.7008 308.683 67.3361C303.341 64.7252 297.762 63.9539 291.945 64.9032C280.431 66.6834 269.035 79.3221 268.323 91.0115C267.967 96.6485 265.533 97.9539 260.666 95.1058C250.814 89.3501 240.012 87.4513 228.794 87.2139C224.164 87.1546 222.562 86.0865 222.562 83.179C222.562 80.2715 224.342 78.9068 228.853 79.3815C236.747 80.3309 244.641 81.6956 252.535 82.8823C253.01 82.9417 253.425 83.0604 253.9 83.1197C254.197 82.8823 254.375 82.645 254.612 82.4076ZM230.218 36.3028C226.301 36.2435 223.274 38.5576 223.274 41.5838C223.274 45.6781 227.725 49.9503 232.058 50.0097C236.747 50.069 238.646 48.5262 238.706 44.61C238.706 39.8631 235.145 36.3622 230.218 36.3028Z" fill="#F79E1B"/>
<path d="M203.747 195.207C199.533 181.5 199.355 168.446 205.527 155.629C205.883 154.858 205.527 153.375 204.993 152.544C200.482 144.771 199.829 136.642 203.213 128.394C206.121 121.333 211.285 116.526 218.585 114.272C226.598 111.779 234.551 111.898 242.386 115.162C247.727 117.416 251.704 121.095 253.603 126.673C254.138 128.275 255.087 128.572 256.63 128.75C259.835 129.225 263.04 129.877 266.067 130.827C268.382 131.598 269.213 133.615 268.085 135.87C267.076 138.006 265.296 138.778 262.922 137.888C261.557 137.354 260.132 136.642 258.708 136.582C241.08 136.226 222.146 141.507 212.709 158.893C207.189 169.158 207.486 179.72 210.691 190.46C211.166 192.122 212.946 193.546 214.49 194.673C216.211 195.919 217.161 197.343 216.686 199.361C216.211 201.556 214.608 202.268 212.472 202.268C210.869 202.268 209.326 202.209 207.723 202.328C204.281 202.565 202.085 204.464 200.957 207.668C199.889 210.635 200.304 213.186 202.856 215.382C205.052 217.281 204.874 219.417 202.856 221.553C200.542 223.986 198.286 226.418 196.031 228.911C194.31 230.809 192.292 231.165 190.214 229.682C188.077 228.139 188.137 226.003 189.799 224.282C193.182 220.722 194.784 217.459 192.944 212.059C190.986 206.303 195.497 199.123 201.076 196.394C202.025 195.979 202.916 195.623 203.747 195.207ZM246.303 129.462C244.819 125.308 242.029 123.113 238.468 121.867C231.88 119.553 225.173 119.731 218.882 122.638C216.448 123.766 214.193 125.664 212.531 127.741C208.198 133.081 207.783 142.575 211.522 147.144C220.306 135.93 232.711 131.598 246.303 129.462Z" fill="#F79E1B"/>
<path d="M161.428 287.357C162.14 286.527 162.793 285.637 163.564 284.925C165.226 283.441 167.066 283.56 168.669 284.865C170.271 286.171 170.627 288.01 169.44 289.612C167.304 292.579 165.048 295.427 162.437 298.038C160.359 300.174 156.086 298.987 155.136 295.961C153.831 291.926 152.584 287.832 152.228 283.619C151.041 269.616 153.89 256.087 158.698 243.033C159.588 240.659 159.291 239.473 157.214 238.286C154.661 236.862 152.228 235.141 149.557 233.479C149.082 234.488 148.786 235.022 148.548 235.675C147.717 238.108 146.115 239.235 143.562 238.582C141.129 237.93 140.001 235.912 141.129 233.183C143.325 227.902 145.462 222.562 148.37 217.696C153.356 209.448 160.359 202.98 168.431 197.818C174.782 193.664 181.548 190.223 188.196 186.485C188.968 186.069 189.858 185.713 190.689 185.595C192.944 185.357 194.547 186.485 195.259 188.561C195.971 190.638 194.844 191.884 193.063 192.834C187.84 195.563 182.498 198.233 177.394 201.26C173.476 203.633 169.856 206.481 165.404 209.626C168.669 212.652 171.399 215.144 174.07 217.696C175.316 218.883 176.325 218.645 177.631 217.577C181.133 214.788 182.854 214.729 184.457 216.865C186.119 219.179 185.525 221.256 182.32 223.748C175.198 229.267 169.915 236.268 166.591 244.576C162.021 256.087 159.707 268.014 159.944 280.415C160.003 282.61 160.359 284.865 160.597 287.061C160.834 287.179 161.131 287.239 161.428 287.357ZM159.944 214.966C157.273 218.764 154.721 222.383 152.169 226.003C156.264 228.495 159.885 230.75 163.564 233.005C165.761 230.038 167.779 227.308 169.322 225.291C166.176 221.849 163.268 218.645 159.944 214.966Z" fill="#F79E1B"/>
<path d="M393.677 202.328C396.288 190.876 399.909 179.601 397.475 167.675C394.686 154.146 385.723 145.72 373.615 140.142C372.369 139.549 371.063 139.134 369.757 138.6C367.205 137.532 366.256 135.455 367.086 133.141C367.917 130.945 369.698 130.233 372.428 131.242C391.362 138.184 410.474 154.502 405.072 185.595C404.004 191.884 402.461 198.174 401.215 204.464C400.918 205.888 400.799 207.371 400.621 208.855C400.265 212.118 397.594 213.661 394.626 212.237C374.09 202.684 366.077 185.417 365.187 163.996C365.009 160.258 366.612 156.282 367.977 152.663C369.045 149.696 371.182 149.221 374.031 150.408C386.258 155.333 393.499 172.184 388.81 184.526C387.919 186.841 386.258 187.79 383.883 187.078C381.509 186.366 380.678 184.645 381.331 182.212C383.231 174.736 382.162 167.912 376.82 162.038C375.989 161.148 374.98 160.376 373.971 159.486C369.164 171.71 381.153 197.877 393.677 202.328Z" fill="#F79E1B"/>
<path d="M292.539 278.16C292.539 281.424 292.539 284.747 292.539 288.07C292.48 291.511 291.174 293.113 288.503 293.054C285.951 292.994 284.645 291.452 284.645 288.188C284.586 285.043 284.645 281.898 284.645 278.635C283.458 278.457 282.627 278.338 281.737 278.22C279.778 277.923 278.947 278.635 278.888 280.771C278.769 284.509 278.472 288.248 277.76 291.926C277.048 295.843 274.555 298.513 270.46 299.047C267.373 299.462 264.168 299.878 261.082 299.581C256.215 299.166 253.544 296.555 253.544 291.689C253.485 282.729 253.722 273.769 254.197 264.809C254.434 260.122 257.165 257.748 261.854 257.274C264.465 257.036 267.195 257.333 269.807 257.333C275.98 257.333 282.212 257.333 288.562 257.333C287.613 253.891 286.663 250.687 285.951 247.424C285.001 243.27 285.061 239.176 286.96 235.26C288.028 233.005 289.631 231.818 292.183 232.768C294.498 233.658 294.854 235.675 294.26 238.405C293.667 241.134 293.37 244.042 293.845 246.771C294.557 250.806 296.219 254.722 297.287 258.698C298.534 263.326 296.991 265.284 292.242 265.225C283.339 265.165 274.496 265.106 265.593 264.809C262.744 264.691 261.438 265.462 261.438 268.488C261.438 275.49 261.26 282.492 261.141 289.494C261.082 291.155 261.794 291.689 263.397 291.748C270.044 291.986 270.816 291.274 271.053 284.628C271.113 282.136 271.113 279.703 271.409 277.27C271.944 273.117 274.021 270.921 278.116 270.624C284.823 270.209 291.53 269.972 298.237 269.972C300.136 269.972 302.095 270.802 303.876 271.574C306.368 272.642 307.259 274.6 306.962 277.33C306.309 283.382 305.775 289.434 305.241 295.546C305.003 297.86 303.638 299.106 301.442 299.344C299.187 299.581 297.644 298.335 297.644 296.139C297.644 292.045 298 287.892 298.237 283.797C298.237 283.382 298.356 283.026 298.474 282.611C299.246 277.448 298.415 276.736 292.539 278.16Z" fill="#F79E1B"/>
<path d="M330.465 182.924C331.949 181.144 332.899 179.898 333.967 178.771C339.309 173.074 344.532 167.319 350.052 161.86C353.376 158.537 356.937 159.664 357.709 164.293C358.243 167.378 358.421 170.582 358.243 173.727C357.827 180.729 358.718 187.493 361.032 194.08C362.635 198.708 360.676 201.082 355.809 200.013C349.755 198.708 343.82 196.631 337.707 195.563C329.1 194.08 320.435 193.724 311.829 195.682C309.573 196.216 308.149 197.106 307.674 199.539C307.318 201.438 306.605 203.336 305.893 205.176C305.003 207.549 302.866 208.499 300.67 207.668C298.237 206.778 297.762 204.998 298.474 202.684C303.104 187.256 307.674 171.888 312.244 156.46C312.541 155.511 312.778 154.561 313.134 153.612C313.847 151.654 315.212 150.526 317.408 150.645C319.485 150.764 320.435 152.129 321.028 154.027C323.046 160.851 325.124 167.615 327.26 174.38C328.032 176.991 329.219 179.602 330.465 182.924ZM350.052 171.888C345.482 177.228 341.386 182.094 337.172 187.078C342.277 188.324 346.788 189.451 351.18 190.52C350.824 184.645 350.467 178.771 350.052 171.888ZM323.284 186.247C321.147 180.492 319.07 174.914 316.696 168.565C314.737 175.389 313.075 181.263 311.294 187.493C315.508 187.019 319.248 186.663 323.284 186.247Z" fill="#F79E1B"/>
<path d="M177.097 279.406C175.495 279.169 174.011 278.991 172.587 278.754C167.838 277.923 164.93 275.253 164.811 270.506C164.455 256.087 169.441 243.685 179.412 233.242C181.133 231.462 183.092 231.521 184.932 233.183C186.653 234.785 186.653 236.98 184.813 238.879C177.216 246.771 173.417 256.265 172.468 267.064C172.171 270.743 172.646 271.099 176.207 271.336C178.166 271.455 178.641 270.743 178.997 268.963C180.362 262.139 181.905 255.315 183.567 248.492C184.042 246.534 184.754 244.457 187.365 244.101C189.74 243.804 190.927 245.347 192.173 246.949C198.405 254.722 203.272 263.267 206.893 272.523C208.258 276.083 207.427 278.338 203.688 278.872C198.88 279.644 193.894 280 189.027 279.822C186 279.703 184.398 280.296 184.042 283.441C183.923 284.45 183.508 285.459 183.211 286.645C193.598 286.942 203.688 287.179 213.718 287.417C216.567 287.476 219.416 287.476 222.324 287.476C225.589 287.535 227.132 288.782 227.191 291.333C227.251 293.944 225.589 295.368 222.146 295.309C212.056 295.131 202.026 294.893 191.936 294.656C188.968 294.597 186 294.715 183.033 294.656C177.216 294.537 174.13 290.621 175.436 284.984C175.91 283.204 176.504 281.424 177.097 279.406ZM198.583 272.049C195.497 266.53 192.707 261.546 189.977 256.621C189.621 256.74 189.265 256.799 188.909 256.918C188.078 261.843 187.247 266.768 186.356 272.108C190.571 272.049 194.132 272.049 198.583 272.049Z" fill="#F79E1B"/>
<path d="M163.802 143.881C171.459 135.099 172.705 121.392 166.889 111.661C165.405 109.169 165.642 107.033 167.601 105.668C169.5 104.362 171.815 104.956 173.417 107.329C178.819 115.28 179.768 124.122 177.394 133.141C176.029 138.422 173.477 143.347 171.281 148.984C172.23 149.518 173.952 150.289 175.317 151.417C176.326 152.247 177.631 153.671 177.572 154.739C177.453 156.045 176.148 157.291 175.139 158.418C174.664 158.952 173.714 159.071 173.002 159.368C167.719 161.563 162.437 163.699 157.214 165.954C153.415 167.616 149.736 169.574 145.878 171.057C142.969 172.184 140.833 170.701 140.358 167.556C140.12 166.013 139.883 164.411 139.883 162.869C140.002 155.985 139.052 149.34 137.212 142.694C136.44 139.905 136.44 136.82 136.737 133.912C136.975 131.005 139.408 129.699 142.138 130.767C144.809 131.776 147.361 133.081 150.21 134.387C152.763 128.572 153.475 122.816 150.388 117.06C148.905 114.272 146.946 111.779 145.047 109.287C143.088 106.676 142.969 104.481 145.047 102.82C146.887 101.277 148.726 101.692 150.923 104.006C160.004 113.5 162.378 124.418 157.748 136.76C157.095 138.54 157.214 139.668 158.935 140.617C160.3 141.389 161.487 142.457 162.793 143.347C163.09 143.584 163.387 143.703 163.802 143.881ZM145.225 140.439C146.234 147.975 147.124 154.858 148.074 162.038C153.297 159.308 158.46 156.638 164.099 153.731C157.57 149.102 151.457 144.771 145.225 140.439Z" fill="#F79E1B"/>
<path d="M346.966 50.3657C353.139 50.5437 359.549 52.0865 363.347 59.0289C363.644 59.6223 365.069 59.8596 366.018 59.8003C369.461 59.741 372.903 59.1476 376.346 59.5036C384.358 60.3343 388.81 64.6659 390.472 72.4391C393.736 87.8667 384.655 104.956 370.054 111.008C366.671 112.432 364.831 111.957 363.822 109.525C362.813 107.033 363.882 105.134 367.146 103.71C378.304 98.9033 385.071 86.2646 382.875 74.3379C382.103 70.0656 380.263 68.0481 375.99 67.2768C374.268 66.9801 372.428 66.8614 370.707 66.9801C365.722 67.2174 363.882 68.7008 362.576 73.5665C361.686 76.83 361.151 80.0935 360.32 83.3571C359.608 86.2646 357.887 87.392 355.453 86.7986C353.02 86.2052 351.952 84.3658 352.723 81.5176C354.029 76.5926 355.394 71.6677 356.878 66.7427C357.65 64.2506 356.284 61.1057 353.495 59.6223C347.322 56.2401 338.716 58.3169 334.799 64.1319C330.703 70.2436 330.169 76.9487 332.246 83.7131C333.79 88.7567 336.164 93.563 338.36 98.4286C339.369 100.683 339.606 102.642 337.41 104.184C335.511 105.49 333.433 105.49 332.246 103.472C326.608 93.6224 321.385 83.5351 323.64 71.6677C324.352 67.8701 325.836 64.0132 327.736 60.6904C331.831 53.3919 337.707 50.3657 346.966 50.3657Z" fill="#F79E1B"/>
<path d="M287.91 133.378C289.809 124.537 291.589 116.052 293.429 107.626C293.607 106.676 293.904 105.727 294.26 104.778C295.151 102.463 296.931 101.633 299.246 102.404C301.442 103.116 302.273 104.778 301.739 107.092C300.433 112.373 299.068 117.594 297.94 122.875C297.347 125.486 297.109 128.156 296.812 130.767C296.338 135.514 296.397 135.514 301.976 136.167C302.629 132.369 303.223 128.512 303.875 124.655C304.647 120.324 306.012 118.84 308.742 119.434C311.532 120.027 312.363 122.045 311.591 126.08C309.989 134.327 308.327 142.516 306.843 150.764C304.706 163.106 300.433 174.736 295.982 186.366C294.794 189.392 293.904 192.537 292.895 195.622C291.886 198.767 290.402 199.954 287.91 199.301C285.179 198.649 282.983 195.741 283.399 193.249C283.695 191.528 284.17 189.807 284.586 188.027C287.613 174.024 286.782 160.436 280.49 147.322C279.422 145.127 278.71 142.694 278.413 140.32C277.938 135.811 280.194 133.497 284.764 133.378C285.892 133.378 287.079 133.378 287.91 133.378ZM293.667 167.853C294.023 167.853 294.379 167.912 294.735 167.912C296.575 160.139 298.415 152.366 300.314 144.237C295.566 143.169 291.352 142.219 287.138 141.21C286.901 141.448 286.663 141.685 286.485 141.923C291.53 149.874 292.955 158.774 293.667 167.853Z" fill="#F79E1B"/>
<path d="M204.222 92.1983C203.213 92.9103 202.619 93.3257 201.966 93.8004C199.829 95.2838 197.633 95.1651 196.209 93.2663C194.666 91.2489 195.081 89.4095 196.921 87.8074C201.669 83.6538 207.189 81.577 213.421 81.3396C215.914 81.221 217.398 82.4077 217.517 84.9592C217.576 87.392 216.389 88.8161 213.896 89.1128C213.124 89.1721 212.412 89.3501 211.344 89.5875C212.294 92.495 213.184 95.1651 213.896 97.3013C220.069 96.6486 225.826 95.5805 231.583 95.5805C242.504 95.5805 252.416 98.9034 260.666 106.202C264.702 109.821 267.729 114.153 269.688 119.256C270.46 121.333 270.163 122.994 268.085 124.003C266.067 124.952 264.228 124.537 262.803 122.757C262.684 122.579 262.566 122.401 262.506 122.223C255.859 106.914 242.86 102.582 227.844 103.413C194.784 105.252 184.694 139.252 196.743 160.317C198.346 163.047 198.049 164.886 195.912 166.191C193.657 167.556 191.52 166.785 189.799 164.055C180.658 149.221 182.38 126.554 194.191 112.373C197.337 108.575 201.491 105.49 205.349 102.345C206.596 101.336 207.249 100.624 206.596 99.022C205.705 97.0046 205.112 94.8091 204.222 92.1983Z" fill="#F79E1B"/>
<path d="M111.334 119.137C103.974 119.968 97.0299 120.739 90.0855 121.511C86.9992 121.867 85.0405 120.561 84.8031 118.188C84.5657 115.755 86.0495 114.212 89.2546 113.797C93.8841 113.263 98.4543 112.848 103.084 112.254C104.746 112.076 106.348 111.601 108.01 111.127C112.224 109.94 115.845 108.101 117.388 103.472C118.1 101.455 119.465 99.7341 120.949 97.1826C119.406 97.776 118.456 98.0726 117.507 98.4287C108.663 101.87 99.5227 103.65 90.0262 103.71C87.8301 103.71 86.1089 103.116 85.3967 100.861C84.5657 98.132 86.3463 96.1739 89.5514 95.8179C94.7744 95.3432 99.9975 95.0465 105.102 94.0377C115.192 91.9609 124.273 87.392 132.582 81.2803C133.532 80.5683 134.6 79.6782 135.609 79.6189C136.856 79.5595 138.577 79.9155 139.23 80.8056C139.942 81.755 140.417 83.9505 139.823 84.7812C131.989 95.5805 133.532 107.804 134.244 119.909C134.304 120.502 134.304 121.095 134.363 121.689C134.482 124.003 133.532 125.546 131.099 125.842C128.724 126.139 126.825 124.715 126.588 122.223C126.232 117.713 126.113 113.144 125.935 108.635C125.875 107.685 125.935 106.677 125.401 105.43C124.866 106.261 124.214 107.033 123.917 107.923C121.839 113.856 119.821 119.849 117.863 125.842C116.913 128.691 115.251 129.937 112.936 129.225C110.622 128.513 109.553 126.91 110.088 124.478C110.444 122.697 110.918 120.917 111.334 119.137Z" fill="#F79E1B"/>
<path d="M23.4914 187.375C22.0076 189.096 20.5238 190.757 18.5651 193.012C20.6425 193.961 22.3044 194.911 24.085 195.504C26.9339 196.453 28.2397 198.055 27.6461 200.37C27.0526 202.802 25.0346 203.989 22.067 202.98C19.218 202.031 16.4878 200.607 13.2233 199.183C11.5021 200.963 9.42474 203.158 6.93191 205.769C10.5525 207.253 13.7575 208.677 17.0219 209.923C22.0076 211.881 22.6011 213.008 20.5238 217.874C18.7432 222.146 16.8439 226.359 15.0039 230.631C14.5885 231.64 14.2917 232.768 13.8762 233.836C14.4104 233.954 14.6478 234.132 14.7665 234.073C17.2594 233.064 19.5148 233.242 20.7612 235.912C21.7702 238.049 20.1083 241.371 17.4968 242.439C14.5291 243.745 11.9769 242.736 9.48409 240.956C8.5938 240.303 7.22868 239.947 6.16032 240.066C2.48043 240.481 -0.48723 239.295 -2.20847 236.328C-4.04842 233.242 -3.63295 230.335 -1.25882 229.089C1.1153 227.843 2.77719 228.733 4.97326 232.886C8.29703 227.546 9.89957 222.028 12.5111 216.628C9.18733 215.204 6.21967 213.958 3.25202 212.593C-2.86135 209.745 -3.6923 206.185 0.581127 201.022C2.77719 198.352 5.15132 195.86 7.52544 193.19C5.56679 190.342 -0.724643 188.858 3.66749 184.171C7.34738 180.254 9.72151 185.595 13.0453 186.781C14.4104 185.298 15.8349 183.755 17.5561 181.856C16.0723 180.848 14.8852 179.958 13.5795 179.186C11.3834 177.881 10.8492 176.041 12.0956 173.905C13.2827 171.829 15.3007 171.176 17.4374 172.363C19.3367 173.371 21.058 174.736 23.076 176.16C24.3224 175.092 25.5688 173.905 26.9339 172.778C29.0706 171.057 31.326 171.176 32.9879 173.075C34.5905 174.914 34.3531 176.575 32.0976 178.652C31.2073 179.483 30.2577 180.373 28.9519 181.619C30.9699 182.568 32.5131 183.34 34.0563 184.052C36.4304 185.12 37.3801 187.078 36.4898 189.333C35.5401 191.706 33.5815 192.359 31.3854 191.41C28.7739 190.342 26.281 188.858 23.4914 187.375Z" fill="#F79E1B"/>
<path d="M287.079 19.9258C291.233 24.3761 295.388 28.767 299.78 33.514C305.834 28.4704 311.473 23.7234 317.171 19.0358C321.563 15.3569 325.955 11.7373 330.406 8.1178C332.009 6.81238 333.908 5.98167 335.807 7.58376C337.766 9.2452 337.588 11.322 336.638 13.5175C330.703 26.6309 324.827 39.8037 318.951 52.9172C317.645 55.884 315.687 56.8928 313.491 55.9434C311.176 54.9346 310.523 52.8578 311.769 49.9503C314.856 42.7706 318.002 35.6501 321.088 28.5297C321.444 27.6396 321.8 26.7496 322.572 25.0288C315.865 30.4878 309.811 35.2941 303.935 40.2784C300.136 43.4826 299.246 43.6606 295.922 40.1004C289.334 33.158 282.746 26.2749 276.336 19.1545C275.267 17.9677 274.674 15.6536 275.089 14.1702C275.327 13.1021 277.582 11.9154 278.947 11.9154C288.206 11.7373 297.465 11.856 306.784 11.9154C309.158 11.9154 310.345 13.5768 310.345 15.8316C310.286 18.2644 308.921 19.7478 306.428 19.6885C301.383 19.5698 296.338 19.3325 291.352 19.1545C290.106 19.0951 288.859 19.1545 287.613 19.1545C287.316 19.3918 287.197 19.6292 287.079 19.9258Z" fill="#F79E1B"/>
<path d="M392.965 34.048C386.554 33.158 381.094 34.3447 376.346 39.8037C378.601 40.8718 380.797 41.9399 383.053 42.8893C383.824 43.2453 384.833 43.1859 385.605 43.542C387.563 44.4914 388.216 46.1528 387.801 48.2296C387.326 50.3657 385.724 51.4338 383.824 50.8404C380.204 49.713 376.702 48.1702 373.2 46.6868C372.132 46.2121 371.301 45.3221 370.173 44.432C368.986 45.5594 367.858 46.6275 366.671 47.6362C364.831 49.2976 362.873 49.357 361.151 47.5769C359.371 45.8561 359.193 43.6013 361.211 42.1772C364.831 39.5664 365.128 36.9556 363.11 33.0987C362.042 31.0812 362.042 28.2924 361.982 25.9189C361.923 23.2487 363.822 21.528 366.256 21.6466C369.045 21.7653 369.758 23.4861 369.876 26.0376C369.995 28.233 370.588 30.4285 371.123 33.158C373.853 31.3186 376.049 29.9538 378.186 28.411C378.542 28.1737 378.72 27.4023 378.72 26.8683C378.601 23.7234 378.423 20.6379 378.186 16.959C376.642 16.7217 374.624 16.3063 372.666 16.247C367.324 16.1876 361.982 16.3063 356.7 16.3063C353.317 16.3063 351.595 15.0009 351.655 12.3307C351.714 9.83858 353.317 8.41449 356.522 8.47383C363.941 8.5925 371.301 8.65184 378.66 9.00786C380.857 9.12654 383.112 9.95725 385.189 10.8473C387.504 11.7967 388.394 13.6361 387.445 16.1283C386.851 17.7897 386.258 19.5105 385.961 21.2313C385.249 25.2662 386.495 26.6309 390.531 26.2749C392.074 26.1562 393.618 25.7409 395.161 25.4442C399.197 24.6135 400.918 25.9782 401.037 30.0725C401.096 32.5646 400.918 34.9974 400.977 37.4896C401.096 43.72 401.333 49.891 401.511 56.1214C401.511 56.7148 401.63 57.3081 401.511 57.9015C401.096 60.0376 399.672 61.1057 397.594 61.2837C395.398 61.4617 394.152 60.2156 394.033 58.1982C393.618 53.2139 393.321 48.1702 393.143 43.1266C392.846 40.1004 392.965 37.0742 392.965 34.048Z" fill="#F79E1B"/>
<path d="M-4.22653 224.638C-4.22653 230.869 -4.22653 236.624 -4.22653 241.609C0.877836 243.567 5.56673 245.169 10.1369 247.127C12.8672 248.314 13.5201 250.153 12.3923 252.289C11.2053 254.485 9.12792 255.078 6.57574 253.832C3.25196 252.171 0.0468931 250.153 -3.87041 250.509C-4.82006 255.316 -4.76071 255.494 -0.546638 256.858C7.34733 259.41 11.6801 265.581 11.0866 273.295C10.6117 279.347 7.52538 282.907 1.59007 284.153C-0.0124607 284.509 -1.67435 284.687 -3.45494 284.925C-3.45494 286.349 -3.45494 287.713 -3.45494 289.553C-0.605992 289.553 2.0649 289.553 4.79514 289.553C8.05956 289.612 9.6621 290.918 9.60275 293.41C9.54339 295.961 8.00021 297.148 4.67644 297.148C0.937189 297.148 -2.80206 297.207 -6.60066 297.148C-9.80573 297.089 -11.1708 295.902 -11.2896 292.757C-11.4083 288.722 -11.4676 284.687 -11.4083 280.593C-11.3489 277.686 -9.98378 276.617 -7.01613 276.736C-4.93877 276.855 -2.86141 277.033 -0.843404 276.855C2.24296 276.558 3.48937 274.956 3.43002 271.93C3.37067 267.658 0.343658 264.453 -4.16718 263.86C-5.05748 263.741 -5.94777 263.801 -6.83807 263.741C-11.0521 263.563 -11.9424 262.733 -11.9424 258.638C-11.9424 245.703 -12.0018 232.767 -11.8831 219.891C-11.8237 214.254 -9.21219 212.949 -4.22653 215.619C-1.91176 216.865 0.403012 218.289 2.71778 219.535C4.49838 220.485 5.44803 221.849 4.61708 223.867C3.66743 226.062 1.94619 227.071 -0.368579 226.418C-1.49629 226.003 -2.56464 225.35 -4.22653 224.638Z" fill="#F79E1B"/>
<path d="M32.3348 68.6414C29.3078 73.8631 26.1027 78.5507 23.7286 83.5943C19.1584 93.2662 15.3004 103.176 14.2914 113.975C14.1727 115.399 12.9263 117.357 11.7393 117.772C10.4335 118.247 8.23742 117.713 6.99101 116.823C2.71758 113.678 -1.49649 110.355 -5.47315 106.795C-13.2484 99.912 -12.6549 96.6485 -3.15838 92.6729C-2.50549 92.4355 -1.91196 92.1389 -1.08102 91.7235C-1.49649 89.8841 -1.85261 88.0446 -2.26808 86.2645C-2.86161 83.9503 -1.97132 82.3483 0.224751 81.6362C2.59888 80.9242 4.32012 81.8736 5.09171 84.247C5.62589 86.0271 6.04136 87.8073 6.51618 89.5874C11.858 89.9434 12.3328 89.2907 14.5289 85.0184C17.8526 78.432 21.4732 71.9643 25.3311 65.6746C26.6962 63.4198 28.9517 61.521 31.0884 59.8002C33.2251 58.0794 35.5992 58.4355 36.9643 60.7496C41.7126 68.4634 47.4105 75.3465 54.2954 81.2208C56.0167 82.7043 56.0167 84.5437 54.4735 86.1458C52.871 87.8666 50.7936 88.3413 48.8943 86.7392C45.986 84.247 43.1371 81.5769 40.5849 78.7287C37.8546 75.7619 35.3618 72.3796 32.3348 68.6414ZM7.28777 107.27C8.17807 103.71 8.94966 100.802 9.83996 97.3012C5.92265 98.3099 2.59888 99.1999 -1.55584 100.268C1.76793 102.879 4.32012 104.837 7.28777 107.27Z" fill="#F79E1B"/>
<path d="M122.492 291.867C128.546 292.045 134.126 292.223 139.705 292.342C141.367 292.401 143.088 292.282 144.75 292.401C147.124 292.579 148.37 294.003 148.37 296.258C148.37 298.513 147.183 300.115 144.75 300.115C136.144 299.996 127.597 299.759 118.99 299.462C116.498 299.403 115.073 297.741 115.251 295.368C115.548 291.036 113.53 288.722 109.85 286.467C102.015 281.602 99.2259 273.235 101.541 264.275C103.618 256.324 110.088 251.103 119.406 250.331C122.196 250.094 123.501 249.144 124.036 246.593C124.273 245.525 124.748 244.516 125.282 243.626C126.41 241.846 128.012 241.015 130.09 241.965C132.108 242.914 132.879 244.516 132.286 246.83C129.199 259.291 126.172 271.693 123.264 284.213C122.789 286.527 122.789 289.019 122.492 291.867ZM116.142 280.89C117.685 273.354 119.169 265.937 120.712 258.401C114.42 258.401 110.088 261.724 109.019 267.064C107.773 273.413 110.266 278.398 116.142 280.89Z" fill="#F79E1B"/>
<path d="M344.235 111.067C345.244 107.507 346.313 104.125 347.203 100.683C347.381 100.09 347.144 99.0219 346.669 98.6659C338.241 92.0202 337.588 83.001 338.775 73.4477C338.953 71.905 339.369 70.3622 339.962 68.8788C340.852 66.624 343.167 65.6746 345.304 66.5646C347.559 67.4547 348.034 69.1161 347.322 71.3709C345.779 75.9992 345.897 80.6868 347.025 85.3744C348.272 90.5368 350.171 92.4355 354.504 92.9102C359.608 93.4443 364.356 91.1895 366.018 86.9172C367.027 84.3657 367.383 81.5769 367.917 78.9067C368.452 76.0585 369.995 74.5751 372.369 74.8718C374.684 75.1685 376.049 77.0673 375.574 79.9748C375.158 82.823 374.624 85.6118 373.793 88.3413C371.419 95.8771 365.84 99.6746 358.243 100.505C355.869 100.802 354.741 101.692 354.266 103.888C354.029 105.252 353.435 106.498 353.079 107.863C352.129 111.067 351.892 113.619 355.572 115.814C359.667 118.247 362.219 127.029 360.498 131.361C360.023 132.547 358.005 133.853 356.759 133.853C355.513 133.793 354.147 132.31 353.138 131.123C352.664 130.589 352.96 129.402 352.901 128.512C352.664 123.469 351.417 121.451 347.441 120.027C341.743 117.95 336.935 118.662 334.027 122.045C333.196 122.994 332.543 124.121 331.89 125.19C330.584 127.326 328.863 127.978 326.608 126.792C324.471 125.664 323.877 123.469 325.124 121.214C328.626 114.865 333.789 111.067 341.268 111.008C342.396 111.067 343.345 111.067 344.235 111.067Z" fill="#F79E1B"/>
<path d="M148.489 17.9677C152.644 21.9433 156.383 25.5035 160.597 29.5384C162.912 26.4529 165.167 23.5454 167.423 20.5785C169.5 17.7897 171.399 14.8822 173.655 12.3307C174.486 11.322 176.148 10.6099 177.453 10.5506C182.973 10.4319 188.493 10.5506 194.013 10.6099C197.574 10.6693 199.177 11.856 199.117 14.4668C199.058 17.0776 197.515 18.205 193.894 18.205C189.858 18.205 185.822 18.205 181.727 18.205C177.928 18.205 177.928 18.205 175.732 22.24C178.64 22.24 181.193 22.24 183.745 22.24C185.941 22.24 188.078 22.1806 190.274 22.2993C192.588 22.418 193.894 23.8421 193.835 26.1562C193.775 28.5297 192.47 29.8351 190.096 29.8351C184.279 29.8944 178.462 29.7164 172.646 29.9538C171.34 30.0131 169.915 31.0218 168.728 31.8525C167.957 32.3866 167.423 33.336 166.77 34.048C162.2 38.8543 158.698 38.617 154.009 34.048C148.904 29.123 143.444 24.5541 138.162 19.8665C136.915 18.7391 135.491 17.7304 134.482 16.4249C132.464 13.7548 133.947 10.2539 137.271 10.1352C146.174 9.89788 155.018 9.89788 163.921 10.0165C165.108 10.0165 166.888 11.2033 167.304 12.2714C167.719 13.4581 167.304 15.4162 166.532 16.5436C165.345 18.3237 163.624 19.7478 162.021 21.1719C160.063 22.8927 156.798 22.7147 156.264 20.5192C155.315 16.959 152.94 17.7304 150.566 17.671C150.032 17.7304 149.557 17.849 148.489 17.9677Z" fill="#F79E1B"/>
<path d="M260.192 157.884C259.776 160.732 260.666 164.708 256.096 164.649C250.814 164.53 252.654 159.902 251.882 156.697C245.828 156.223 240.19 157.172 234.314 160.139C235.797 161.266 236.925 162.038 237.994 162.987C239.774 164.53 240.486 166.31 239.062 168.446C237.756 170.345 235.56 170.642 233.364 169.218C231.821 168.209 230.278 167.141 228.734 166.132C225.529 170.642 225.707 179.068 228.972 183.28C231.109 186.01 231.049 188.027 228.913 189.629C226.776 191.172 224.698 190.638 222.621 187.968C215.499 178.889 218.407 161.682 228.319 154.917C237.163 148.924 247.075 148.153 257.343 149.28C259.479 149.518 261.616 149.992 263.693 150.645C275.623 154.383 281.381 165.835 277.345 177.703C275.92 181.916 273.309 185.12 269.213 187.019C266.899 188.087 265.059 187.375 263.99 185.298C262.862 183.221 263.693 181.5 265.593 180.254C270.341 177.109 271.706 173.074 270.282 166.963C269.095 161.978 265.415 158.656 260.192 157.884Z" fill="#F79E1B"/>
<path d="M309.514 100.921C301.917 99.2593 294.616 97.7166 287.316 96.1145C285.476 95.6991 285.179 96.8265 284.882 98.2506C283.992 103.294 283.042 108.338 282.093 113.382C281.915 114.45 281.618 115.518 281.202 116.526C280.312 118.603 278.591 119.197 276.573 118.662C274.436 118.128 273.368 116.645 273.783 114.45C275.208 107.092 276.751 99.7934 278.294 92.4356C278.413 91.7829 278.71 91.1302 278.947 90.4774C284.051 76.1772 300.492 72.0237 311.829 82.1109C315.508 85.3745 317.823 89.5281 317.526 94.3344C317.17 99.9714 315.983 105.608 314.856 111.186C314.381 113.441 312.422 114.212 310.226 113.56C308.03 112.907 306.962 111.305 307.496 109.05C308.03 106.498 308.742 103.947 309.514 100.921ZM309.751 93.0289C307.733 87.748 303.994 85.7898 299.483 84.8998C295.506 84.0691 291.945 84.7811 288.859 88.282C295.922 89.8841 302.51 91.3675 309.751 93.0289Z" fill="#F79E1B"/>
<path d="M261.438 245.288C264.703 245.288 267.611 245.288 270.519 245.288C271.231 240.719 271.825 236.328 272.537 231.937C274.496 220.9 281.262 213.186 290.224 207.075C292.183 205.71 294.023 206.125 295.507 207.846C296.931 209.507 296.634 211.347 295.21 212.949C294.735 213.483 294.201 213.898 293.607 214.254C283.517 220.425 279.897 230.097 279.066 241.253C278.888 243.567 279.007 245.94 279.244 248.314C279.481 251.162 278.235 253.001 275.386 253.12C269.154 253.357 262.981 253.595 256.749 253.595C252.12 253.595 250.636 250.747 252.773 246.712C253.247 245.822 253.425 244.694 253.544 243.626C254.197 237.574 255.74 231.818 258.708 226.478C260.192 223.808 262.032 223.036 264.228 224.104C266.542 225.291 267.136 227.368 265.652 230.097C263.219 234.785 261.735 239.769 261.438 245.288Z" fill="#F79E1B"/>
<path d="M153.356 182.094C156.442 186.603 156.62 186.781 160.953 184.645C167.244 181.56 173.477 178.355 179.768 175.329C181.905 174.321 184.16 173.609 186.475 172.956C188.612 172.362 190.155 173.371 190.867 175.389C191.579 177.406 191.045 179.186 189.086 180.136C179.234 184.705 169.441 189.273 159.529 193.724C155.314 195.623 154.78 195.385 151.575 192.003C149.854 190.223 148.014 188.561 146.471 186.663C143.563 183.102 143.978 179.364 147.599 176.575C149.379 175.211 151.457 174.261 153.534 173.312C161.547 169.633 169.559 166.073 177.572 162.453C180.362 161.207 182.439 161.622 183.685 163.877C184.932 166.132 184.16 168.031 181.133 169.455C173.18 173.134 165.108 176.694 157.095 180.314C155.849 180.907 154.602 181.5 153.356 182.094Z" fill="#F79E1B"/>
<path d="M391.778 115.636C393.261 115.28 395.22 114.924 397.119 114.39C399.553 113.738 401.274 114.568 401.927 116.942C402.58 119.315 401.69 121.095 399.315 121.807C397.179 122.46 394.923 122.935 392.787 123.469C395.398 126.673 398.128 129.818 400.562 133.081C402.639 135.93 402.402 138.066 400.206 139.43C398.01 140.795 395.814 140.202 394.092 137.294C389.344 129.58 382.519 125.605 373.497 125.368C372.725 125.368 371.657 125.546 371.182 125.13C369.876 124.062 368.274 122.935 367.918 121.511C367.68 120.561 368.986 118.603 370.054 117.891C373.497 115.814 377.295 114.331 380.857 112.313C387.267 108.694 392.787 104.244 394.389 96.4111C394.805 94.275 396.704 93.5036 398.781 93.8597C401.096 94.275 402.046 95.9958 401.808 98.2506C401.333 102.701 399.315 106.498 396.407 109.881C394.864 111.898 393.261 113.797 391.778 115.636Z" fill="#F79E1B"/>
<path d="M342.099 211.703C340.793 214.492 339.665 216.628 342.099 219.12C342.811 219.891 342.455 222.621 341.624 223.808C340.496 225.469 338.419 225.35 336.579 224.223C335.095 223.274 333.611 222.205 331.95 221.731C329.397 220.959 327.023 220.188 327.379 216.984C327.735 213.958 330.11 213.424 332.899 213.542C333.374 212.237 333.849 210.872 334.62 208.855C330.406 208.38 326.667 207.787 322.869 207.549C319.07 207.312 317.527 206.244 317.586 203.514C317.705 200.844 319.485 199.123 323.106 199.717C329.694 200.725 336.401 201.794 342.692 203.811C350.705 206.363 358.302 210.279 364.356 216.272C367.621 219.535 370.114 223.689 372.666 227.605C373.853 229.504 373.378 231.462 371.182 232.589C369.105 233.657 366.612 232.945 365.662 230.75C361.151 220.188 351.595 216.212 342.099 211.703Z" fill="#F79E1B"/>
<path d="M125.579 220.841C121.78 218.289 118.1 215.797 114.421 213.364C111.868 211.703 111.275 209.863 112.521 207.727C113.827 205.532 116.023 205.116 118.635 206.778C121.009 208.321 123.264 210.101 125.638 211.703C126.766 212.474 128.012 213.008 129.318 213.661C131.396 210.753 133.354 208.083 135.491 205.116C133.236 202.565 130.921 199.895 128.547 197.343C126.588 195.207 126.232 193.13 127.894 191.35C129.437 189.63 131.811 189.63 133.948 191.647C135.669 193.249 137.153 195.089 138.637 196.928C140.299 198.945 141.901 199.835 144.275 197.877C146.234 196.275 148.371 196.335 149.973 198.53C151.398 200.488 151.338 202.624 149.202 203.93C140.002 209.685 135.135 218.645 130.98 228.08C130.624 228.911 130.327 229.741 129.912 230.513C128.843 232.589 127.182 233.658 124.807 232.767C122.611 231.937 121.899 229.86 122.849 227.368C123.68 225.232 124.689 223.036 125.579 220.841Z" fill="#F79E1B"/>
<path d="M12.6889 135.396C13.5198 140.202 14.5288 145.008 15.1817 149.874C15.3597 151.179 15.1223 153.078 14.3507 153.79C13.4011 154.621 11.5611 154.561 10.0773 154.799C9.66184 154.858 9.12766 154.502 8.71219 154.265C2.89559 151.12 -2.92102 148.094 -8.61892 144.83C-12.7736 142.397 -13.0704 139.371 -9.2718 136.464C-4.28614 132.666 0.936934 129.046 6.21936 125.605C9.72119 123.291 13.1637 125.427 13.2824 129.64C13.3417 131.539 13.2824 133.378 13.2824 135.277C13.045 135.336 12.8669 135.396 12.6889 135.396ZM5.21036 135.396C2.83624 137.057 1.05564 138.303 -1.08107 139.786C1.41176 140.914 3.37041 141.804 5.68518 142.813C5.50712 140.38 5.38842 138.244 5.21036 135.396Z" fill="#F79E1B"/>
<path d="M394.745 230.335C396.169 232.174 397.95 234.904 400.087 237.277C401.748 239.117 402.342 240.719 400.68 242.736C399.078 244.635 396.466 244.872 394.685 242.914C392.549 240.6 390.412 238.167 389.047 235.378C383.943 224.935 376.583 216.45 367.62 209.27C365.068 207.253 364.593 205.116 366.137 203.218C367.739 201.2 370.113 201.022 372.547 203.396C378.007 208.677 383.29 214.136 388.513 219.654C390.828 222.146 392.846 222.205 394.982 219.535C395.754 218.586 396.763 217.399 397.772 217.221C398.959 217.043 400.858 217.459 401.392 218.289C402.164 219.417 402.639 221.671 401.986 222.561C400.146 225.113 397.653 227.249 394.745 230.335Z" fill="#F79E1B"/>
<path d="M88.8985 241.431C87.7115 245.347 86.7025 248.848 85.6341 252.289C84.7438 255.137 82.9632 256.206 80.5891 255.493C78.3337 254.841 77.4434 253.001 78.2743 250.272C80.1736 243.745 82.0729 237.218 84.3283 230.809C84.8625 229.326 86.5838 227.842 88.1269 227.308C90.0856 226.596 91.154 228.436 92.0442 230.097C94.2997 234.37 96.6144 238.523 98.8699 242.795C101.956 241.371 104.449 240.007 107.12 239.057C109.138 238.345 111.275 237.87 113.411 237.633C115.489 237.396 117.032 238.76 117.091 240.659C117.091 242.024 116.082 244.457 115.133 244.694C109.613 245.94 104.865 248.551 100.235 251.577C99.3447 252.171 96.5551 251.103 95.4867 250.034C93.1126 247.542 91.2727 244.575 88.8985 241.431Z" fill="#F79E1B"/>
<path d="M334.502 47.1616C331.831 47.4583 330.05 45.5595 330.406 42.8893C330.644 41.2279 331 39.5665 331.712 38.083C333.968 33.5141 336.342 28.9451 338.835 24.4949C339.606 23.1301 340.734 21.9434 341.921 20.9347C344.236 18.9765 346.491 19.2732 348.212 21.706C349.577 23.7235 350.646 25.9783 351.833 28.1144C353.317 30.7846 354.919 33.3361 356.225 36.0656C356.997 37.6677 357.887 39.5665 357.768 41.2872C357.709 42.474 356.106 44.3134 354.979 44.4914C348.212 45.6188 341.327 46.3309 334.502 47.1616ZM344.532 30.4286C342.989 33.3361 341.802 35.5909 340.259 38.4391C343.167 38.0237 345.185 37.727 347.619 37.371C346.55 35.0568 345.719 33.1581 344.532 30.4286Z" fill="#F79E1B"/>
<path d="M332.721 283.797C329.101 283.797 326.074 283.678 323.047 283.856C322.275 283.916 321.207 284.806 320.91 285.518C319.96 288.129 319.367 290.799 318.595 293.469C317.764 296.377 316.102 297.504 313.728 296.911C311.354 296.258 310.345 294.418 310.998 291.57C312.007 287.179 312.957 282.788 313.966 278.398C314.559 276.083 316.162 274.778 318.536 275.253C324.056 276.38 329.397 276.677 334.799 274.422C336.995 273.532 339.25 275.134 339.844 277.745C340.912 282.848 341.862 287.951 342.811 293.054C343.286 295.546 342.158 297.148 339.784 297.623C337.291 298.157 335.808 296.792 335.273 294.478C334.324 290.918 333.493 287.298 332.721 283.797Z" fill="#F79E1B"/>
<path d="M338.181 152.069C341.327 148.984 343.939 146.254 346.669 143.762C348.212 142.397 349.933 141.151 351.714 140.142C353.791 138.956 355.572 139.668 356.759 141.626C357.887 143.465 357.59 145.127 355.928 146.67C351.358 150.882 346.847 155.095 342.336 159.368C341.446 160.198 340.674 161.088 339.784 161.8C337.232 163.818 334.561 163.403 333.255 160.436C331.949 157.469 331.118 154.324 329.991 151.238C328.388 146.907 326.904 142.516 325.124 138.303C324.233 136.167 324.233 134.446 326.192 133.141C328.21 131.835 330.465 131.954 331.653 134.09C333.374 137.176 334.62 140.498 335.867 143.821C336.816 146.313 337.35 148.984 338.181 152.069Z" fill="#F79E1B"/>
<path d="M392.371 295.724C392.133 296.851 391.955 298.216 391.599 299.522C390.946 301.717 389.463 302.904 387.148 302.37C384.892 301.895 383.646 300.412 384.121 298.038C384.952 294.003 385.901 289.968 386.851 285.933C388.097 280.593 388.335 275.609 383.765 271.455C382.162 270.031 382.578 268.132 384.061 266.708C385.783 265.047 387.801 264.809 389.641 266.412C393.261 269.438 395.101 273.354 395.398 278.042C395.517 280 395.339 281.958 395.22 283.975C395.042 286.883 396.763 288.96 399.612 288.96C402.224 289.019 403.826 290.206 403.945 292.757C404.063 295.487 402.164 296.733 399.79 296.733C397.416 296.792 395.101 296.139 392.371 295.724Z" fill="#F79E1B"/>
<path d="M90.7977 291.748C89.7887 289.672 88.8391 288.069 88.1268 286.408C87.1772 284.213 87.9488 282.432 89.9074 281.424C91.9848 280.356 93.6467 281.127 95.0118 282.966C97.6827 286.349 100.532 289.494 103.084 292.994C103.915 294.181 104.686 296.199 104.212 297.385C103.737 298.572 101.778 299.818 100.472 299.818C93.1718 299.878 85.8714 299.64 78.571 299.403C75.8407 299.343 74.3569 297.801 74.4756 295.427C74.6537 292.935 76.1375 291.748 78.571 291.808C80.5296 291.808 82.4883 291.867 84.5063 291.867C86.5243 291.748 88.4829 291.748 90.7977 291.748Z" fill="#F79E1B"/>
<path d="M109.553 14.4076C111.096 11.9748 112.284 9.9573 113.589 7.99918C114.954 5.92238 116.794 5.38835 118.931 6.69376C120.949 7.93984 121.246 9.83862 120.059 11.7967C118.1 15.1196 116.141 18.4425 113.886 21.528C111.512 24.7915 107.832 25.1476 105.399 21.9434C102.668 18.3831 100.591 14.2889 98.6323 10.254C98.2762 9.4826 99.582 7.40581 100.65 6.63443C102.372 5.38835 104.33 5.92238 105.577 7.70249C106.942 9.71995 108.069 11.9154 109.553 14.4076Z" fill="#F79E1B"/>
<path d="M-8.322 120.799C-9.98389 119.315 -11.4677 118.188 -12.7735 116.823C-14.4947 114.984 -14.376 113.025 -12.5954 111.364C-10.8742 109.762 -8.97489 109.881 -7.313 111.542C-4.82017 114.094 -2.38669 116.526 1.23385 117.594C3.66733 118.306 4.14215 121.57 2.48026 123.528C1.70867 124.418 0.640319 125.012 -0.309331 125.664C-2.56475 127.207 -4.93887 128.572 -7.07559 130.293C-8.85618 131.657 -10.4587 131.835 -12.1206 130.352C-13.6638 128.928 -14.0793 127.029 -12.7735 125.308C-11.7051 123.825 -10.2213 122.638 -8.322 120.799Z" fill="#F79E1B"/>
<path d="M315.152 213.246C317.705 213.246 319.426 214.136 319.723 216.509C320.019 218.705 318.951 220.129 316.696 220.9C310.76 223.036 304.944 225.291 299.127 227.665C296.219 228.851 293.548 228.199 293.014 225.41C292.776 224.282 293.192 222.265 293.963 221.731C300.552 217.518 307.615 214.254 315.152 213.246Z" fill="#F79E1B"/>
<path d="M43.0777 290.384C46.4015 290.384 49.7846 290.324 53.1084 290.384C56.0167 290.443 57.5599 291.926 57.4412 294.419C57.2631 297.089 55.6606 298.275 53.1084 298.216C46.6982 298.038 40.2881 297.86 33.9373 297.623C33.2844 297.623 32.5722 297.445 31.9193 297.207C29.7826 296.317 29.011 294.597 29.4265 292.401C29.7826 290.265 31.3258 289.612 33.3438 289.731C36.6082 289.909 39.8133 290.087 43.0777 290.265C43.0777 290.324 43.0777 290.324 43.0777 290.384Z" fill="#F79E1B"/>
<path d="M198.702 239.117C199.058 237.514 199.474 234.726 200.364 231.996C201.076 229.801 202.797 228.495 205.231 229.385C207.664 230.216 208.258 232.055 207.724 234.607C207.189 237.277 206.774 240.066 207.071 242.736C207.249 244.457 208.614 246.178 209.86 247.483C211.403 249.145 212.175 250.747 210.929 252.705C209.623 254.782 207.724 255.197 205.528 253.951C200.364 250.984 199.058 245.94 198.702 239.117Z" fill="#F79E1B"/>
<path d="M84.2097 269.141C85.5155 265.165 86.6432 261.131 88.127 257.214C88.958 254.959 90.9166 254.247 93.2314 255.256C95.4275 256.206 95.8429 258.223 95.19 260.715C94.2404 264.335 93.3501 268.073 92.994 271.811C92.7566 274.363 91.985 275.965 89.4328 276.439C87.1774 276.796 85.5155 275.312 85.1 272.642C84.922 271.574 84.922 270.506 84.8032 269.438C84.6252 269.319 84.3878 269.2 84.2097 269.141Z" fill="#F79E1B"/>
<path d="M141.664 253.773C139.111 253.832 137.331 252.171 137.449 249.856C137.568 247.602 138.696 246.178 141.07 246C143.325 245.881 145.047 247.602 144.987 249.856C144.928 252.23 143.682 253.535 141.664 253.773Z" fill="#F79E1B"/>
<path d="M107.713 227.783C107.535 229.741 106.526 231.284 104.093 231.403C101.837 231.521 100.176 229.86 100.116 227.605C100.116 225.35 101.778 223.63 104.034 223.689C106.111 223.689 107.654 225.35 107.713 227.783Z" fill="#F79E1B"/>
<path d="M325.243 111.898C323.047 111.839 321.444 110.059 321.622 107.685C321.8 105.371 323.165 104.066 325.48 104.066C327.676 104.066 329.279 105.964 329.101 108.219C329.041 110.474 327.379 111.957 325.243 111.898Z" fill="#F79E1B"/>
<path d="M323.699 294.953C323.699 292.638 325.361 290.977 327.617 291.096C329.991 291.214 331.178 292.698 331.178 294.953C331.178 297.207 329.931 298.691 327.557 298.809C325.361 298.988 323.699 297.267 323.699 294.953Z" fill="#F79E1B"/>
<path d="M85.4559 92.6729C82.9037 92.5542 81.3605 90.7741 81.5979 88.46C81.8354 86.1458 83.1411 84.8404 85.5153 84.8998C87.7113 84.9591 89.3139 86.7985 89.0764 89.1127C88.839 91.3675 87.5333 92.6729 85.4559 92.6729Z" fill="#F79E1B"/>
<path d="M343.998 135.573C341.861 135.514 340.555 134.209 340.318 131.954C340.081 129.699 341.802 127.86 343.998 127.8C346.194 127.741 347.915 129.462 347.915 131.717C347.856 133.853 346.313 135.455 343.998 135.573Z" fill="#F79E1B"/>
<path d="M110.562 146.135C108.129 146.135 106.407 144.415 106.585 142.101C106.763 139.786 108.01 138.481 110.384 138.362C112.58 138.303 114.301 140.142 114.123 142.397C114.005 144.771 112.758 146.017 110.562 146.135Z" fill="#F79E1B"/>
<path d="M210.454 215.204C208.258 215.144 206.596 213.364 206.774 211.05C206.952 208.736 208.198 207.371 210.572 207.431C213.006 207.49 214.134 208.973 214.252 211.228C214.43 213.483 212.65 215.263 210.454 215.204Z" fill="#F79E1B"/>
<path d="M191.164 101.395C190.927 103.472 189.858 104.956 187.484 105.074C185.229 105.193 183.507 103.472 183.626 101.158C183.686 98.8439 184.873 97.4199 187.247 97.3012C189.502 97.1825 191.164 98.9033 191.164 101.395Z" fill="#F79E1B"/>
<path d="M345.066 230.691C345.126 228.198 346.966 226.418 349.102 226.656C351.417 226.893 352.604 228.377 352.604 230.631C352.604 232.945 350.883 234.607 348.628 234.429C346.194 234.251 345.244 232.708 345.066 230.691Z" fill="#F79E1B"/>
<path d="M394.627 80.4495C394.805 78.4914 395.932 77.1266 398.306 77.008C400.562 76.9486 402.224 78.6694 402.105 80.9835C401.986 83.2383 400.74 84.6624 398.425 84.7811C396.17 84.8404 394.567 83.1197 394.627 80.4495Z" fill="#F79E1B"/>
<path d="M395.873 21.706C393.617 21.528 392.371 20.2819 392.252 17.9084C392.133 15.5943 393.795 13.8735 396.051 13.8735C398.247 13.8735 399.968 15.713 399.79 17.9678C399.553 20.2819 398.306 21.5873 395.873 21.706Z" fill="#F79E1B"/>
<path d="M140.535 283.441C140.535 285.815 138.933 287.476 136.677 287.298C134.303 287.12 133.116 285.755 133.116 283.441C133.116 281.127 134.363 279.762 136.677 279.584C138.873 279.406 140.535 281.127 140.535 283.441Z" fill="#F79E1B"/>
<path d="M138.458 270.387C136.262 270.328 134.6 268.548 134.838 266.234C135.016 263.919 136.262 262.614 138.636 262.614C140.892 262.614 142.435 264.394 142.316 266.708C142.138 268.904 140.536 270.447 138.458 270.387Z" fill="#F79E1B"/>
<path d="M318.536 145.364C315.924 145.364 314.381 143.643 314.5 141.27C314.678 138.956 315.865 137.591 318.239 137.591C320.494 137.591 322.038 139.312 321.919 141.626C321.8 143.999 320.554 145.246 318.536 145.364Z" fill="#F79E1B"/>
</g>
</svg>
