<svg width="200" height="300" viewBox="0 0 200 300" fill="none" xmlns="http://www.w3.org/2000/svg">
<g style="mix-blend-mode:luminosity" opacity="0.4">
<path d="M99.2779 151.476C102.483 151.476 104.738 151.417 106.994 151.476C109.487 151.595 110.852 153.019 110.792 155.451C110.733 157.944 109.249 159.249 106.816 159.249C98.447 159.19 90.0782 158.893 82.481 155.155C78.3263 153.137 74.7057 149.933 71.0852 146.966C69.3046 145.483 68.533 143.347 70.6104 141.329C72.4503 139.608 74.7651 139.786 76.8424 141.863C77.1392 142.16 77.2579 142.516 77.614 143.05C79.5133 139.134 81.2346 135.574 82.8965 132.251C72.5097 114.865 70.7884 97.4199 82.0062 79.5001C81.9468 79.4408 81.65 79.2035 81.2939 79.0848C68.4737 76.2959 62.2416 67.2174 58.9772 55.4687C58.2649 52.8579 58.3243 50.0097 58.1462 47.2802C57.6714 40.3971 57.2559 33.514 56.8405 26.5716C56.7811 25.2068 56.6624 23.7828 56.7217 22.418C56.7811 19.9852 58.0275 18.5018 60.5203 18.4424C63.0132 18.3831 64.3783 19.7478 64.5564 22.24C64.7938 25.6815 64.9718 29.1231 65.2092 32.5646C65.2686 33.2173 65.3873 33.87 65.4467 34.048C70.9665 31.6746 76.427 29.3011 82.481 26.6903C82.3029 24.0201 82.1249 20.5192 81.9468 17.7304C77.7327 15.6536 73.8154 14.0515 70.2543 11.9154C67.4053 10.1946 67.1085 7.82112 68.7111 5.68499C70.4323 3.37085 73.1032 3.01483 75.7147 5.09162C78.8605 7.58377 82.4216 8.47382 86.2796 7.99913C89.4847 7.64311 92.6897 6.87173 95.8354 6.15968C99.7528 5.21029 102.008 6.10035 102.72 9.06719C103.433 12.034 102.008 13.8141 97.9722 14.8229C95.9542 15.2976 93.9361 15.8316 91.9181 16.1283C90.3156 16.3656 89.6627 17.0777 89.9001 18.6798C89.9595 18.8578 89.9595 19.0951 89.9595 19.2731C89.4253 24.9102 90.6717 28.8264 97.3193 29.8945C100.524 30.4285 103.373 32.98 106.875 34.8788C106.875 31.3185 106.875 27.9363 106.875 24.5541C106.934 20.9939 108.122 19.4512 110.733 19.3918C113.404 19.3325 114.591 20.9346 114.71 24.4355C115.007 33.336 115.719 42.1772 115.541 51.0777C115.303 61.6397 109.961 72.1424 97.8534 77.7794C87.526 82.5857 81.9468 91.5455 82.4216 102.879C82.4216 103.235 82.5403 103.65 82.6591 104.066C85.0925 104.066 87.4073 104.006 89.7814 104.066C92.6897 104.184 94.411 105.846 94.2923 108.397C94.2329 110.889 92.6304 112.313 89.7814 112.432C88.0008 112.491 86.2202 112.551 84.4396 112.61C84.1429 112.61 83.9055 112.788 83.6087 112.847C82.8965 122.045 91.0872 131.183 101.118 132.132C104.62 132.488 108.24 132.31 111.801 132.369C115.006 132.429 116.609 133.793 116.55 136.345C116.49 138.837 115.006 140.142 111.979 140.202C110.021 140.261 108.003 140.439 106.044 140.142C103.314 139.727 101.889 140.914 101.237 143.287C100.524 145.779 100.05 148.272 99.2779 151.476ZM70.2543 61.4617C71.0258 60.3936 71.6787 59.3256 72.4503 58.3169C76.1302 53.3919 79.5727 48.4076 83.49 43.6606C85.9828 40.6344 88.4163 40.8125 90.8498 43.9573C94.7671 49.0603 98.447 54.2819 102.246 59.4443C102.898 60.3343 103.611 61.2244 104.323 62.1738C108.952 55.7654 108.537 48.5856 103.492 42.8892C95.8948 34.4634 82.8965 32.8613 73.2219 39.151C65.1499 44.4913 63.8441 53.6292 70.2543 61.4617ZM75.418 67.8701C81.5313 73.3291 94.5297 73.0324 98.5657 67.8701C94.8264 62.5298 91.0278 57.1894 86.8138 51.2558C82.8371 57.0708 79.1572 62.4111 75.418 67.8701ZM91.384 150.467C92.393 146.076 93.2833 142.457 94.2329 138.303C92.393 138.184 89.4847 137.413 89.1879 138.006C87.6447 141.092 86.4577 144.474 85.8641 147.856C85.8048 148.331 89.366 149.518 91.384 150.467Z" fill="#F79E1B"/>
<path d="M9.41729 169.158C10.6637 166.903 11.7321 165.123 9.23924 163.047C8.46765 162.394 8.58635 159.605 9.41729 158.596C10.1889 157.647 12.385 157.172 13.8094 157.469C15.5307 157.825 17.1332 159.13 18.7357 160.08C20.6944 161.266 22.7717 161.801 24.9085 160.614C28.6477 158.656 32.3276 156.579 36.0075 154.561C37.3726 153.79 37.5507 152.841 36.9571 151.357C32.3276 140.024 32.6244 128.453 35.7107 116.823C37.432 110.355 38.7377 103.71 40.5777 97.3013C41.5867 93.741 43.1299 90.2402 44.7918 86.9173C46.3349 83.7724 49.4213 83.5944 51.7361 86.2646C52.0922 86.6206 52.3296 87.036 52.6264 87.4513C57.6714 95.3431 62.7758 103.235 67.6427 111.245C68.9485 113.382 69.4827 115.992 70.3136 118.366C71.56 121.867 72.6877 125.427 74.0528 128.869C75.3586 132.013 74.2903 134.565 70.8478 134.862C64.6751 135.396 58.443 135.633 52.2109 135.87C49.7181 135.93 48.3529 134.328 48.4123 131.895C48.4716 129.462 49.8961 128.097 52.389 128.097C55.2379 128.038 58.1462 128.038 60.9952 127.978C62.1229 127.978 63.3099 127.8 64.2596 127.682C64.4376 127.326 64.497 127.207 64.497 127.148C63.488 120.087 62.5977 119.434 55.5347 120.087C52.0922 120.443 48.6497 120.621 45.2072 121.155C44.1982 121.333 42.655 122.282 42.4176 123.113C40.2216 131.657 40.8745 140.083 44.1982 148.568C46.4536 147.678 48.4717 146.729 50.6084 146.017C58.2649 143.525 65.7434 147.026 68.533 154.324C70.1949 158.656 68.9485 163.284 65.506 165.717C63.6067 167.081 61.7668 166.785 60.1642 165.242C58.6804 163.818 58.3836 162.097 59.8081 160.495C60.9952 159.13 62.3009 157.528 60.8171 156.104C59.2739 154.68 57.0779 153.256 55.1192 153.256C52.7451 153.256 50.371 154.68 47.6407 155.629C52.6264 163.818 58.9772 169.692 66.9898 174.439C67.6427 173.015 68.2362 171.828 68.7704 170.642C69.6607 168.802 70.551 166.903 71.56 165.123C74.2903 160.495 78.2076 158.478 83.5493 159.902C87.6447 160.97 91.7994 161.86 95.8354 163.225C98.6844 164.174 99.3373 166.844 97.5567 169.218C89.2472 180.314 83.5493 192.774 77.9108 205.294C76.1896 209.092 74.5277 212.83 72.7471 216.628C71.3226 219.713 69.8388 220.485 67.5834 219.535C65.0905 218.467 64.3783 216.094 65.7434 213.068C69.4233 204.998 73.1626 196.928 76.8424 188.858C77.1986 188.087 77.4953 187.256 77.9108 186.307C75.9521 185.832 74.2903 185.179 72.569 185.179C71.7974 185.179 70.6104 186.188 70.1949 187.019C67.1679 192.893 64.2596 198.827 61.2919 204.76C60.3423 206.6 58.9178 207.668 56.7217 207.193C53.8134 206.541 52.9231 203.93 54.407 200.963C57.5527 194.733 60.6984 188.443 63.9628 181.916C54.407 176.635 46.9878 169.574 41.468 160.673C23.9588 169.455 23.9588 169.455 18.0235 168.624C17.608 169.692 17.1332 170.879 16.599 172.125C17.3113 172.481 17.7861 172.719 18.3203 172.956C20.3976 173.846 21.1099 175.448 20.3976 177.525C19.6854 179.72 18.0235 180.67 15.7681 180.076C13.8094 179.542 11.8508 178.771 9.47665 177.881C9.47665 179.246 9.47665 180.314 9.47665 181.441C9.47665 188.561 9.65471 195.682 9.536 202.743C9.4173 206.956 7.87411 208.855 5.26258 208.677C2.53233 208.499 1.8201 206.659 1.87945 202.328C1.99815 193.724 1.76074 185.179 1.76074 176.575C1.76074 175.092 1.76074 173.609 1.87945 172.125C2.17621 168.506 4.37228 167.2 7.81476 168.446C8.23023 168.743 8.70506 168.921 9.41729 169.158ZM48.6497 96.4112C47.1659 102.404 45.9195 107.567 44.5543 113.204C49.4807 112.788 53.8134 112.373 58.5023 112.017C55.2379 106.855 52.2109 102.048 48.6497 96.4112ZM88.0008 168.921C85.4486 168.387 83.3119 167.853 81.2346 167.616C80.5223 167.556 79.3353 167.912 78.9792 168.506C77.3173 171.354 75.8928 174.261 74.1122 177.643C76.6644 177.999 78.5043 178.474 80.3443 178.474C81.2346 178.474 82.4216 177.881 82.9558 177.169C84.6771 174.677 86.1609 172.006 88.0008 168.921Z" fill="#F79E1B"/>
<path d="M144.564 50.425C140.41 45.7967 136.67 41.5245 132.931 37.3115C132.634 37.3709 132.278 37.4302 131.981 37.5489C130.319 50.0096 125.453 61.343 119.695 72.3797C119.873 72.5577 120.111 72.7357 120.289 72.8544C136.136 67.0393 152.043 61.2243 168.365 55.2906C167.296 54.1632 166.584 53.3919 165.872 52.6798C156.079 42.8892 146.285 33.158 136.552 23.3674C135.839 22.6553 135.127 22.0026 134.534 21.2312C133.287 19.5698 133.525 17.849 134.89 16.4249C136.373 14.8822 138.154 14.4075 139.935 15.8316C141.478 17.0776 142.784 18.5611 144.208 19.9258C157.266 32.9799 170.323 46.0341 183.381 59.0882C184.153 59.8596 184.687 60.809 185.28 61.6397C189.732 59.3255 193.531 57.3081 197.389 55.4093C200.119 54.1039 202.493 54.9346 203.621 57.3674C204.689 59.8596 203.739 61.521 201.425 62.7077C198.397 64.2505 195.311 65.7933 191.809 67.5734C196.083 71.7863 199.881 75.5839 203.739 79.3814C205.223 80.8055 205.995 82.4076 204.867 84.4251C203.443 86.9172 200.416 87.5106 198.457 85.1371C196.083 82.2296 193.59 82.5263 190.385 83.891C191.275 84.9591 192.106 85.9085 192.759 86.9172C194.065 88.8753 194.302 90.8928 192.284 92.4356C190.385 93.919 188.486 93.741 186.764 91.9015C185.637 90.6554 184.271 89.5874 183.322 88.2226C180.948 84.7217 178.039 84.6624 174.359 86.7392C176.199 88.816 178.039 90.8928 179.879 93.0289C182.075 95.6398 182.135 97.7759 180.176 99.4967C178.277 101.158 176.199 100.565 173.885 98.0132C170.739 94.5717 167.593 91.1895 164.269 87.9259C162.311 86.0272 161.48 83.891 162.073 81.2802C162.904 77.6013 163.795 73.9818 164.685 70.3622C165.1 68.6414 165.694 66.98 166.347 64.9032C165.219 65.1999 164.448 65.2592 163.795 65.5559C147.769 71.4896 131.744 77.4233 115.778 83.4163C111.92 84.8404 109.13 82.823 109.961 78.7287C110.674 75.1685 111.683 71.549 113.344 68.3448C119.28 56.4774 123.197 44.254 125.393 31.4372C126.105 27.1056 128.598 26.0375 132.516 28.1737C141.537 33.158 147.532 41.1091 152.933 49.5943C154.536 52.1458 154.061 54.1039 151.449 55.5873C149.55 56.7147 147.354 57.5454 145.276 58.3168C142.428 59.3849 139.519 60.2749 136.611 61.2243C134.296 61.9957 132.1 60.987 131.328 58.7915C130.498 56.4774 131.447 54.8753 133.584 54.0446C136.908 52.9172 140.35 51.8491 144.564 50.425ZM174.716 62.7077C173.232 67.7514 171.689 73.1511 170.086 78.7287C176.556 77.6013 182.313 76.6519 187.655 75.7025C183.441 71.4303 179.108 67.0987 174.716 62.7077Z" fill="#F79E1B"/>
<path d="M68.6518 262.97C70.6698 261.427 72.8659 259.647 75.1213 257.926C77.0206 256.502 78.8605 254.96 80.8785 253.773C84.6771 251.637 87.5261 253.357 87.5261 257.689C87.5261 258.638 87.5261 259.588 87.5261 260.597C90.6718 261.012 94.5298 259.469 95.0046 264.216C95.3013 266.886 93.8175 267.776 88.179 268.666C88.179 271.455 88.179 274.244 88.179 277.152C91.206 277.923 95.7762 276.499 95.4794 281.602C95.1826 286.408 90.8499 284.687 88.1196 285.399C87.2887 288.307 86.7545 291.274 85.5674 293.944C84.9739 295.368 83.312 297.089 81.9469 297.207C80.6411 297.326 78.5638 296.021 77.7922 294.775C74.231 289.197 71.0259 283.441 67.6428 277.745C66.9899 276.677 66.3964 275.549 65.2687 273.71C55.0599 280.534 45.2073 287.179 35.2953 293.825C34.5831 294.3 33.9302 295.012 33.1586 295.427C30.4877 296.911 27.6388 295.902 27.2827 292.935C26.8078 289.138 26.5111 285.162 27.164 281.483C28.8852 271.811 30.0723 262.199 29.8942 252.349C29.8942 250.984 30.9626 248.907 32.0903 248.373C33.2773 247.839 35.6515 248.314 36.5418 249.263C41.5868 254.247 46.3944 259.528 51.1426 264.75C53.398 267.242 53.398 269.556 51.4394 271.218C49.5401 272.82 47.4034 272.286 45.148 269.675C42.9519 267.124 40.5778 264.631 38.0849 261.902C36.8979 269.556 35.7702 276.618 34.6425 283.975C43.5454 278.398 52.2703 272.998 61.4107 267.302C58.0869 262.851 54.9412 258.342 51.4987 254.069C48.7091 250.628 45.4447 247.542 42.6551 244.101C40.6371 241.609 38.7378 238.82 37.4914 235.912C35.9482 232.471 37.5508 230.157 41.3494 229.682C44.4357 229.326 47.5814 229.148 51.3207 228.851C48.6498 224.994 46.157 221.494 43.7235 217.993C43.0706 217.103 42.4177 216.272 41.8242 215.322C40.3997 213.246 40.7558 211.288 42.6551 209.863C44.5544 208.439 46.5131 208.914 47.9376 210.635C49.6588 212.652 51.1426 214.907 52.6858 217.103C55.1193 220.544 57.4934 224.104 60.0456 227.487C60.8172 228.495 62.301 229.445 63.5474 229.563C71.1446 230.216 78.7418 230.513 86.2797 231.225C87.8822 231.403 89.9596 232.471 90.7905 233.776C91.384 234.726 90.6124 236.98 89.7815 238.227C85.5674 244.16 79.5728 248.017 73.6375 251.993C71.6788 253.298 69.7795 252.527 68.4144 250.806C65.2687 247.127 62.0636 243.448 59.2146 239.591C57.7902 237.692 56.3063 236.921 54.0509 237.04C51.9142 237.158 49.7775 237.04 47.5221 237.04C54.6445 245.762 61.5294 254.188 68.6518 262.97ZM79.3947 282.611C79.5728 282.492 79.6915 282.433 79.8695 282.314C79.8695 276.618 79.8695 270.921 79.8695 264.513C76.9612 266.59 74.7058 268.251 72.3317 269.972C74.7652 274.303 77.0799 278.457 79.3947 282.611ZM68.6518 237.87C68.5331 238.108 68.4737 238.345 68.355 238.583C69.7201 240.185 71.0259 241.727 72.4504 243.389C74.5871 241.787 76.3083 240.422 78.6825 238.642C74.7652 238.345 71.7382 238.108 68.6518 237.87Z" fill="#F79E1B"/>
<path d="M8.82368 43.542C8.82368 53.0359 8.82368 62.1737 8.82368 71.6083C13.2158 69.7095 17.1331 68.0481 21.4065 66.2087C19.2105 62.7671 17.0738 59.5629 15.0558 56.3587C14.4029 55.35 13.8093 54.3413 13.2158 53.3325C12.1475 51.3151 12.6816 49.6537 14.5216 48.4669C16.4802 47.2208 18.3795 47.4582 19.6853 49.4756C23.1278 54.638 26.5109 59.8596 29.894 65.0813C31.1405 67.0394 30.7843 68.9382 28.9444 70.3029C27.5199 71.371 26.0361 72.3797 24.4929 73.1511C19.0918 75.7619 13.6313 78.3727 8.1708 80.8649C4.01608 82.7637 1.5826 81.3396 1.46389 76.7706C1.16713 67.5734 0.929714 58.4355 0.870361 49.2383C0.692302 37.6083 0.692302 25.9782 0.870361 14.3482C0.929714 10.6693 1.5826 6.87173 2.53225 3.31151C3.54125 -0.308043 6.98373 -1.13876 9.35786 1.70941C15.4119 9.00786 21.2285 16.4843 27.0451 23.9608C28.4102 25.7409 28.1728 27.8177 26.2141 29.1231C24.3148 30.3691 22.4155 30.1911 20.9911 28.2924C17.6673 24.0794 14.5216 19.8072 11.2572 15.5943C10.6636 14.7635 9.95139 13.9922 8.64562 13.4581C8.64562 20.7566 8.64562 28.055 8.64562 35.8875C14.2248 35.8875 19.6853 35.9468 25.2051 35.8281C25.9767 35.8281 26.8077 34.9381 27.4012 34.2261C29.5379 31.6152 32.2682 30.4878 35.5326 31.1999C39.2125 31.9712 42.1801 34.048 43.4859 37.6083C43.842 38.617 42.833 40.9905 41.8834 41.4058C40.5776 41.9399 38.6189 41.5245 37.0758 40.9311C35.9481 40.5158 35.1171 39.2697 34.0488 38.3203C32.0308 42.7112 33.4552 46.0341 37.3132 47.1615C44.0201 49.179 48.709 45.2627 46.9284 38.4983C45.9194 34.5821 43.9607 30.7252 41.5273 27.4616C37.3725 21.884 32.4462 16.7217 27.8167 11.2627C27.0451 10.3726 26.2735 9.42321 25.7393 8.41449C24.4336 5.50698 26.0954 2.95549 29.2412 2.89615C30.0127 2.89615 30.8437 3.01482 31.6153 3.07416C39.806 3.43018 47.9374 3.78621 56.1281 4.14223C56.6029 4.14223 57.1371 4.14223 57.6119 4.14223C59.9861 4.2609 61.2918 5.50698 61.3512 7.88045C61.3512 10.2539 60.1048 11.6187 57.7307 11.678C52.2702 11.856 46.8097 11.856 41.4085 11.9747C40.7557 11.9747 40.1028 11.9747 38.7377 11.9747C39.7467 13.1614 40.4589 13.9328 41.1118 14.7635C44.6136 19.5105 48.709 23.9608 51.4986 29.1231C53.5166 32.802 54.4662 37.3116 54.7036 41.5245C55.0598 48.7636 50.5489 53.6292 43.4265 54.8753C35.5919 56.1807 28.4696 52.7392 26.1548 46.1528C25.4426 44.076 24.4929 43.4233 22.4155 43.4826C17.9047 43.6606 13.3345 43.542 8.82368 43.542Z" fill="#F79E1B"/>
<path d="M105.213 210.457C107.884 209.982 109.724 209.745 111.445 209.27C111.979 209.092 112.632 208.261 112.751 207.668C114.057 199.954 118.212 193.902 123.85 188.917C128.242 185.001 133.109 181.5 138.036 178.355C140.35 176.872 141.003 175.685 139.994 173.253C139.519 172.125 139.282 170.879 138.807 169.396C131.685 173.371 125.868 178.296 120.467 183.874C119.577 184.823 118.686 185.773 117.855 186.722C116.312 188.443 114.532 188.858 112.632 187.375C110.733 185.951 110.377 183.518 111.979 181.619C114.116 179.127 116.253 176.635 118.746 174.617C124.088 170.404 129.607 166.429 135.127 162.453C136.374 161.563 137.086 160.851 136.73 159.19C135.602 153.909 134.771 148.509 133.525 143.228C132.99 140.855 133.109 139.134 135.543 138.184C137.739 137.354 140.113 138.184 140.884 140.558C141.953 143.821 142.606 147.204 143.318 150.586C145.099 158.893 146.82 167.2 148.66 175.448C149.669 179.898 148.956 181.322 144.98 183.518C140.291 186.129 135.78 189.155 130.676 192.3C132.753 193.842 134.178 194.851 135.543 195.919C137.561 197.403 137.917 199.361 136.552 201.378C135.127 203.514 133.169 203.514 131.091 202.268C129.251 201.141 127.471 199.954 125.512 198.649C122.604 202.209 120.645 205.828 120.408 210.279C120.17 214.254 119.102 215.738 115.185 216.628C111.208 217.518 107.172 217.993 103.255 218.883C97.9722 220.129 92.8084 221.671 87.5854 223.096C86.9918 223.274 86.4577 223.511 85.8641 223.57C81.2939 224.282 79.0385 221.909 80.1069 217.459C83.7868 201.734 90.4937 187.375 100.643 174.855C106.282 167.912 112.988 161.86 119.221 155.392C119.814 154.739 120.586 154.205 121.298 153.79C123.197 152.603 125.156 152.544 126.58 154.443C128.064 156.341 127.886 158.24 125.987 159.961C122.663 162.928 119.28 165.776 116.134 168.921C104.442 180.67 95.8354 194.317 90.4343 209.982C90.0188 211.169 89.7221 212.356 89.366 213.72C90.0782 213.72 90.375 213.78 90.6124 213.72C92.8084 213.186 95.0045 212.652 96.4883 212.237C98.8625 206.303 100.94 200.844 103.255 195.445C103.729 194.376 104.798 192.952 105.807 192.834C107.291 192.596 109.309 192.952 110.258 193.902C111.03 194.673 111.149 196.869 110.674 198.115C109.19 201.972 107.291 205.828 105.213 210.457Z" fill="#F79E1B"/>
<path d="M175.428 287.357C176.14 286.527 176.793 285.637 177.564 284.925C179.226 283.441 181.066 283.56 182.669 284.865C184.271 286.171 184.627 288.01 183.44 289.612C181.304 292.579 179.048 295.427 176.437 298.038C174.359 300.174 170.086 298.987 169.136 295.961C167.831 291.926 166.584 287.832 166.228 283.619C165.041 269.616 167.89 256.087 172.698 243.033C173.588 240.659 173.291 239.473 171.214 238.286C168.661 236.862 166.228 235.141 163.557 233.479C163.082 234.488 162.786 235.022 162.548 235.675C161.717 238.108 160.115 239.235 157.562 238.582C155.129 237.93 154.001 235.912 155.129 233.183C157.325 227.902 159.462 222.562 162.37 217.696C167.356 209.448 174.359 202.98 182.431 197.818C188.782 193.664 195.548 190.223 202.196 186.485C202.968 186.069 203.858 185.713 204.689 185.595C206.944 185.357 208.547 186.485 209.259 188.561C209.971 190.638 208.844 191.884 207.063 192.834C201.84 195.563 196.498 198.233 191.394 201.26C187.476 203.633 183.856 206.481 179.404 209.626C182.669 212.652 185.399 215.144 188.07 217.696C189.316 218.883 190.325 218.645 191.631 217.577C195.133 214.788 196.854 214.729 198.457 216.865C200.119 219.179 199.525 221.256 196.32 223.748C189.198 229.267 183.915 236.268 180.591 244.576C176.021 256.087 173.707 268.014 173.944 280.415C174.003 282.61 174.359 284.865 174.597 287.061C174.834 287.179 175.131 287.239 175.428 287.357ZM173.944 214.966C171.273 218.764 168.721 222.383 166.169 226.003C170.264 228.495 173.885 230.75 177.564 233.005C179.761 230.038 181.779 227.308 183.322 225.291C180.176 221.849 177.268 218.645 173.944 214.966Z" fill="#F79E1B"/>
<path d="M177.802 143.881C185.459 135.099 186.705 121.392 180.889 111.661C179.405 109.169 179.642 107.033 181.601 105.668C183.5 104.362 185.815 104.956 187.417 107.329C192.819 115.28 193.768 124.122 191.394 133.141C190.029 138.422 187.477 143.347 185.281 148.984C186.23 149.518 187.952 150.289 189.317 151.417C190.326 152.247 191.631 153.671 191.572 154.739C191.453 156.045 190.148 157.291 189.139 158.418C188.664 158.952 187.714 159.071 187.002 159.368C181.719 161.563 176.437 163.699 171.214 165.954C167.415 167.616 163.736 169.574 159.878 171.057C156.969 172.184 154.833 170.701 154.358 167.556C154.12 166.013 153.883 164.411 153.883 162.869C154.002 155.985 153.052 149.34 151.212 142.694C150.44 139.905 150.44 136.82 150.737 133.912C150.975 131.005 153.408 129.699 156.138 130.767C158.809 131.776 161.361 133.081 164.21 134.387C166.763 128.572 167.475 122.816 164.388 117.06C162.905 114.272 160.946 111.779 159.047 109.287C157.088 106.676 156.969 104.481 159.047 102.82C160.887 101.277 162.726 101.692 164.923 104.006C174.004 113.5 176.378 124.418 171.748 136.76C171.095 138.54 171.214 139.668 172.935 140.617C174.3 141.389 175.487 142.457 176.793 143.347C177.09 143.584 177.387 143.703 177.802 143.881ZM159.225 140.439C160.234 147.975 161.124 154.858 162.074 162.038C167.297 159.308 172.46 156.638 178.099 153.731C171.57 149.102 165.457 144.771 159.225 140.439Z" fill="#F79E1B"/>
<path d="M125.334 119.137C117.974 119.968 111.03 120.739 104.086 121.511C100.999 121.867 99.0405 120.561 98.8031 118.188C98.5657 115.755 100.05 114.212 103.255 113.797C107.884 113.263 112.454 112.848 117.084 112.254C118.746 112.076 120.348 111.601 122.01 111.127C126.224 109.94 129.845 108.101 131.388 103.472C132.1 101.455 133.465 99.7341 134.949 97.1826C133.406 97.776 132.456 98.0726 131.507 98.4287C122.663 101.87 113.523 103.65 104.026 103.71C101.83 103.71 100.109 103.116 99.3967 100.861C98.5657 98.132 100.346 96.1739 103.551 95.8179C108.774 95.3432 113.998 95.0465 119.102 94.0377C129.192 91.9609 138.273 87.392 146.582 81.2803C147.532 80.5683 148.6 79.6782 149.609 79.6189C150.856 79.5595 152.577 79.9155 153.23 80.8056C153.942 81.755 154.417 83.9505 153.823 84.7812C145.989 95.5805 147.532 107.804 148.244 119.909C148.304 120.502 148.304 121.095 148.363 121.689C148.482 124.003 147.532 125.546 145.099 125.842C142.724 126.139 140.825 124.715 140.588 122.223C140.232 117.713 140.113 113.144 139.935 108.635C139.875 107.685 139.935 106.677 139.401 105.43C138.866 106.261 138.214 107.033 137.917 107.923C135.839 113.856 133.821 119.849 131.863 125.842C130.913 128.691 129.251 129.937 126.936 129.225C124.622 128.513 123.553 126.91 124.088 124.478C124.444 122.697 124.918 120.917 125.334 119.137Z" fill="#F79E1B"/>
<path d="M37.4914 187.375C36.0076 189.096 34.5238 190.757 32.5651 193.012C34.6425 193.961 36.3044 194.911 38.085 195.504C40.9339 196.453 42.2397 198.055 41.6461 200.37C41.0526 202.802 39.0346 203.989 36.067 202.98C33.218 202.031 30.4878 200.607 27.2233 199.183C25.5021 200.963 23.4247 203.158 20.9319 205.769C24.5525 207.253 27.7575 208.677 31.0219 209.923C36.0076 211.881 36.6011 213.008 34.5238 217.874C32.7432 222.146 30.8439 226.359 29.0039 230.631C28.5885 231.64 28.2917 232.768 27.8762 233.836C28.4104 233.954 28.6478 234.132 28.7665 234.073C31.2594 233.064 33.5148 233.242 34.7612 235.912C35.7702 238.049 34.1083 241.371 31.4968 242.439C28.5291 243.745 25.9769 242.736 23.4841 240.956C22.5938 240.303 21.2287 239.947 20.1603 240.066C16.4804 240.481 13.5128 239.295 11.7915 236.328C9.95158 233.242 10.3671 230.335 12.7412 229.089C15.1153 227.843 16.7772 228.733 18.9733 232.886C22.297 227.546 23.8996 222.028 26.5111 216.628C23.1873 215.204 20.2197 213.958 17.252 212.593C11.1386 209.745 10.3077 206.185 14.5811 201.022C16.7772 198.352 19.1513 195.86 21.5254 193.19C19.5668 190.342 13.2754 188.858 17.6675 184.171C21.3474 180.254 23.7215 185.595 27.0453 186.781C28.4104 185.298 29.8349 183.755 31.5561 181.856C30.0723 180.848 28.8852 179.958 27.5795 179.186C25.3834 177.881 24.8492 176.041 26.0956 173.905C27.2827 171.829 29.3007 171.176 31.4374 172.363C33.3367 173.371 35.058 174.736 37.076 176.16C38.3224 175.092 39.5688 173.905 40.9339 172.778C43.0706 171.057 45.326 171.176 46.9879 173.075C48.5905 174.914 48.3531 176.575 46.0976 178.652C45.2073 179.483 44.2577 180.373 42.9519 181.619C44.9699 182.568 46.5131 183.34 48.0563 184.052C50.4304 185.12 51.3801 187.078 50.4898 189.333C49.5401 191.706 47.5815 192.359 45.3854 191.41C42.7739 190.342 40.281 188.858 37.4914 187.375Z" fill="#F79E1B"/>
<path d="M9.77347 224.638C9.77347 230.869 9.77347 236.624 9.77347 241.609C14.8778 243.567 19.5667 245.169 24.1369 247.127C26.8672 248.314 27.5201 250.153 26.3923 252.289C25.2053 254.485 23.1279 255.078 20.5757 253.832C17.252 252.171 14.0469 250.153 10.1296 250.509C9.17994 255.316 9.23929 255.494 13.4534 256.858C21.3473 259.41 25.6801 265.581 25.0866 273.295C24.6117 279.347 21.5254 282.907 15.5901 284.153C13.9875 284.509 12.3257 284.687 10.5451 284.925C10.5451 286.349 10.5451 287.713 10.5451 289.553C13.394 289.553 16.0649 289.553 18.7951 289.553C22.0596 289.612 23.6621 290.918 23.6027 293.41C23.5434 295.961 22.0002 297.148 18.6764 297.148C14.9372 297.148 11.1979 297.207 7.39934 297.148C4.19427 297.089 2.82915 295.902 2.71045 292.757C2.59174 288.722 2.53239 284.687 2.59174 280.593C2.65109 277.686 4.01622 276.617 6.98387 276.736C9.06123 276.855 11.1386 277.033 13.1566 276.855C16.243 276.558 17.4894 274.956 17.43 271.93C17.3707 267.658 14.3437 264.453 9.83282 263.86C8.94252 263.741 8.05223 263.801 7.16193 263.741C2.94786 263.563 2.05756 262.733 2.05756 258.638C2.05756 245.703 1.99821 232.767 2.11692 219.891C2.17627 214.254 4.78781 212.949 9.77347 215.619C12.0882 216.865 14.403 218.289 16.7178 219.535C18.4984 220.485 19.448 221.849 18.6171 223.867C17.6674 226.062 15.9462 227.071 13.6314 226.418C12.5037 226.003 11.4354 225.35 9.77347 224.638Z" fill="#F79E1B"/>
<path d="M46.3348 68.6414C43.3078 73.8631 40.1027 78.5507 37.7286 83.5943C33.1584 93.2662 29.3004 103.176 28.2914 113.975C28.1727 115.399 26.9263 117.357 25.7393 117.772C24.4335 118.247 22.2374 117.713 20.991 116.823C16.7176 113.678 12.5035 110.355 8.52685 106.795C0.751593 99.912 1.34512 96.6485 10.8416 92.6729C11.4945 92.4355 12.088 92.1389 12.919 91.7235C12.5035 89.8841 12.1474 88.0446 11.7319 86.2645C11.1384 83.9503 12.0287 82.3483 14.2248 81.6362C16.5989 80.9242 18.3201 81.8736 19.0917 84.247C19.6259 86.0271 20.0414 87.8073 20.5162 89.5874C25.858 89.9434 26.3328 89.2907 28.5289 85.0184C31.8526 78.432 35.4732 71.9643 39.3311 65.6746C40.6962 63.4198 42.9517 61.521 45.0884 59.8002C47.2251 58.0794 49.5992 58.4355 50.9643 60.7496C55.7126 68.4634 61.4105 75.3465 68.2954 81.2208C70.0167 82.7043 70.0167 84.5437 68.4735 86.1458C66.871 87.8666 64.7936 88.3413 62.8943 86.7392C59.986 84.247 57.1371 81.5769 54.5849 78.7287C51.8546 75.7619 49.3618 72.3796 46.3348 68.6414ZM21.2878 107.27C22.1781 103.71 22.9497 100.802 23.84 97.3012C19.9227 98.3099 16.5989 99.1999 12.4442 100.268C15.7679 102.879 18.3201 104.837 21.2878 107.27Z" fill="#F79E1B"/>
<path d="M136.492 291.867C142.546 292.045 148.126 292.223 153.705 292.342C155.367 292.401 157.088 292.282 158.75 292.401C161.124 292.579 162.37 294.003 162.37 296.258C162.37 298.513 161.183 300.115 158.75 300.115C150.144 299.996 141.597 299.759 132.99 299.462C130.498 299.403 129.073 297.741 129.251 295.368C129.548 291.036 127.53 288.722 123.85 286.467C116.015 281.602 113.226 273.235 115.541 264.275C117.618 256.324 124.088 251.103 133.406 250.331C136.196 250.094 137.501 249.144 138.036 246.593C138.273 245.525 138.748 244.516 139.282 243.626C140.41 241.846 142.012 241.015 144.09 241.965C146.108 242.914 146.879 244.516 146.286 246.83C143.199 259.291 140.172 271.693 137.264 284.213C136.789 286.527 136.789 289.019 136.492 291.867ZM130.142 280.89C131.685 273.354 133.169 265.937 134.712 258.401C128.42 258.401 124.088 261.724 123.019 267.064C121.773 273.413 124.266 278.398 130.142 280.89Z" fill="#F79E1B"/>
<path d="M162.489 17.9677C166.644 21.9433 170.383 25.5035 174.597 29.5384C176.912 26.4529 179.167 23.5454 181.423 20.5785C183.5 17.7897 185.399 14.8822 187.655 12.3307C188.486 11.322 190.148 10.6099 191.453 10.5506C196.973 10.4319 202.493 10.5506 208.013 10.6099C211.574 10.6693 213.177 11.856 213.117 14.4668C213.058 17.0776 211.515 18.205 207.894 18.205C203.858 18.205 199.822 18.205 195.727 18.205C191.928 18.205 191.928 18.205 189.732 22.24C192.64 22.24 195.193 22.24 197.745 22.24C199.941 22.24 202.078 22.1806 204.274 22.2993C206.588 22.418 207.894 23.8421 207.835 26.1562C207.775 28.5297 206.47 29.8351 204.096 29.8351C198.279 29.8944 192.462 29.7164 186.646 29.9538C185.34 30.0131 183.915 31.0218 182.728 31.8525C181.957 32.3866 181.423 33.336 180.77 34.048C176.2 38.8543 172.698 38.617 168.009 34.048C162.904 29.123 157.444 24.5541 152.162 19.8665C150.915 18.7391 149.491 17.7304 148.482 16.4249C146.464 13.7548 147.947 10.2539 151.271 10.1352C160.174 9.89788 169.018 9.89788 177.921 10.0165C179.108 10.0165 180.888 11.2033 181.304 12.2714C181.719 13.4581 181.304 15.4162 180.532 16.5436C179.345 18.3237 177.624 19.7478 176.021 21.1719C174.063 22.8927 170.798 22.7147 170.264 20.5192C169.315 16.959 166.94 17.7304 164.566 17.671C164.032 17.7304 163.557 17.849 162.489 17.9677Z" fill="#F79E1B"/>
<path d="M167.356 182.094C170.442 186.603 170.62 186.781 174.953 184.645C181.244 181.56 187.477 178.355 193.768 175.329C195.905 174.321 198.16 173.609 200.475 172.956C202.612 172.362 204.155 173.371 204.867 175.389C205.579 177.406 205.045 179.186 203.086 180.136C193.234 184.705 183.441 189.273 173.529 193.724C169.314 195.623 168.78 195.385 165.575 192.003C163.854 190.223 162.014 188.561 160.471 186.663C157.563 183.102 157.978 179.364 161.599 176.575C163.379 175.211 165.457 174.261 167.534 173.312C175.547 169.633 183.559 166.073 191.572 162.453C194.362 161.207 196.439 161.622 197.685 163.877C198.932 166.132 198.16 168.031 195.133 169.455C187.18 173.134 179.108 176.694 171.095 180.314C169.849 180.907 168.602 181.5 167.356 182.094Z" fill="#F79E1B"/>
<path d="M139.579 220.841C135.78 218.289 132.1 215.797 128.421 213.364C125.868 211.703 125.275 209.863 126.521 207.727C127.827 205.532 130.023 205.116 132.635 206.778C135.009 208.321 137.264 210.101 139.638 211.703C140.766 212.474 142.012 213.008 143.318 213.661C145.396 210.753 147.354 208.083 149.491 205.116C147.236 202.565 144.921 199.895 142.547 197.343C140.588 195.207 140.232 193.13 141.894 191.35C143.437 189.63 145.811 189.63 147.948 191.647C149.669 193.249 151.153 195.089 152.637 196.928C154.299 198.945 155.901 199.835 158.275 197.877C160.234 196.275 162.371 196.335 163.973 198.53C165.398 200.488 165.338 202.624 163.202 203.93C154.002 209.685 149.135 218.645 144.98 228.08C144.624 228.911 144.327 229.741 143.912 230.513C142.843 232.589 141.182 233.658 138.807 232.767C136.611 231.937 135.899 229.86 136.849 227.368C137.68 225.232 138.689 223.036 139.579 220.841Z" fill="#F79E1B"/>
<path d="M26.6889 135.396C27.5198 140.202 28.5288 145.008 29.1817 149.874C29.3597 151.179 29.1223 153.078 28.3507 153.79C27.4011 154.621 25.5611 154.561 24.0773 154.799C23.6618 154.858 23.1277 154.502 22.7122 154.265C16.8956 151.12 11.079 148.094 5.38108 144.83C1.22637 142.397 0.9296 139.371 4.7282 136.464C9.71386 132.666 14.9369 129.046 20.2194 125.605C23.7212 123.291 27.1637 125.427 27.2824 129.64C27.3417 131.539 27.2824 133.378 27.2824 135.277C27.045 135.336 26.8669 135.396 26.6889 135.396ZM19.2104 135.396C16.8362 137.057 15.0556 138.303 12.9189 139.786C15.4118 140.914 17.3704 141.804 19.6852 142.813C19.5071 140.38 19.3884 138.244 19.2104 135.396Z" fill="#F79E1B"/>
<path d="M102.899 241.431C101.711 245.347 100.702 248.848 99.6341 252.289C98.7438 255.137 96.9632 256.206 94.5891 255.493C92.3337 254.841 91.4434 253.001 92.2743 250.272C94.1736 243.745 96.0729 237.218 98.3283 230.809C98.8625 229.326 100.584 227.842 102.127 227.308C104.086 226.596 105.154 228.436 106.044 230.097C108.3 234.37 110.614 238.523 112.87 242.795C115.956 241.371 118.449 240.007 121.12 239.057C123.138 238.345 125.275 237.87 127.411 237.633C129.489 237.396 131.032 238.76 131.091 240.659C131.091 242.024 130.082 244.457 129.133 244.694C123.613 245.94 118.865 248.551 114.235 251.577C113.345 252.171 110.555 251.103 109.487 250.034C107.113 247.542 105.273 244.575 102.899 241.431Z" fill="#F79E1B"/>
<path d="M104.798 291.748C103.789 289.672 102.839 288.069 102.127 286.408C101.177 284.213 101.949 282.432 103.907 281.424C105.985 280.356 107.647 281.127 109.012 282.966C111.683 286.349 114.532 289.494 117.084 292.994C117.915 294.181 118.686 296.199 118.212 297.385C117.737 298.572 115.778 299.818 114.472 299.818C107.172 299.878 99.8714 299.64 92.571 299.403C89.8407 299.343 88.3569 297.801 88.4756 295.427C88.6537 292.935 90.1375 291.748 92.571 291.808C94.5296 291.808 96.4883 291.867 98.5063 291.867C100.524 291.748 102.483 291.748 104.798 291.748Z" fill="#F79E1B"/>
<path d="M123.553 14.4076C125.096 11.9748 126.284 9.9573 127.589 7.99918C128.954 5.92238 130.794 5.38835 132.931 6.69376C134.949 7.93984 135.246 9.83862 134.059 11.7967C132.1 15.1196 130.141 18.4425 127.886 21.528C125.512 24.7915 121.832 25.1476 119.399 21.9434C116.668 18.3831 114.591 14.2889 112.632 10.254C112.276 9.4826 113.582 7.40581 114.65 6.63443C116.372 5.38835 118.33 5.92238 119.577 7.70249C120.942 9.71995 122.069 11.9154 123.553 14.4076Z" fill="#F79E1B"/>
<path d="M5.678 120.799C4.01611 119.315 2.53228 118.188 1.22651 116.823C-0.494726 114.984 -0.37602 113.025 1.40457 111.364C3.12581 109.762 5.02511 109.881 6.687 111.542C9.17983 114.094 11.6133 116.526 15.2339 117.594C17.6673 118.306 18.1422 121.57 16.4803 123.528C15.7087 124.418 14.6403 125.012 13.6907 125.664C11.4353 127.207 9.06113 128.572 6.92441 130.293C5.14382 131.657 3.54129 131.835 1.8794 130.352C0.336218 128.928 -0.0792544 127.029 1.22651 125.308C2.29487 123.825 3.7787 122.638 5.678 120.799Z" fill="#F79E1B"/>
<path d="M57.0777 290.384C60.4015 290.384 63.7846 290.324 67.1084 290.384C70.0167 290.443 71.5599 291.926 71.4412 294.419C71.2631 297.089 69.6606 298.275 67.1084 298.216C60.6982 298.038 54.2881 297.86 47.9373 297.623C47.2844 297.623 46.5722 297.445 45.9193 297.207C43.7826 296.317 43.011 294.597 43.4265 292.401C43.7826 290.265 45.3258 289.612 47.3438 289.731C50.6082 289.909 53.8133 290.087 57.0777 290.265C57.0777 290.324 57.0777 290.324 57.0777 290.384Z" fill="#F79E1B"/>
<path d="M98.2097 269.141C99.5155 265.165 100.643 261.131 102.127 257.214C102.958 254.959 104.917 254.247 107.231 255.256C109.427 256.206 109.843 258.223 109.19 260.715C108.24 264.335 107.35 268.073 106.994 271.811C106.757 274.363 105.985 275.965 103.433 276.439C101.177 276.796 99.5155 275.312 99.1 272.642C98.922 271.574 98.922 270.506 98.8032 269.438C98.6252 269.319 98.3878 269.2 98.2097 269.141Z" fill="#F79E1B"/>
<path d="M155.664 253.773C153.111 253.832 151.331 252.171 151.449 249.856C151.568 247.602 152.696 246.178 155.07 246C157.325 245.881 159.047 247.602 158.987 249.856C158.928 252.23 157.682 253.535 155.664 253.773Z" fill="#F79E1B"/>
<path d="M121.713 227.783C121.535 229.741 120.526 231.284 118.093 231.403C115.837 231.521 114.176 229.86 114.116 227.605C114.116 225.35 115.778 223.63 118.034 223.689C120.111 223.689 121.654 225.35 121.713 227.783Z" fill="#F79E1B"/>
<path d="M99.4559 92.6729C96.9037 92.5542 95.3605 90.7741 95.5979 88.46C95.8354 86.1458 97.1411 84.8404 99.5153 84.8998C101.711 84.9591 103.314 86.7985 103.076 89.1127C102.839 91.3675 101.533 92.6729 99.4559 92.6729Z" fill="#F79E1B"/>
<path d="M124.562 146.135C122.129 146.135 120.407 144.415 120.585 142.101C120.763 139.786 122.01 138.481 124.384 138.362C126.58 138.303 128.301 140.142 128.123 142.397C128.005 144.771 126.758 146.017 124.562 146.135Z" fill="#F79E1B"/>
<path d="M154.535 283.441C154.535 285.815 152.933 287.476 150.677 287.298C148.303 287.12 147.116 285.755 147.116 283.441C147.116 281.127 148.363 279.762 150.677 279.584C152.873 279.406 154.535 281.127 154.535 283.441Z" fill="#F79E1B"/>
<path d="M152.458 270.387C150.262 270.328 148.6 268.548 148.838 266.234C149.016 263.919 150.262 262.614 152.636 262.614C154.892 262.614 156.435 264.394 156.316 266.708C156.138 268.904 154.536 270.447 152.458 270.387Z" fill="#F79E1B"/>
</g>
</svg>
